# ProBuilder 4.3.1
# https://unity3d.com/unity/features/worldbuilding/probuilder
# 28/11/2020 15:12:02

mtllib ./badger-head.mtl
o badger-head

g badger-head
v 0.2034492 0.2085047 -0.06982574
v 0.1827365 0.1572675 -0.07142982
v 0.2034492 0.2085046 0.01281541
v 0.1988665 0.1620102 -0.007512645
v 0.1720244 0.2071953 -0.07062206
v 0.1720244 0.2071953 -0.01392659
v 0.1144129 0.1563501 -0.1444203
v 0.1144129 0.1915655 -0.01611623
v 0.06727614 0.1770712 -0.14442
v 0.06727614 0.1752767 0.03387349
v -0.1474579 0.1127109 -0.08494816
v -0.1265086 0.1164827 -0.07879601
v -0.1474579 0.1181335 -0.04549083
v -0.1265086 0.1220626 -0.04549083
v -0.1422208 0.03978627 -0.09532939
v -0.1422208 0.04217016 0.02994459
v -0.1251992 0.1454019 -0.07666454
v -0.1251992 0.1521863 -0.04549083
v -0.08617673 0.1579751 -0.0957676
v -0.1140698 0.1652841 -0.04549083
v -0.1186522 0.2150535 -0.07389173
v -0.1186522 0.2150535 -0.0318633
v -0.0754436 0.2071943 -0.09888849
v -0.0754436 0.201828 -0.04549131
v -0.02568803 0.1484909 -0.1444203
v -0.02568803 0.1843357 -0.02638825
v 0.02144876 0.1770712 -0.14442
v 0.02144876 0.1752767 0.03387349
v -0.09508405 -0.04319773 -0.07112464
v -0.09508405 -0.04427186 0.02994459
v 0.08691635 -0.2016202 -0.02491673
v 0.04894533 -0.2104217 -0.02234944
v 0.08691635 -0.2061674 0.04776042
v 0.04894533 -0.2151929 0.04614441
v 0.01752057 -0.1965915 -0.02638348
v 0.01752057 -0.2019016 0.06669562
v 0.0044271 -0.1827604 -0.030418
v 0.004427101 -0.18965 0.02994459
v 0.1104847 -0.1865322 -0.02931746
v 0.1104847 -0.191456 0.06587451
v 0.1536936 -0.1173803 -0.04948768
v 0.1536936 -0.1215452 0.0299446
v -0.04532847 -0.1110927 -0.0513216
v -0.04532847 -0.1149964 0.0299446
v 0.1916646 -0.05577002 -0.06745777
v 0.1916646 -0.05736867 0.02994459
v 0.2230894 -0.001705259 -0.08322725
v 0.2230894 -0.001050366 0.02994458
v 0.2165426 0.1378574 -0.06647787
v 0.2165426 0.1443281 0.0008944696
v 0.2113053 0.1189966 -0.0609766
v 0.2113053 0.1246814 0.0008944672
v 0.2374925 0.06493371 -0.09551345
v 0.2374925 0.06836475 0.02994459
v 0.2388019 0.1139678 -0.05950985
v 0.2388019 0.1194429 0.01012365
v -0.01128516 0.06305021 0.09205717
v 0.1131035 0.07108301 0.088633
v 0.003117705 -0.07046233 0.07636159
v 0.1117941 -0.06088648 0.07560867
v 0.1052474 0.06568427 -0.1858116
v -0.01128516 0.06212131 -0.1863009
v 0.09608188 -0.06796751 -0.1459771
v 0.003117705 -0.06723509 -0.1469551

vt 1.018838 0.7212571
vt 1.006468 0.6477914
vt 0.9096101 0.7429256
vt 0.9247254 0.6783521
vt 1.028138 0.7592176
vt 1.018838 0.7178557
vt 0.9532022 0.7740833
vt 0.9096102 0.7395242
vt 1.152241 0.8393741
vt 1.028807 0.7582312
vt 0.9682382 0.8525326
vt 0.953872 0.7730968
vt 1.149394 0.9180374
vt 1.152261 0.8443373
vt 0.8942249 0.9070774
vt 0.9682584 0.8574957
vt -0.1679269 0.028442
vt -0.1929663 0.01603588
vt -0.2026357 0.06475118
vt -0.2225065 0.04668954
vt 0.06899351 0.4911936
vt 0.001648247 0.500963
vt 0.06714988 0.6066434
vt -0.003226399 0.5373393
vt -0.1929662 0.01320818
vt -0.2245832 -0.005214244
vt -0.2225065 0.04386181
vt -0.2538552 0.02236603
vt -0.2245832 -0.006750911
vt -0.2464854 -0.05939503
vt -0.2538552 0.02082938
vt -0.2695599 0.009281635
vt -0.2489616 -0.05756553
vt -0.3309757 -0.02999529
vt -0.2720361 0.01111113
vt -0.3325033 0.0175682
vt 1.073661 -0.02250651
vt 1.023369 -0.05601205
vt 1.071976 0.02997391
vt 1.017764 0.01074386
vt 0.9340795 -0.1147715
vt 0.9524822 0.0320829
vt 1.144569 1.065981
vt 1.148519 0.9843103
vt 0.9652282 1.029709
vt 0.8933495 0.9733505
vt 0.1112449 0.5138135
vt 0.02326399 0.4914994
vt 0.1121053 0.606988
vt 0.02135456 0.606979
vt 1.146577 0.9836211
vt 0.891408 0.9726613
vt 0.245096 0.4078413
vt 0.2185161 0.4139166
vt 0.25256 0.4745844
vt 0.2257643 0.4768258
vt 0.1867648 0.4129542
vt 0.1960982 0.4984252
vt 0.1698079 0.4102639
vt 0.177377 0.4657481
vt 0.8119109 0.3561489
vt 0.7927973 0.3305017
vt 0.7127683 0.4043244
vt 0.7167809 0.3667259
vt 0.876313 0.4259272
vt 0.793561 0.4660871
vt 0.09654374 0.3946207
vt 0.1043703 0.4692325
vt 0.2871801 0.5445122
vt 0.2095835 0.5262488
vt 0.2900684 0.6194602
vt 0.2103782 0.6194006
vt 0.9626327 0.380758
vt 0.9044156 0.317144
vt 0.8629086 0.433156
vt 0.8217338 0.3574103
vt 0.9767913 0.5225829
vt 0.9261514 0.4678407
vt 0.8622285 0.5858353
vt 0.8265193 0.5203794
vt 1.000283 0.6477914
vt 0.968524 0.6067598
vt 0.9185403 0.6783522
vt 0.8942177 0.6554338
vt 0.9674029 0.6139026
vt 0.9489887 0.5945885
vt 0.8930965 0.6625767
vt 0.8805988 0.6389987
vt 0.9335459 0.4800532
vt 0.8766652 0.4091175
vt 0.7909483 0.562517
vt 0.7465411 0.4807523
vt 0.9492209 0.5928969
vt 0.9281249 0.5628211
vt 0.8808311 0.6373072
vt 0.8511271 0.6125569
vt 0.9310924 0.4913555
vt 0.9418886 0.4122274
vt 0.8542091 0.5412899
vt 0.7993405 0.4947767
vt 0.4129107 0.6183942
vt 0.3600807 0.8749421
vt 0.4661615 0.8500144
vt 0.5573378 0.8505949
vt 0.6409163 0.8898802
vt 0.6596905 0.6364275
vt 0.5992475 0.08771186
vt 0.5233721 0.06941404
vt 0.4650452 0.09300944
vt 0.4383626 0.3540048
vt 0.6544271 0.3745894
vt 0.6498352 0.1151395
vt 0.5919746 0.7791054
vt 0.602424 0.8721061
vt 0.5472555 0.8958447
vt 0.4936196 0.8959118
vt 0.4384511 0.8633334
vt 0.4555892 0.7753305
vt 0.5809799 0.6162919
vt 0.4721821 0.6175138
vt 0.4882298 0.4389872
vt 0.524982 0.4221144
vt 0.5694401 0.4327674
vt 0.1555935 0.751718
vt 0.1581986 0.8118658
vt 0.1803411 0.8381518
vt 0.431494 0.121838
vt 0.3325024 0.270227
vt 0.2335108 0.4107729
vt 0.1397294 0.5827264
vt 0.1139135 0.7436095
vt 0.3982613 0.5388522
vt 0.4041366 0.5297431
vt 0.4402831 0.6147723
vt 0.4466279 0.7008892
vt 0.4231708 0.759259
vt 0.3329437 0.7349899
vt 0.3396947 0.6859803
vt 0.3572941 0.6310527
vt 0.3779796 0.5862104
vt 0.7250277 0.6956604
vt 0.703282 0.6991034
vt 0.6161587 0.7382222
vt 0.6034255 0.6733824
vt 0.601584 0.5628875
vt 0.6106343 0.4402914
vt 0.6285146 0.4533253
vt 0.6596726 0.5114107
vt 0.6870207 0.5631478
vt 0.7095335 0.6085003
vt 0.7191737 0.6627153
vt 0.1740056 0.9357578
vt 0.2571901 0.9115881
vt 0.3424553 0.7377856
vt 0.3713394 0.7657434
vt 0.3424088 0.757224
vt 0.378514 0.7988107
vt 0.3450694 0.8040393
vt 0.7066488 0.7147789
vt 0.6794911 0.7298062
vt 0.6959386 0.7700903
vt 0.6712044 0.7683858
vt 0.8106976 0.830891
vt 0.8475811 0.7947807
vt 0.8371612 0.7554969
vt 0.8937509 0.7442486
vt 0.8951913 0.639825
vt 0.8665354 0.50108
vt 0.804014 0.3882625
vt 0.7284684 0.2596758
vt 0.7559845 0.9215389
vt 0.823964 0.9212483

vn 0.4635559 -0.1873925 -2.233893E-08
vn 0.4741097 -0.0907481 -0.06137298
vn 0.4846635 0.005896299 -0.1227459
vn -0.02081575 0.4995666 5.955297E-08
vn -0.2278807 0.4291789 -0.117796
vn -0.1793982 0.4558679 -0.05889799
vn -0.1309158 0.4825568 5.752525E-08
vn 0.2012058 0.4577063 0.004606775
vn -0.030198 0.4343069 -0.05408717
vn -0.2616018 0.4109075 -0.1127811
vn -0.06853862 0.4906683 -0.06743214
vn -0.07974189 0.4877847 -0.07433619
vn -0.09094515 0.4849011 -0.08124026
vn -0.4987082 -0.03591216 0.0006833868
vn -0.4988867 -0.03309361 0.002422031
vn -0.4990653 -0.03027506 0.004160676
vn -0.4994607 0.02289716 -0.003836187
vn -0.4994833 0.02230466 -0.004280737
vn -0.499506 0.02171215 -0.004725287
vn -0.1932003 0.4506174 -0.09806934
vn -0.2658388 0.3691135 -0.1638322
vn -0.3384773 0.2876096 -0.2295951
vn -0.4237392 -0.1599017 -0.2118409
vn -0.4608166 -0.1028721 -0.1059204
vn -0.497894 -0.04584245 -5.464845E-09
vn 0.08947744 0.4919287 5.864246E-08
vn 0.1243834 0.4817508 0.02369606
vn 0.1592894 0.4715728 0.04739206
vn 0.3922939 0.3084551 0.03099908
vn 0.298351 0.3725369 -0.05079823
vn 0.2044081 0.4366186 -0.1325955
vn -0.2509119 0.4138231 -0.1256728
vn -0.08133265 0.4529746 -0.06035981
vn 0.08824661 0.4921261 0.004953207
vn -0.4344221 -0.2475289 -0.002630661
vn -0.4366901 -0.2434463 0.0009621428
vn -0.4389582 -0.2393637 0.004554946
vn 0 0.4999748 0.005032204
vn 0.1107397 -0.486631 -0.03044656
vn 0.1137313 -0.4858204 -0.032116
vn 0.1167229 -0.4850097 -0.03378543
vn -0.1975605 -0.4582043 -0.03191819
vn -0.2031666 -0.4558974 -0.02889751
vn -0.2087728 -0.4535905 -0.02587684
vn -0.3599283 -0.346498 -0.01976733
vn -0.3103665 -0.3851692 -0.0340717
vn -0.2608047 -0.4238405 -0.04837607
vn 0.2664228 -0.4225414 -0.02185603
vn 0.272505 -0.4184645 -0.02389131
vn 0.2785871 -0.4143876 -0.02592658
vn 0.4220118 -0.2677853 -0.01404115
vn 0.4219765 -0.2678455 -0.01394931
vn -0.4052236 -0.2910164 -0.03321587
vn -0.410568 -0.284108 -0.02326567
vn -0.4159124 -0.2771997 -0.01331547
vn -0.4011327 -0.29814 -0.01432135
vn -0.4050325 -0.2929145 -0.00868941
vn -0.4089323 -0.2876891 -0.003057471
vn 0.4250734 -0.2632374 -0.004320482
vn 0.4276205 -0.2588762 -0.008832908
vn 0.4301675 -0.254515 -0.01334533
vn 0.4324643 -0.2509433 0.001452136
vn 0.434539 -0.2472836 -0.001273216
vn 0.4366136 -0.2436238 -0.003998568
vn 0.2548239 0.419473 -0.09543155
vn 0.3077222 0.3821144 -0.06427162
vn 0.3606205 0.3447557 -0.03311169
vn 0.482549 -0.1303446 0.0125188
vn 0.4827711 -0.1295496 0.01217452
vn 0.4829931 -0.1287546 0.01183025
vn 0.4888163 -0.105121 0.002874858
vn 0.4891941 -0.1033517 0.001731343
vn 0.4895719 -0.1015825 0.0005878282
vn 0.09190642 0.4894191 -0.04496887
vn 0.09879158 0.4883102 -0.041638
vn 0.1056768 0.4872012 -0.03830713
vn 0.4997981 -0.01416422 0.001113689
vn 0.4998186 -0.01342155 0.000730216
vn 0.4998391 -0.01267889 0.0003467433
vn -0.1090837 0.2357154 0.39256
vn -0.3244888 0.2453588 0.2906995
vn -0.1622444 0.2377465 0.3672947
vn 0.08249772 0.2480814 0.4049967
vn 0.2502556 0.2824567 0.3280098
vn 0.1237466 0.257055 0.3855501
vn 0.0599887 -0.3873535 0.3071173
vn 0.07086384 -0.359113 0.3406116
vn 0.04279947 -0.2701515 0.3709613
vn 0.007578084 -0.03649202 0.4986078
vn 0.006735156 -0.03723641 0.4985661
vn 0.02142324 -0.1628593 0.4236129
vn 0.008503953 -0.057464 0.4966142
vn 0.01268665 -0.05335461 0.4969486
vn 0.01686935 -0.04924523 0.497283
vn 0.04168534 0.185194 -0.4601254
vn 0.08669598 0.1972234 -0.4512059
vn 0.02779023 0.1805172 -0.4633471
vn -0.05934408 0.1834585 -0.4571529
vn -0.1186882 0.1957533 -0.4445153
vn -0.04067115 0.1800272 -0.4611168
vn -0.007631243 -0.337855 -0.3683789
vn 0.001163081 -0.3408456 -0.3658183
vn -0.005087625 -0.2719061 -0.4055851
vn -3.879669E-07 -0.1400084 -0.4799976
vn -0.008212977 -0.2374364 -0.4254686
vn 0.00391291 -0.1430572 -0.4790818
vn 0.005175049 -0.143945 -0.4788013
vn 0.006437188 -0.1448328 -0.4785207
vn -0.1075286 0.175161 0.4069646
vn -1.533849E-07 7.072897E-08 0.5000001
vn -0.05602016 0.01612215 0.4931087
vn -0.1911917 0.2193912 0.3703677
vn -0.2105267 0.04063704 0.4078682
vn -0.2949907 -0.1166941 0.350189
vn -0.4735208 -0.06275541 0.1477831
vn -0.3576413 -0.1119431 0.2773542
vn -0.2394079 -0.1639507 0.4071738
vn -0.2200272 -0.1164809 0.4312603
vn -0.180507 0.2166077 0.356655
vn -0.06509133 0.3470536 0.3540013
vn -0.2663811 -0.3009568 -0.2953507
vn -0.2366827 -0.314115 -0.3087282
vn -0.284154 -0.2602885 -0.3083671
vn -0.2757178 -0.08151581 -0.3745963
vn -0.2596552 0.09200727 -0.4126378
vn -0.2294257 0.04641993 -0.4418248
vn -0.2474607 -0.0177806 -0.4015395
vn -0.2756418 -0.2255322 -0.3407033
vn -0.2928682 -0.2911267 -0.2818725
vn 0.07458625 0.291317 -0.3994638
vn 0.2128118 0.2419659 -0.3546981
vn 0.342569 0.1220288 -0.3431552
vn 0.2759704 0.04129111 -0.3654918
vn 0.2554854 -0.2521951 -0.3359385
vn 0.1438984 -0.3268466 -0.3499495
vn 0.2152262 -0.2980033 -0.3294414
vn 0.2872605 -0.2683787 -0.308955
vn 0.2891762 -0.2638509 -0.3110307
vn 0.2768059 -0.1765069 -0.3701406
vn 0.1890923 0.1572399 -0.373176
vn 0.1125774 -0.1189861 0.4724073
vn -0.1296191 0.137011 0.4630626
vn -0.2097085 0.2170798 -0.2527056
vn -0.1076404 0.4831884 0.07030349
vn -0.1994973 0.3041283 -0.1581555
vn -0.2607425 0.08402546 -0.4142101
vn -0.2301309 0.0429827 -0.4418058
vn -0.3081939 0.04238721 -0.3914331
vn -0.2773235 0.03429785 -0.4128422
vn -0.2464531 0.0262085 -0.4342512
vn 0.1670677 0.01496824 -0.4017965
vn -0.008699455 -0.1377556 -0.4805702
vn 0.3428349 0.1676921 -0.3230227
vn 0.1858574 0.04664933 -0.4186431
vn 0.01221744 0.01070632 -0.4997361
vn 0.3594974 0.08259235 -0.3375502
vn -0.09387314 0.07621203 0.4772825
vn -0.174996 0.04664977 0.4660475
vn 0.005755355 0.184012 0.4281243
vn -0.1177232 0.1784188 0.4520045
vn 0.09213803 0.13736 0.4255162
vn 0.1950182 -0.07171034 0.4536151
vn 0.2231417 -0.09599966 0.4336402
vn 0.2947884 -0.0868413 0.3858429
vn 0.3470984 -0.03021663 0.3586219
vn 0.2794094 -0.0729099 0.401043
vn 0.1945868 0.08014987 0.4145451
vn 0.06954995 0.2086978 0.424421
vn -0.03270551 0.05102221 0.4963135
vn -0.3094825 -0.1313117 0.3701052

usemtl tanya-badger-head
f 57/101/80 28/103/82 26/102/81
f 57/101/80 10/104/83 28/103/82
f 58/106/85 8/105/84 10/104/83
f 57/101/80 58/106/85 10/104/83
f 34/108/87 33/107/86 36/109/88
f 33/107/86 40/112/91 36/109/88
f 36/109/88 40/112/91 59/110/89
f 40/112/91 60/111/90 59/110/89
f 9/115/97 7/114/96 61/113/95
f 9/115/97 61/113/95 62/118/100
f 27/116/98 9/115/97 62/118/100
f 25/117/99 27/116/98 62/118/100
f 35/121/103 63/119/101 31/123/105
f 64/120/102 63/119/101 35/121/103
f 35/121/103 31/123/105 32/122/104
f 18/125/110 14/124/109 20/126/111
f 20/126/111 14/124/109 26/102/112
f 16/130/119 14/124/109 13/131/120
f 26/102/112 14/124/109 16/130/119
f 57/101/113 26/102/112 16/130/119
f 30/129/118 57/101/113 16/130/119
f 59/110/114 57/101/113 30/129/118
f 44/128/117 59/110/114 30/129/118
f 38/127/116 59/110/114 44/128/117
f 36/109/115 59/110/114 38/127/116
f 29/139/128 62/135/124 64/134/123
f 15/138/127 62/135/124 29/139/128
f 15/138/127 25/136/125 62/135/124
f 11/137/126 25/136/125 15/138/127
f 29/139/128 64/134/123 43/140/129
f 43/140/129 64/134/123 37/132/121
f 37/132/121 64/134/123 35/133/122
f 53/151/140 47/150/139 61/144/133
f 53/151/140 61/144/133 51/142/131
f 55/141/130 53/151/140 51/142/131
f 61/144/133 7/143/132 51/142/131
f 61/144/133 47/150/139 63/145/134
f 63/145/134 47/150/139 45/149/138
f 63/145/134 45/149/138 41/148/137
f 63/145/134 41/148/137 39/147/136
f 63/145/134 39/147/136 31/146/135
f 20/126/141 24/153/141 22/152/141
f 20/126/142 26/102/142 24/153/142
f 25/136/145 11/137/144 12/154/143
f 25/136/145 12/154/143 19/155/146
f 19/155/146 12/154/143 17/156/147
f 42/170/164 60/111/166 40/112/165
f 42/170/164 46/169/163 60/111/166
f 60/111/166 46/169/163 58/106/167
f 46/169/163 48/168/162 58/106/167
f 48/168/162 54/167/161 58/106/167
f 52/165/159 50/164/158 4/163/157
f 52/165/159 4/163/157 8/105/168
f 58/106/167 52/165/159 8/105/168
f 54/167/161 52/165/159 58/106/167
f 54/167/161 56/166/160 52/165/159
f 4/163/169 6/171/169 8/105/169
f 4/163/170 3/172/170 6/171/170
f 4/4/3 2/2/2 1/1/1
f 1/1/1 3/3/2 4/4/3
f 3/8/4 1/6/4 5/5/4
f 5/5/4 6/7/4 3/8/4
f 6/12/7 5/10/6 7/9/5
f 7/9/5 8/11/6 6/12/7
f 8/16/10 7/14/9 9/13/8
f 9/13/8 10/15/9 8/16/10
f 14/20/13 12/18/12 11/17/11
f 11/17/11 13/19/12 14/20/13
f 13/24/16 11/22/15 15/21/14
f 15/21/14 16/23/15 13/24/16
f 18/28/19 17/26/18 12/25/17
f 12/25/17 14/27/18 18/28/19
f 20/32/22 19/30/21 17/29/20
f 17/29/20 18/31/21 20/32/22
f 22/36/25 21/34/24 19/33/23
f 19/33/23 20/35/24 22/36/25
f 24/40/28 23/38/27 21/37/26
f 21/37/26 22/39/27 24/40/28
f 26/42/31 25/41/30 23/38/29
f 23/38/29 24/40/30 26/42/31
f 28/46/34 27/44/33 25/43/32
f 25/43/32 26/45/33 28/46/34
f 16/50/37 15/48/36 29/47/35
f 29/47/35 30/49/36 16/50/37
f 10/15/38 9/13/38 27/51/38
f 27/51/38 28/52/38 10/15/38
f 34/56/41 32/54/40 31/53/39
f 31/53/39 33/55/40 34/56/41
f 36/58/44 35/57/43 32/54/42
f 32/54/42 34/56/43 36/58/44
f 38/60/47 37/59/46 35/57/45
f 35/57/45 36/58/46 38/60/47
f 33/64/50 31/62/49 39/61/48
f 39/61/48 40/63/49 33/64/50
f 40/63/52 39/61/52 41/65/51
f 41/65/51 42/66/52 40/63/52
f 44/68/55 43/67/54 37/59/53
f 37/59/53 38/60/54 44/68/55
f 30/72/58 29/70/57 43/69/56
f 43/69/56 44/71/57 30/72/58
f 42/76/61 41/74/60 45/73/59
f 45/73/59 46/75/60 42/76/61
f 46/80/64 45/78/63 47/77/62
f 47/77/62 48/79/63 46/80/64
f 50/84/67 49/82/66 2/81/65
f 2/81/65 4/83/66 50/84/67
f 52/88/70 51/86/69 49/85/68
f 49/85/68 50/87/69 52/88/70
f 48/92/73 47/90/72 53/89/71
f 53/89/71 54/91/72 48/92/73
f 56/96/76 55/94/75 51/93/74
f 51/93/74 52/95/75 56/96/76
f 54/100/79 53/98/78 55/97/77
f 55/97/77 56/99/78 54/100/79
f 60/111/93 58/106/94 57/101/93
f 57/101/93 59/110/92 60/111/93
f 62/118/108 61/113/107 63/119/106
f 63/119/106 64/120/107 62/118/108
f 21/158/150 23/157/149 25/136/148
f 25/136/148 19/155/149 21/158/150
f 2/160/151 49/159/152 51/142/151
f 51/142/151 7/143/153 2/160/151
f 5/162/154 1/161/155 2/160/154
f 2/160/154 7/143/156 5/162/154

