# ProBuilder 4.4.0
# https://unity3d.com/unity/features/worldbuilding/probuilder
# 05/11/2020 00:20:08

mtllib ./frame-piece-short.mtl
o frame-piece-short

g frame-piece-short
v 0.4576105 1.503904 -0.2837149
v 0.4013102 1.446066 -0.2652844
v -0.4644969 1.439978 -0.2652845
v -0.511667 1.502381 -0.2837149
v 0.4576105 1.503904 -0.2410276
v -0.511667 1.502381 -0.2410276
v 0.4013102 1.446066 -0.2410276
v -0.4644965 1.439978 -0.2410276

vt 0.9992899 0.9792937
vt 0.9429988 0.9185819
vt 0.07719195 0.9126499
vt 0.03001267 0.977696
vt 0.02356839 0.9568877
vt 0.9928457 0.9553657
vt 0.07986869 0.8990501
vt 0.9456753 0.8929619
vt 0.4760869 0.9097505
vt 0.0998396 0.9097486
vt 0.4760869 0.9524378
vt 0.09983957 0.9524359
vt 0.5074183 0.9097503
vt 0.5074184 0.9340072
vt 0.5738357 0.9097505
vt 0.4956098 0.9097505
vt 0.5738357 0.9524378
vt 0.49561 0.9340073
vt 0.9225336 2.122139E-07
vt 0.0567056 2.122138E-07
vt 0.922534 0.02425707
vt 0.05670564 0.02425704

vn 0.0004774331 -0.3040379 -0.9526601
vn 0.001229763 -0.2929526 -0.9560558
vn 0.001982094 -0.2818673 -0.9594515
vn -3.798316E-11 -9.572703E-09 1
vn -0.001570307 0.9999989 2.479909E-07
vn 0.7165659 -0.6975196 1.38732E-06
vn -0.7977389 -0.6030034 -1.491746E-07
vn -0.7977415 -0.6029999 7.861586E-06
vn 0.007031718 -0.9999754 3.445596E-06

usemtl tanya-door
f 2/2/2 3/3/3 4/4/2 1/1/1
f 7/7/4 5/5/4 6/6/4 8/8/4
f 1/11/5 4/12/5 6/10/5 5/9/5
f 2/14/6 1/11/6 5/9/6 7/13/6
f 4/17/8 3/18/8 8/16/8 6/15/7
f 3/21/9 2/22/9 7/20/9 8/19/9

