# ProBuilder 4.2.3
# https://unity3d.com/unity/features/worldbuilding/probuilder
# 25/10/2020 23:07:46

mtllib ./stem.mtl
o stem

g stem
v -0.0006907278 0.001062251 3.375345E-09
v 0.001389296 0.001448864 -0.009734569
v 0.02135766 0.005160431 0.01185075
v 0.03258995 0.007248194 0.02878041
v 0.04756622 0.01003188 0.05290524
v 0.07235567 0.007226066 0.07914615
v 0.08547281 0.003640179 0.08888073
v 0.08293401 0.004051459 0.09311314
v 0.07277881 0.007226066 0.08718774
v 0.04971905 0.01022779 0.06644897
v 0.03092585 0.006938907 0.03978471
v 0.01137346 0.003304657 0.01608319
v 0.0006297537 -0.006042133 2.528437E-09
v 0.002709778 -0.00565552 -0.009734569
v 0.02267817 -0.001943952 0.01185075
v 0.01269398 -0.003799727 0.01608319
v 0.03391043 0.0001438114 0.02878041
v 0.03224642 -0.0001654771 0.03978471
v 0.04888673 0.002927493 0.05290524
v 0.0510029 0.003116699 0.06644897
v 0.07235567 7.450581E-09 0.07914615
v 0.07277881 7.450581E-09 0.08718774
v 0.08547281 0.003273139 0.08888076
v 0.08293404 0.00124864 0.09311317

vt 0.7531541 0.9763287
vt 0.7551584 0.9858444
vt 0.7743999 0.9635173
vt 0.7852234 0.9462271
vt 0.7996546 0.9216398
vt 0.8245916 0.8955969
vt 0.8380843 0.8862369
vt 0.8355128 0.8820472
vt 0.8250104 0.8876412
vt 0.801758 0.9081798
vt 0.7836199 0.935436
vt 0.7647792 0.9598334
vt 0.75256 0.9739813
vt 0.7546538 0.983697
vt 0.7747538 0.9620156
vt 0.7647038 0.9578423
vt 0.7860601 0.9450355
vt 0.7843851 0.9340486
vt 0.8011351 0.9208444
vt 0.8032571 0.9073067
vt 0.8244693 0.894771
vt 0.8248921 0.886736
vt 0.8377061 0.884938
vt 0.8350889 0.8807825
vt 0.8443446 0.8327125
vt 0.8345441 0.8330308
vt 0.8443902 0.8398629
vt 0.8345897 0.8401812
vt 0.8554271 0.8359311
vt 0.8554727 0.8430817
vt 0.8600017 0.8344607
vt 0.8600473 0.8416112
vt 0.8719589 0.8375562
vt 0.8720044 0.8447067
vt 0.883014 0.8372972
vt 0.8830596 0.8444477
vt 0.8955522 0.8397208
vt 0.8955978 0.8468713
vt 0.9090148 0.839809
vt 0.9090592 0.8469648
vt 0.9209672 0.8358443
vt 0.9209672 0.8430648
vt 0.9289894 0.835817
vt 0.9289894 0.8430375
vt 0.9302431 0.83859
vt 0.9345607 0.8366604
vt 0.9345607 0.839461

vn -0.1827418 0.983161 -7.42379E-07
vn -0.07525175 0.983748 -0.007211243
vn 0.1871809 0.9800155 -0.02001872
vn 0.2684579 0.9621463 0.02500956
vn 0.2633182 0.9625561 0.06441531
vn 0.2240974 0.9716871 0.01429862
vn 0.03078712 0.9862838 -0.009585088
vn -0.1870214 0.9822879 0.005633751
vn 0.1827417 -0.983161 5.59577E-07
vn 0.1870102 -0.9822904 -0.005618231
vn 0.07025325 -0.9829227 0.007694086
vn -0.04032406 -0.9848049 0.01030714
vn -0.02173522 -0.9805603 0.01151774
vn 0.1255537 -0.9592599 -0.09381491
vn 0.2628255 -0.944486 -0.1446421
vn 0.2743375 -0.9211566 -0.2760606
vn -0.9607337 -0.1785701 -0.2123757
vn 0.7160242 0.1330864 -0.6852719
vn -0.7816389 -0.1452853 0.6065747
vn 0.8149558 0.1514781 -0.559376
vn -0.7531533 -0.139997 0.6427761
vn 0.8313133 0.154515 -0.5338944
vn -0.8008537 -0.1445881 0.5811434
vn -0.8002156 -0.1466072 0.5815123
vn -0.7995776 -0.1486264 0.5818813
vn 0.7458171 0.1386271 -0.651567
vn 0.736371 0.06931353 -0.6691419
vn 0.726925 0 -0.6867169
vn -0.689652 0 0.724141
vn -0.6810467 -0.06070209 0.7271334
vn -0.6724414 -0.1214042 0.7301258
vn 0.595947 0 -0.8030238
vn 0.2979735 0 -0.4015119
vn 0 0 0
vn 0.4287755 7.293959E-06 0.2571994
vn 0.8575511 1.458792E-05 0.5143988
vn -0.5039688 3.825248E-06 0.8637218

usemtl tanya-balcony-square
f 3/3/1 2/2/1 1/1/1
f 12/12/1 3/3/1 1/1/1
f 12/12/1 4/4/1 3/3/1
f 12/12/1 11/11/8 4/4/1
f 5/5/2 4/4/1 11/11/8
f 10/10/7 5/5/2 11/11/8
f 10/10/7 6/6/3 5/5/2
f 9/9/6 6/6/3 10/10/7
f 9/9/6 7/7/4 6/6/3
f 8/8/5 7/7/4 9/9/6
f 22/22/14 23/23/15 24/24/16
f 21/21/13 23/23/15 22/22/14
f 20/20/12 21/21/13 22/22/14
f 19/19/11 21/21/13 20/20/12
f 18/18/10 19/19/11 20/20/12
f 18/18/10 17/17/9 19/19/11
f 17/17/9 18/18/10 16/16/9
f 15/15/9 17/17/9 16/16/9
f 13/13/9 15/15/9 16/16/9
f 13/13/9 14/14/9 15/15/9
f 2/28/17 14/26/17 13/25/17
f 13/25/17 1/27/17 2/28/17
f 3/30/18 15/29/18 14/26/18
f 14/26/18 2/28/18 3/30/18
f 1/27/19 13/25/19 16/31/19
f 16/31/19 12/32/19 1/27/19
f 4/34/20 17/33/20 15/29/20
f 15/29/20 3/30/20 4/34/20
f 12/32/21 16/31/21 18/35/21
f 18/35/21 11/36/21 12/32/21
f 5/38/22 19/37/22 17/33/22
f 17/33/22 4/34/22 5/38/22
f 11/36/25 18/35/24 20/39/23
f 20/39/23 10/40/24 11/36/25
f 6/42/28 21/41/27 19/37/26
f 19/37/26 5/38/27 6/42/28
f 10/40/31 20/39/30 22/43/29
f 22/43/29 9/44/30 10/40/31
f 7/45/34 23/45/33 21/41/32
f 21/41/32 6/42/33 7/45/34
f 8/47/36 24/46/35 23/45/34
f 23/45/34 7/45/35 8/47/36
f 9/44/37 22/43/37 24/46/37
f 24/46/37 8/47/37 9/44/37

