# ProBuilder 4.2.3
# https://unity3d.com/unity/features/worldbuilding/probuilder
# 25/10/2020 20:19:10

mtllib ./watering-can.mtl
o watering-can

g watering-can
v -0.285 0.1388 -0.07372882
v -0.3021936 0.1415738 -0.07372882
v -0.3227151 0.1410191 -0.07372879
v -0.342682 0.1299237 -0.07372879
v -0.3532201 0.1066234 -0.07372879
v -0.3515562 0.08554216 -0.07372879
v -0.3343624 0.06057755 -0.07372878
v -0.3038576 0.04005109 -0.07372879
v -0.278899 0.02451755 -0.07372879
v -0.2544951 0.004545871 -0.07372879
v -0.2672517 0.0328391 -0.07372879
v -0.2933195 0.04781786 -0.07372878
v -0.3160595 0.06168709 -0.07372879
v -0.3371356 0.081104 -0.07372879
v -0.3443459 0.1005209 -0.07372879
v -0.3371356 0.1227117 -0.07372879
v -0.3210512 0.1343618 -0.07372879
v -0.2999751 0.1304785 -0.07372882
v -0.2877732 0.1177188 -0.07372882
v -0.2544951 0.004545875 -0.03499997
v -0.2672517 0.0328391 -0.03499997
v -0.278899 0.02451755 -0.03499997
v -0.2933195 0.04781786 -0.03499996
v -0.3038576 0.0400511 -0.03499997
v -0.3160595 0.06168709 -0.03499997
v -0.3343624 0.06057755 -0.03499996
v -0.3371356 0.081104 -0.03499997
v -0.3515561 0.08554217 -0.03499997
v -0.3443459 0.1005209 -0.03499997
v -0.285 0.1388 -0.035
v -0.2999751 0.1304785 -0.035
v -0.2877732 0.1177188 -0.035
v -0.3021936 0.1415738 -0.035
v -0.3210512 0.1343618 -0.03499997
v -0.3227151 0.1410191 -0.03499997
v -0.342682 0.1299237 -0.03499997
v -0.3371356 0.1227117 -0.03499997
v -0.35322 0.1066234 -0.03499997
v -0.2516896 -0.01257576 -0.1046685
v -0.195746 0.004592925 -0.1046685
v -0.1347167 0.03257148 -0.1046685
v -0.09466618 0.05927828 -0.1046685
v -0.1232737 0.1177789 -0.1046685
v -0.1474311 0.1540239 -0.1046685
v -0.1599255 0.1700462 -0.1046685
v -0.2558458 0.169956 -0.1046685
v -0.2898329 0.1368553 -0.1046685
v -0.28729 0.1133278 -0.1046685
v -0.2783899 0.07390343 -0.1046685
v -0.266947 0.03129972 -0.1046685
v -0.1474311 0.1540239 2.00603E-08
v -0.1599255 0.1700462 3.084929E-08
v -0.2558458 0.169956 3.498905E-08
v -0.195746 0.004592908 1.53852E-08
v -0.2669469 0.03129971 2.379885E-09
v -0.2516896 -0.01257576 -2.512882E-10
v -0.2783899 0.07390343 1.19325E-08
v -0.09466616 0.05927827 1.536089E-08
v -0.1232736 0.1177789 2.547532E-08
v -0.1347167 0.03257145 5.728299E-09
v -0.28729 0.1133278 5.507689E-08
v -0.2898329 0.1368553 5.50995E-08
v -0.1955386 0.1014952 -0.0199999
v -0.2248475 0.1006883 -0.0199999
v -0.1955386 0.1014951 -0.08466847
v -0.2248475 0.1006882 -0.08466847
v -0.2367813 0.1701011 -0.01345071
v -0.177275 0.1710714 -0.01345071
v -0.177275 0.1710714 -0.09121756
v -0.2367813 0.1701012 -0.09121756
v -0.1064085 0.08550078 -0.07283917
v -0.07268631 0.2196378 -0.07283912
v -0.08209714 0.2235599 -0.07283913
v -0.1220933 0.1160934 -0.07283916
v -0.07268633 0.2196378 -0.04399997
v -0.08209716 0.2235599 -0.04399998
v -0.1220933 0.1160934 -0.04399999
v -0.1064085 0.08550077 -0.044

vt 0.7867315 0.6377223
vt 0.8039252 0.6404961
vt 0.8244467 0.6399413
vt 0.8444135 0.6288459
vt 0.8549516 0.6055456
vt 0.8532877 0.5844644
vt 0.836094 0.5594998
vt 0.8055891 0.5389733
vt 0.7806306 0.5234398
vt 0.7562267 0.5034682
vt 0.7689832 0.5317613
vt 0.7950511 0.5467401
vt 0.8177911 0.5606093
vt 0.8388672 0.5800263
vt 0.8460774 0.5994432
vt 0.8388672 0.6216339
vt 0.8227828 0.6332841
vt 0.8017067 0.6294007
vt 0.7895047 0.616641
vt 0.7733785 0.5572448
vt 0.7493184 0.5572448
vt 0.7733785 0.5959736
vt 0.7493184 0.5959736
vt 0.7615097 0.5572448
vt 0.7615097 0.5959736
vt 0.7429959 0.5572448
vt 0.7429959 0.5959736
vt 0.7542638 0.5572448
vt 0.7542638 0.5959736
vt 0.7366776 0.5572448
vt 0.7366776 0.5959736
vt 0.6669859 0.5765271
vt 0.7036562 0.5765271
vt 0.6669859 0.6152559
vt 0.7036562 0.6152559
vt 0.7242584 0.5572448
vt 0.7242584 0.5959736
vt 0.6380496 0.5765271
vt 0.6380496 0.6152559
vt 0.7072336 0.5572448
vt 0.7072336 0.5959736
vt 0.6625346 0.5572448
vt 0.6712433 0.5572448
vt 0.6625346 0.5959736
vt 0.6712433 0.5959736
vt 0.649238 0.5572448
vt 0.649238 0.5959736
vt 0.6575456 0.5765271
vt 0.6423055 0.5765271
vt 0.6575456 0.615256
vt 0.6423055 0.615256
vt 0.665651 0.5572448
vt 0.665651 0.5959736
vt 0.6265014 0.5765271
vt 0.6265014 0.6152559
vt 0.6176395 0.5765271
vt 0.6176395 0.6152559
vt 0.682645 0.5572448
vt 0.682645 0.5959736
vt 0.6237291 0.5765271
vt 0.6237291 0.6152559
vt 0.7511253 0.4855594
vt 0.6951817 0.5027281
vt 0.6341524 0.5307066
vt 0.5941019 0.5574135
vt 0.6227094 0.6159141
vt 0.6468668 0.6521591
vt 0.6593612 0.6681814
vt 0.7552814 0.6680912
vt 0.7892686 0.6349905
vt 0.7867257 0.611463
vt 0.7778256 0.5720386
vt 0.7663826 0.5294349
vt 0.6483756 0.6536678
vt 0.66087 0.6696901
vt 0.7567902 0.6696
vt 0.6966904 0.5042369
vt 0.7678914 0.5309436
vt 0.752634 0.4870682
vt 0.7793344 0.5735474
vt 0.5956107 0.5589222
vt 0.6242182 0.6174229
vt 0.6356611 0.5322154
vt 0.7882345 0.6129718
vt 0.7907774 0.6364992
vt 0.6777382 0.5358522
vt 0.6558259 0.5358522
vt 0.6777382 0.6349062
vt 0.6558259 0.6349062
vt 0.6879181 0.5663868
vt 0.7017701 0.5663868
vt 0.6879181 0.5950755
vt 0.7017701 0.5950755
vt 0.6813561 0.5768625
vt 0.6556255 0.5469432
vt 0.6813561 0.6455512
vt 0.6556255 0.6043627
vt 0.7336891 0.5351281
vt 0.7096527 0.5351281
vt 0.7336891 0.6397967
vt 0.7096527 0.6397966
vt 0.7103057 0.5768625
vt 0.7103057 0.6455512
vt 0.7596502 0.5204949
vt 0.6837468 0.5204949
vt 0.7596502 0.6424946
vt 0.6837468 0.6424946
vt 0.6818019 0.5351281
vt 0.6620547 0.5351281
vt 0.6818019 0.6397966
vt 0.6620547 0.6397966
vt 0.7095261 0.5319676
vt 0.6625507 0.5319676
vt 0.7095261 0.6310219
vt 0.6625507 0.6310219
vt 0.736829 0.5768625
vt 0.736829 0.6455512
vt 0.7074317 0.5704785
vt 0.7377815 0.5704785
vt 0.7074317 0.6391672
vt 0.737783 0.6391672
vt 0.7523588 0.5768625
vt 0.7523588 0.6455512
vt 0.6659085 0.5840511
vt 0.7618288 0.5840511
vt 0.6849731 0.5975025
vt 0.7444803 0.5975112
vt 0.6558259 0.5633352
vt 0.6558259 0.6035824
vt 0.6173261 0.5710256
vt 0.6173261 0.595892
vt 0.6358606 0.5738876
vt 0.6427767 0.5977702
vt 0.6199615 0.5704864
vt 0.6311556 0.6091411
vt 0.6676178 0.6035824
vt 0.6538908 0.595892
vt 0.6802574 0.5857761
vt 0.6412439 0.5852031
vt 0.6682129 0.5903112
vt 0.6489969 0.5900511
vt 0.6802235 0.6367366
vt 0.6693805 0.6324388
vt 0.6693805 0.59
vt 0.6412005 0.5857021
vt 0.6412005 0.6367366
vt 0.6501657 0.59
vt 0.6501657 0.6324387
vt 0.6412438 0.6372353
vt 0.6489969 0.6323813
vt 0.6682128 0.6321216
vt 0.6067601 0.5836432
vt 0.5730379 0.7177802
vt 0.5824487 0.7217023
vt 0.6224448 0.6142359
vt 0.6474531 0.5478935
vt 0.6603474 0.5687914
vt 0.7595711 0.6256727
vt 0.746689 0.5846543
vt 0.6706696 0.5746366
vt 0.6634337 0.5746366
vt 0.6706696 0.6034757
vt 0.6634337 0.6034757
vt 0.7472941 0.6034757
vt 0.747294 0.5746366
vt 0.7815646 0.6034757
vt 0.7815645 0.5746366

vn 4.779673E-08 -1.144786E-07 -0.9999999
vn 1.983396E-07 1.192093E-07 0.9999999
vn 0.9116239 0.4110254 -3.419964E-07
vn -0.6333295 -0.7738823 3.401445E-07
vn 0.4982152 0.8670534 -3.017799E-07
vn -0.5283945 -0.8489989 3.074402E-07
vn 0.5206999 0.8537398 -3.18543E-07
vn -0.5582702 -0.8296592 3.127812E-07
vn 0.6775645 0.7354633 -3.310733E-07
vn -0.8235719 -0.5672118 4.777692E-07
vn 0.9374528 0.3481125 -3.718387E-07
vn -0.7227254 -0.6911353 4.203072E-07
vn 0.9914584 -0.1304231 -2.799881E-07
vn 0.1592698 0.9872351 -3.15277E-07
vn -0.1812055 -0.9834452 3.11996E-07
vn -0.02702302 0.9996347 -2.609339E-07
vn -0.4857333 0.8741071 -9.206475E-08
vn 0.5866026 -0.8098748 4.994674E-08
vn -0.9111453 0.4120854 1.550337E-07
vn 0.9510561 -0.3090184 -1.951323E-07
vn -0.9968996 -0.07868447 4.111448E-07
vn 0.7885745 0.6149393 -2.278068E-08
vn -0.02751933 0.9996212 -1.494551E-06
vn -0.9445214 -0.32845 2.365896E-07
vn 0.2933872 -0.9559937 3.930664E-08
vn -0.9657707 -0.2593975 7.656917E-09
vn 0.8983409 0.439299 -1.941884E-07
vn 0.5547937 -0.8319879 -2.376217E-07
vn 0.416738 -0.9090266 -1.492721E-07
vn 0.8321124 0.5546069 -1.556468E-07
vn -0.9754526 -0.2202097 -3.375923E-09
vn -0.6977031 0.716387 5.218532E-08
vn -0.9942097 -0.107457 -5.58314E-09
vn -0.0009404427 0.9999548 0.009455837
vn -0.008583574 0.9975641 0.05311791
vn -0.01622671 0.9951735 0.09677998
vn 0.05898739 0.9982587 5.850326E-08
vn -0.007611878 0.999971 2.044579E-07
vn -0.0009376878 0.9970152 -0.07719937
vn -0.008619847 0.9984032 -0.03244071
vn -0.01630201 0.9997912 0.01231796
vn -0.001534589 0.09411458 -0.9955601
vn -0.002054218 0.09380488 -0.9955882
vn -0.002573847 0.09349518 -0.9956163
vn -0.9672316 0.253896 2.437399E-07
vn 0.9855408 0.1694381 2.800623E-08
vn -0.00152735 0.09367211 0.9956019
vn -0.002062964 0.09403088 0.9955669
vn -0.002598578 0.09438965 0.9955319
vn 0.384694 0.9230441 1.110061E-06
vn -0.9371974 0.3487993 -4.845363E-07
vn -0.8898624 -0.456229 -4.374486E-07
vn 0.9698219 -0.2438142 2.263704E-07

usemtl tanya-balcony-square
f 9/9/1 11/11/1 10/10/1
f 9/9/1 12/12/1 11/11/1
f 8/8/1 12/12/1 9/9/1
f 8/8/1 13/13/1 12/12/1
f 7/7/1 13/13/1 8/8/1
f 7/7/1 14/14/1 13/13/1
f 6/6/1 14/14/1 7/7/1
f 6/6/1 15/15/1 14/14/1
f 19/19/1 18/18/1 1/1/1
f 18/18/1 2/2/1 1/1/1
f 17/17/1 2/2/1 18/18/1
f 17/17/1 3/3/1 2/2/1
f 4/4/1 3/3/1 17/17/1
f 16/16/1 4/4/1 17/17/1
f 5/5/1 4/4/1 16/16/1
f 15/15/1 5/5/1 16/16/1
f 6/6/1 5/5/1 15/15/1
f 29/15/2 38/5/2 28/6/2
f 37/16/2 38/5/2 29/15/2
f 37/16/2 36/4/2 38/5/2
f 34/17/2 36/4/2 37/16/2
f 34/17/2 35/3/2 36/4/2
f 33/2/2 35/3/2 34/17/2
f 31/18/2 33/2/2 34/17/2
f 30/1/2 33/2/2 31/18/2
f 30/1/2 31/18/2 32/19/2
f 27/14/2 29/15/2 28/6/2
f 26/7/2 27/14/2 28/6/2
f 25/13/2 27/14/2 26/7/2
f 24/8/2 25/13/2 26/7/2
f 23/12/2 25/13/2 24/8/2
f 22/9/2 23/12/2 24/8/2
f 21/11/2 23/12/2 22/9/2
f 20/10/2 21/11/2 22/9/2
f 46/69/1 45/68/1 44/67/1
f 39/62/1 50/73/1 40/63/1
f 49/72/1 40/63/1 50/73/1
f 41/64/1 43/66/1 42/65/1
f 41/64/1 40/63/1 43/66/1
f 49/72/1 43/66/1 40/63/1
f 44/67/1 43/66/1 49/72/1
f 44/67/1 49/72/1 48/71/1
f 46/69/1 44/67/1 48/71/1
f 48/71/1 47/70/1 46/69/1
f 53/76/2 62/85/2 61/84/2
f 61/84/2 51/74/2 53/76/2
f 61/84/2 57/80/2 51/74/2
f 57/80/2 59/82/2 51/74/2
f 54/77/2 59/82/2 57/80/2
f 59/82/2 54/77/2 60/83/2
f 58/81/2 59/82/2 60/83/2
f 55/78/2 54/77/2 57/80/2
f 54/77/2 55/78/2 56/79/2
f 51/74/2 52/75/2 53/76/2
f 11/23/3 21/21/3 20/20/3
f 20/20/3 10/22/3 11/23/3
f 10/22/4 20/20/4 22/24/4
f 22/24/4 9/25/4 10/22/4
f 12/27/5 23/26/5 21/21/5
f 21/21/5 11/23/5 12/27/5
f 9/25/6 22/24/6 24/28/6
f 24/28/6 8/29/6 9/25/6
f 13/31/7 25/30/7 23/26/7
f 23/26/7 12/27/7 13/31/7
f 8/35/8 24/33/8 26/32/8
f 26/32/8 7/34/8 8/35/8
f 14/37/9 27/36/9 25/30/9
f 25/30/9 13/31/9 14/37/9
f 7/34/10 26/32/10 28/38/10
f 28/38/10 6/39/10 7/34/10
f 15/41/11 29/40/11 27/36/11
f 27/36/11 14/37/11 15/41/11
f 19/45/12 32/43/12 31/42/12
f 31/42/12 18/44/12 19/45/12
f 1/47/13 30/46/13 32/43/13
f 32/43/13 19/45/13 1/47/13
f 2/51/14 33/49/14 30/48/14
f 30/48/14 1/50/14 2/51/14
f 18/44/15 31/42/15 34/52/15
f 34/52/15 17/53/15 18/44/15
f 3/55/16 35/54/16 33/49/16
f 33/49/16 2/51/16 3/55/16
f 4/57/17 36/56/17 35/54/17
f 35/54/17 3/55/17 4/57/17
f 17/53/18 34/52/18 37/58/18
f 37/58/18 16/59/18 17/53/18
f 5/61/19 38/60/19 36/56/19
f 36/56/19 4/57/19 5/61/19
f 16/59/20 37/58/20 29/40/20
f 29/40/20 15/41/20 16/59/20
f 6/39/21 28/38/21 38/60/21
f 38/60/21 5/61/21 6/39/21
f 45/89/22 52/87/22 51/86/22
f 51/86/22 44/88/22 45/89/22
f 66/93/23 64/91/23 63/90/23
f 63/90/23 65/92/23 66/93/23
f 39/97/24 56/95/24 55/94/24
f 55/94/24 50/96/24 39/97/24
f 40/101/25 54/99/25 56/98/25
f 56/98/25 39/100/25 40/101/25
f 50/96/26 55/94/26 57/102/26
f 57/102/26 49/103/26 50/96/26
f 43/107/27 59/105/27 58/104/27
f 58/104/27 42/106/27 43/107/27
f 42/111/28 58/109/28 60/108/28
f 60/108/28 41/110/28 42/111/28
f 41/110/29 60/108/29 54/99/29
f 54/99/29 40/101/29 41/110/29
f 44/115/30 51/113/30 59/112/30
f 59/112/30 43/114/30 44/115/30
f 49/103/31 57/102/31 61/116/31
f 61/116/31 48/117/31 49/103/31
f 47/121/32 62/119/32 53/118/32
f 53/118/32 46/120/32 47/121/32
f 48/117/33 61/116/33 62/122/33
f 62/122/33 47/123/33 48/117/33
f 67/126/35 53/124/34 52/125/35
f 52/125/35 68/127/36 67/126/35
f 68/130/37 52/128/37 45/129/37
f 45/129/37 69/131/37 68/130/37
f 53/134/38 67/132/38 70/133/38
f 70/133/38 46/135/38 53/134/38
f 69/137/40 45/136/39 46/135/40
f 46/135/40 70/133/41 69/137/40
f 64/141/44 67/139/43 68/138/42
f 68/138/42 63/140/43 64/141/44
f 63/144/45 68/138/45 69/142/45
f 69/142/45 65/143/45 63/144/45
f 66/148/46 70/146/46 67/145/46
f 67/145/46 64/147/46 66/148/46
f 65/151/49 69/142/48 70/149/47
f 70/149/47 66/150/48 65/151/49
f 74/155/1 73/154/1 72/153/1
f 72/153/1 71/152/1 74/155/1
f 76/157/2 77/158/2 78/159/2
f 78/159/2 75/156/2 76/157/2
f 73/163/50 76/161/50 75/160/50
f 75/160/50 72/162/50 73/163/50
f 74/165/51 77/164/51 76/163/51
f 76/163/51 73/161/51 74/165/51
f 71/167/52 78/166/52 77/164/52
f 77/164/52 74/165/52 71/167/52
f 72/162/53 75/160/53 78/167/53
f 78/167/53 71/166/53 72/162/53

