# ProBuilder 4.2.3
# https://unity3d.com/unity/features/worldbuilding/probuilder
# 25/10/2020 23:13:33

mtllib ./begonia-petal.mtl
o begonia-petal

g New Game Object
v -0.3288573 -0.2042141 0.008767842
v -0.332143 -0.2042141 0.01180234
v -0.3283558 -0.2037198 0.007128001
v -0.3316415 -0.2037198 0.0101625
v -0.3237384 -0.209718 0.008674192
v -0.3232369 -0.2092237 0.007034348
v -0.3231258 -0.2203869 0.003521536
v -0.3226039 -0.2203869 0.00181492
v -0.3230053 -0.2336781 1.432928E-08
v -0.3230053 -0.2336781 -0.001784627
v -0.3395875 -0.199811 0.0130716
v -0.3395875 -0.1993166 0.01135679
v -0.3498954 -0.2017373 0.008476935
v -0.3498954 -0.201243 0.00676212
v -0.3357052 -0.2601309 0.004243986
v -0.3300778 -0.256667 0.004243988
v -0.3357052 -0.2601309 0.002459344
v -0.3300778 -0.256667 0.002459345
v -0.3300778 -0.2501722 2.11849E-09
v -0.3300778 -0.2501722 -0.00178464
v -0.3441688 -0.2544689 1.14062E-09
v -0.3441688 -0.2544689 -0.001784641
v -0.3567672 -0.2513185 1.981842E-09
v -0.3567672 -0.2513185 -0.00178464
v -0.3670751 -0.245304 7.174649E-09
v -0.3678527 -0.245304 -0.001606307
v -0.3556219 -0.201187 0.008635593
v -0.3556219 -0.2006926 0.006920777
v -0.3599168 -0.2028381 0.008159613
v -0.3599168 -0.2023438 0.006444798
v -0.3653571 -0.2075164 0.003591382
v -0.3653571 -0.2070221 0.001876564
v -0.3710837 -0.2116444 0.005621058
v -0.3702483 -0.2174235 0.005930412
v -0.3710837 -0.2111501 0.003906242
v -0.3709956 -0.2169292 0.004386947
v -0.3742912 -0.2364255 0.003493363
v -0.3750636 -0.2362205 0.001897681
v -0.3750632 -0.2229274 0.006498563
v -0.3758104 -0.2224331 0.004955098
v -0.3777125 -0.2276058 0.0062828
v -0.3784597 -0.2271115 0.004739332

vt 0.7549434 0.3577508
vt 0.7587754 0.3579494
vt 0.7541203 0.3571288
vt 0.7579523 0.3573274
vt 0.7499115 0.3633156
vt 0.7490885 0.3626936
vt 0.7482686 0.3735211
vt 0.747412 0.3733863
vt 0.7474377 0.3864681
vt 0.7663227 0.3535399
vt 0.7659755 0.3529028
vt 0.775487 0.354892
vt 0.7751399 0.3542549
vt 0.7607337 0.412959
vt 0.7552229 0.4096061
vt 0.7603725 0.4128085
vt 0.7548616 0.4094556
vt 0.7543637 0.4027775
vt 0.768163 0.4068127
vt 0.7678017 0.4066622
vt 0.7805006 0.4034543
vt 0.7801393 0.4033039
vt 0.790595 0.3972825
vt 0.7910314 0.3971335
vt 0.7811271 0.3542572
vt 0.78078 0.3536201
vt 0.7852368 0.3557872
vt 0.7848896 0.3551502
vt 0.7896396 0.3599681
vt 0.7892925 0.3593311
vt 0.7956585 0.3641521
vt 0.7949031 0.3699504
vt 0.7953114 0.363515
vt 0.7953224 0.3693147
vt 0.7983689 0.3886059
vt 0.7988023 0.3882536
vt 0.7997332 0.3753979
vt 0.8001525 0.3747622
vt 0.8022841 0.3799945
vt 0.8027033 0.3793588
vt 0.8654332 0.2922513
vt 0.8709884 0.2885238
vt 0.8708639 0.2828743
vt 0.8756214 0.277564
vt 0.8782795 0.2729332
vt 0.8751099 0.263472
vt 0.8681871 0.2538981
vt 0.8571475 0.2477989
vt 0.8445857 0.2445425
vt 0.8358232 0.2394605
vt 0.8302122 0.2428256
vt 0.8553419 0.2991357
vt 0.8596606 0.2974806
vt 0.8305357 0.248638
vt 0.8234838 0.2648795
vt 0.8228091 0.2785462
vt 0.8230425 0.2903532
vt 0.8281392 0.2958691
vt 0.8311841 0.2963442
vt 0.839016 0.3009613
vt 0.8496441 0.2985049
vt 0.8774058 0.2726672
vt 0.8747478 0.2772973
vt 0.8699913 0.2826065
vt 0.8708481 0.2882888
vt 0.8356822 0.2397196
vt 0.8444489 0.244802
vt 0.8570095 0.2480606
vt 0.8672865 0.2541271
vt 0.8742106 0.2634985
vt 0.8551994 0.2988982
vt 0.8300717 0.2430835
vt 0.8495023 0.2982663
vt 0.8388698 0.3007218
vt 0.8315458 0.2960979
vt 0.8285048 0.2956214
vt 0.8231965 0.2787958
vt 0.8233488 0.2651342
vt 0.8304002 0.2488947

vn 0 0 0
vn 0.6762443 0.6222214 0.3943789
vn 0.9527299 -0.08602408 0.2913865
vn 0.9561976 -0.07930017 0.2815017
vn 0.9596653 -0.07257627 0.2716169
vn 0.9999591 0.009068942 1.081102E-09
vn 0.9753481 -0.04919681 0.1453885
vn 0.9507371 -0.1074626 0.2907771
vn 0.5172973 0.7627339 0.3881249
vn 0.5075839 0.7980261 0.314173
vn 0.4978704 0.8333182 0.2402212
vn -0.2900143 0.9195765 0.265087
vn 0.5241964 -0.8515976 4.9965E-15
vn 1 1.505651E-06 -1.694494E-14
vn -0.5560284 -0.8311635 -9.90824E-08
vn 0.9190717 -0.3940909 -4.697929E-08
vn -0.2425951 -0.9701278 -1.156482E-07
vn -0.4896064 -0.8391097 0.2370246
vn -0.4832457 -0.8590378 0.1185123
vn -0.476885 -0.8789659 -1.047809E-07
vn 0.09952636 0.9561039 0.2756087
vn -0.7270348 0.6597374 0.1901773
vn -0.5109935 0.8259533 0.2380908
vn -0.6996985 -0.6681873 0.2528795
vn -0.6872609 -0.6649589 0.2897848
vn -0.6748232 -0.6617306 0.3266902
vn -0.6275257 0.6001589 0.4960053
vn -0.8612613 -0.4231116 0.2814354
vn -0.8488153 -0.4221787 0.3161023
vn -0.8363692 -0.4212458 0.350769
vn -0.01831576 0.07990927 -0.9029906
vn -0.2786633 -0.08382969 -0.9567234
vn -0.2296037 0.09850774 -0.9447954
vn -0.2957358 0.1914152 -0.9354156
vn -0.267149 0.1948134 -0.9437581
vn -0.2784105 0.185778 -0.9416128
vn -0.07099605 0.1954332 -0.9625009
vn -0.09321247 0.1001221 -0.9607297
vn 0.3042203 0.2029908 -0.8700301
vn 0.5868055 0.3194633 -0.7440448
vn 0.005026953 -0.00816639 -0.9999542
vn 0.1674299 0.1077285 -0.9585627
vn 0.03844751 0.5169635 -0.7228916
vn -0.2529379 0.8103034 -0.528612
vn 0.02730732 0.3419202 -0.8152457
vn -0.8024721 -0.3263986 -0.4995029
vn -0.2132007 0.07488246 -0.8217631
vn -0.2217038 0.2686923 -0.9084564
vn -0.2113477 0.3368929 -0.9014745
vn -0.3195457 -0.0530894 -0.7651291
vn -0.5770187 -0.5260174 -0.6247844
vn -0.2306185 0.1340538 -0.8364904
vn 0.0127024 0.2822395 -0.9066652
vn 0.1656988 0.2311229 -0.9389419
vn -0.4068349 -0.07937077 -0.7426424
vn 0.2671853 -0.1948326 0.9437438
vn 0.2956797 -0.191356 0.9354483
vn 0.226952 -0.09687778 0.9425763
vn 0.2738733 0.0908395 0.9574664
vn 0.02087875 -0.07733334 0.9009879
vn -0.5876126 -0.3219534 0.7423325
vn -0.3045442 -0.203917 0.8692033
vn 0.08957054 -0.09950749 0.9570258
vn 0.05899108 -0.1975051 0.960092
vn 0.2792948 -0.1858064 0.9413853
vn -0.005668407 0.009208482 0.9999416
vn -0.02738184 -0.341787 0.8152409
vn 0.2529344 -0.8103024 0.5286154
vn -0.03823856 -0.5172848 0.7228904
vn -0.16754 -0.1075293 0.9585536
vn 0.4054401 0.08023478 0.7441641
vn -0.165501 -0.2320139 0.9387522
vn -0.0115371 -0.2835416 0.9062365
vn 0.2385677 -0.1319761 0.8324317
vn 0.5770188 0.5260176 0.6247842
vn 0.3146681 0.04707756 0.7626026
vn 0.2259419 -0.3316278 0.8937203
vn 0.2357086 -0.2619801 0.9046525
vn 0.2127251 -0.07487227 0.8223839
vn 0.7997115 0.3284197 0.5025958

usemtl tanya-balcony-square
f 32/41/31 17/50/40 22/49/39
f 22/49/39 24/48/38 32/41/31
f 32/41/31 36/43/33 35/42/32
f 24/48/38 36/43/33 32/41/31
f 24/48/38 26/47/37 36/43/33
f 38/46/36 36/43/33 26/47/37
f 38/46/36 40/44/34 36/43/33
f 42/45/35 40/44/34 38/46/36
f 28/52/43 32/41/45 30/53/44
f 28/52/43 18/51/42 32/41/45
f 17/50/41 32/41/45 18/51/42
f 6/57/50 4/59/52 3/58/51
f 8/56/49 4/59/52 6/57/50
f 8/56/49 10/55/48 4/59/52
f 12/60/53 4/59/52 10/55/48
f 20/54/47 12/60/53 10/55/48
f 20/54/47 14/61/54 12/60/53
f 20/54/47 28/52/55 14/61/54
f 18/51/46 28/52/55 20/54/47
f 37/70/65 39/63/57 41/62/56
f 34/64/58 39/63/57 37/70/65
f 25/69/64 34/64/58 37/70/65
f 34/64/58 25/69/64 23/68/63
f 31/41/60 34/64/58 23/68/63
f 33/65/59 34/64/58 31/41/60
f 31/41/60 23/68/63 21/67/62
f 21/67/62 15/66/61 31/41/60
f 16/72/70 31/41/67 15/66/66
f 31/41/67 16/72/70 27/71/69
f 29/53/68 31/41/67 27/71/69
f 19/79/79 27/71/71 16/72/80
f 13/73/72 27/71/71 19/79/79
f 11/74/73 13/73/72 19/79/79
f 9/78/78 11/74/73 19/79/79
f 9/78/78 2/75/74 11/74/73
f 2/75/74 9/78/78 7/77/77
f 5/57/76 2/75/74 7/77/77
f 1/76/75 2/75/74 5/57/76
f 4/4/1 2/2/1 1/1/1
f 1/1/1 3/3/1 4/4/1
f 3/3/2 1/1/2 5/5/2
f 5/5/2 6/6/2 3/3/2
f 6/6/5 5/5/4 7/7/3
f 7/7/3 8/8/4 6/6/5
f 8/8/8 7/7/7 9/9/6
f 9/9/6 10/9/7 8/8/8
f 12/11/11 11/10/10 2/2/9
f 2/2/9 4/4/10 12/11/11
f 14/13/12 13/12/12 11/10/12
f 11/10/12 12/11/12 14/13/12
f 18/17/13 16/15/13 15/14/13
f 15/14/13 17/16/13 18/17/13
f 20/18/14 19/18/14 16/15/14
f 16/15/14 18/17/14 20/18/14
f 17/16/15 15/14/15 21/19/15
f 21/19/15 22/20/15 17/16/15
f 10/9/16 9/9/16 19/18/16
f 19/18/16 20/18/16 10/9/16
f 22/20/17 21/19/17 23/21/17
f 23/21/17 24/22/17 22/20/17
f 24/22/20 23/21/19 25/23/18
f 25/23/18 26/24/19 24/22/20
f 28/26/21 27/25/21 13/12/21
f 13/12/21 14/13/21 28/26/21
f 30/28/1 29/27/1 27/25/1
f 27/25/1 28/26/1 30/28/1
f 32/30/22 31/29/22 29/27/22
f 29/27/22 30/28/22 32/30/22
f 36/34/1 34/32/1 33/31/1
f 33/31/1 35/33/1 36/34/1
f 35/33/23 33/31/23 31/29/23
f 31/29/23 32/30/23 35/33/23
f 26/24/26 25/23/25 37/35/24
f 37/35/24 38/36/25 26/24/26
f 40/38/27 39/37/27 34/32/27
f 34/32/27 36/34/27 40/38/27
f 42/40/1 41/39/1 39/37/1
f 39/37/1 40/38/1 42/40/1
f 38/36/30 37/35/29 41/39/28
f 41/39/28 42/40/29 38/36/30

