# ProBuilder 4.2.3
# https://unity3d.com/unity/features/worldbuilding/probuilder
# 25/10/2020 19:16:54

mtllib ./brown-pot.mtl
o brown-pot

g brown-pot
v 0.4315016 0.08623559 -0.1402547
v 0.3127238 0.08695563 -0.1402547
v 0.2947271 0.1704803 -0.1402547
v 0.2868086 0.2396041 -0.1402547
v 0.2796099 0.2475245 -0.1402547
v 0.2798268 0.2485007 -0.1402547
v 0.4755428 0.2447227 -0.1402547
v 0.4761332 0.2432043 -0.1402547
v 0.4674948 0.238164 -0.1402547
v 0.4588564 0.1683201 -0.1402547
v 0.2947271 0.1704803 3.239449E-08
v 0.3127238 0.08695561 1.44043E-10
v 0.4315016 0.08623557 0
v 0.4588564 0.1683201 3.213698E-08
v 0.4674948 0.238164 6.281476E-08
v 0.2868086 0.2396041 6.298644E-08
v 0.4761332 0.2432043 6.341561E-08
v 0.4755428 0.2447226 6.359662E-08
v 0.2798268 0.2485007 6.404699E-08
v 0.2796099 0.2475245 6.393062E-08
v 0.4408011 0.2037075 -0.02588706
v 0.3153416 0.2065812 -0.02588706
v 0.4408011 0.2037074 -0.114367
v 0.3153416 0.2065812 -0.114367
v 0.2947629 0.2602041 -0.01227667
v 0.4588206 0.2564462 -0.01227667
v 0.4588206 0.2564462 -0.1279779
v 0.2947629 0.2602041 -0.1279779

vt 0.06849413 0.5856032
vt 0.1872719 0.5863232
vt 0.2052686 0.6698478
vt 0.2131871 0.7389717
vt 0.2203857 0.7468921
vt 0.2201689 0.7478683
vt 0.02445286 0.7440903
vt 0.02386253 0.7425719
vt 0.03250091 0.7375316
vt 0.04113932 0.6676877
vt 0.1467213 0.6265573
vt 0.09750276 0.6265573
vt 0.1467213 0.712025
vt 0.09750278 0.712025
vt 0.1472706 0.6265574
vt 0.07884745 0.6265574
vt 0.1472706 0.712025
vt 0.07884745 0.712025
vt 0.1688791 0.6351291
vt 0.1168952 0.6351291
vt 0.1688791 0.7205968
vt 0.1168952 0.7205967
vt 0.0768571 0.635129
vt 0.07685709 0.7205967
vt 0.1891192 0.6265572
vt 0.1891192 0.712025
vt 0.06654543 0.635129
vt 0.07203722 0.635129
vt 0.0665454 0.7205967
vt 0.07203719 0.7205967
vt 0.07167131 0.635129
vt 0.07167128 0.7205967
vt 0.1670973 0.6445485
vt 0.08297658 0.6445485
vt 0.1670973 0.7054628
vt 0.08297658 0.7054628
vt 0.1557396 0.6351289
vt 0.1599258 0.6351289
vt 0.1557396 0.7205967
vt 0.1599258 0.7205967
vt 0.1956413 0.6265572
vt 0.1956413 0.712025
vt 0.06762557 0.6333368
vt 0.1899352 0.6333191
vt 0.07699589 0.6410531
vt 0.1795194 0.6410361
vt 0.1899352 0.7209767
vt 0.1795194 0.7133481
vt 0.07699589 0.7133651
vt 0.06762557 0.7209944
vt 0.1764069 0.6397526
vt 0.08190401 0.6397526
vt 0.1659929 0.6480464
vt 0.09372391 0.6480464
vt 0.1764069 0.710258
vt 0.1659929 0.7019639
vt 0.08190401 0.710258
vt 0.09372391 0.7019639

vn 3.461685E-09 2.4017E-07 -1
vn 4.299227E-10 -3.54647E-08 -0.7500001
vn 0 0 0
vn 0 -5.960464E-08 -0.5000001
vn -2.870547E-09 -1.761466E-07 1
vn -6.448841E-10 8.493562E-09 0.7500001
vn 0 5.960464E-08 0.5000001
vn -0.9775658 -0.2106316 -8.105486E-08
vn -0.00606196 -0.9999818 -3.951864E-07
vn 0.9487067 -0.3161581 -1.206959E-07
vn 0.9924383 -0.1227465 -4.723509E-08
vn -0.9935027 -0.1138111 -4.984243E-08
vn 0.9320354 0.3623679 1.586954E-07
vn 0.5039619 -0.8637261 -3.782602E-07
vn 0.02289979 0.9997379 -7.226663E-07
vn -0.9762006 0.2168705 9.497628E-08
vn -0.7400194 -0.6725858 -2.945523E-07
vn 0.01380776 0.7152943 0.6986873
vn 0.01531568 0.7248766 0.6885661
vn 0.0168236 0.7344588 0.6784451
vn 0.5740517 0.8188193 3.585937E-07
vn -0.6167746 0.7871401 3.979617E-07
vn 0.01414366 0.7326946 -0.6804106
vn 0.01524589 0.723198 -0.6903349
vn 0.01634813 0.7137014 -0.7002593
vn 0.005682099 0.2480602 -0.968728
vn -0.946289 0.3233227 1.634653E-07
vn 0.9336109 0.3582893 1.811436E-07
vn 0.005682317 0.24807 0.9687256

usemtl tanya-balcony-square
f 1/1/1 2/2/1 3/3/1
f 10/10/1 1/1/1 3/3/1
f 10/10/1 3/3/1 9/9/1
f 3/3/1 4/4/2 9/9/1
f 9/9/1 7/7/1 8/8/1
f 9/9/1 4/4/2 7/7/1
f 4/4/2 6/6/4 7/7/1
f 5/5/3 6/6/4 4/4/2
f 16/4/6 19/6/7 20/5/3
f 18/7/5 19/6/7 16/4/6
f 18/7/5 16/4/6 15/9/5
f 17/8/5 18/7/5 15/9/5
f 15/9/5 16/4/6 11/3/5
f 15/9/5 11/3/5 14/10/5
f 11/3/5 13/1/5 14/10/5
f 11/3/5 12/2/5 13/1/5
f 2/14/8 12/12/8 11/11/8
f 11/11/8 3/13/8 2/14/8
f 1/18/9 13/16/9 12/15/9
f 12/15/9 2/17/9 1/18/9
f 10/22/10 14/20/10 13/19/10
f 13/19/10 1/21/10 10/22/10
f 9/24/11 15/23/11 14/20/11
f 14/20/11 10/22/11 9/24/11
f 3/13/12 11/11/12 16/25/12
f 16/25/12 4/26/12 3/13/12
f 7/30/13 18/28/13 17/27/13
f 17/27/13 8/29/13 7/30/13
f 8/32/14 17/31/14 15/23/14
f 15/23/14 9/24/14 8/32/14
f 24/36/15 22/34/15 21/33/15
f 21/33/15 23/35/15 24/36/15
f 5/40/16 20/38/16 19/37/16
f 19/37/16 6/39/16 5/40/16
f 4/26/17 16/25/17 20/41/17
f 20/41/17 5/42/17 4/26/17
f 25/45/19 19/43/18 18/44/19
f 18/44/19 26/46/20 25/45/19
f 26/46/21 18/44/21 7/47/21
f 7/47/21 27/48/21 26/46/21
f 19/43/22 25/45/22 28/49/22
f 28/49/22 6/50/22 19/43/22
f 27/48/24 7/47/23 6/50/24
f 6/50/24 28/49/25 27/48/24
f 22/54/26 25/52/26 26/51/26
f 26/51/26 21/53/26 22/54/26
f 21/53/27 26/51/27 27/55/27
f 27/55/27 23/56/27 21/53/27
f 24/58/28 28/57/28 25/52/28
f 25/52/28 22/54/28 24/58/28
f 23/56/29 27/55/29 28/57/29
f 28/57/29 24/58/29 23/56/29

