# ProBuilder 4.4.0
# https://unity3d.com/unity/features/worldbuilding/probuilder
# 11/12/2020 14:48:52

mtllib ./btonalien.mtl
o btonalien

g btonalien
v 0.6692642 0.02762081 0.1729945
v 0.6628413 -0.7816647 0.1729941
v 0.1136831 -0.7945107 0.1729941
v 0.07193438 0.01477502 0.1729945
v 0.6692642 0.02762079 0.2372235
v 0.07193438 0.014775 0.2372235
v 0.6628413 -0.7816647 0.2372231
v 0.1136831 -0.7945107 0.237223

vt 0.2238749 0.9259788
vt 0.2302978 0.1166934
vt 0.7794559 0.1038474
vt 0.8212046 0.913133
vt 0.220337 0.9283222
vt 0.8176666 0.9154764
vt 0.2267599 0.1190368
vt 0.7759179 0.1061908
vt 0.2272473 0.6918648
vt 0.2168269 0.3934658
vt 0.2593423 0.690744
vt 0.2489219 0.392345
vt 0.2263832 0.6670332
vt 0.2584781 0.6659124
vt 0.2168022 0.3926708
vt 0.2488971 0.39155

vn -9.504965E-09 3.22772E-07 -1
vn 6.386165E-09 -3.227472E-07 1
vn -0.02150039 0.999769 5.611734E-07
vn 0.9999688 -0.007936233 -8.195863E-09
vn -0.9986722 -0.05151861 -2.855215E-08
vn 0.02338577 -0.9997267 -1.191767E-07

usemtl btonalien
f 2/2/1 3/3/1 4/4/1 1/1/1
f 7/7/2 5/5/2 6/6/2 8/8/2
f 1/11/3 4/12/3 6/10/3 5/9/3
f 2/14/4 1/11/4 5/9/4 7/13/4
f 4/12/5 3/16/5 8/15/5 6/10/5
f 3/16/6 2/14/6 7/13/6 8/15/6

