# ProBuilder 4.4.0
# https://unity3d.com/unity/features/worldbuilding/probuilder
# 11/12/2020 13:02:47

mtllib ./foxypark.mtl
o foxypark

g foxypark
v 0.02710481 -0.2374094 0.03263231
v -0.01016455 -0.2303103 0.03263231
v -0.06695687 -0.3048502 0.0326323
v -0.0793796 -0.3261473 0.03263229
v -0.07760484 -0.3740652 0.03263228
v -0.09535243 -0.3758394 0.03263228
v -0.1006767 -0.3563176 0.03263228
v -0.1042262 -0.3013006 0.0326323
v -0.1379467 -0.2782282 0.0326323
v -0.2018374 -0.2640301 0.0326323
v -0.2302337 -0.3030748 0.03263228
v -0.2000627 -0.3332464 0.03263228
v -0.2213598 -0.3350206 0.03263228
v -0.2586293 -0.3083996 0.03263228
v -0.2586293 -0.3580931 0.03263225
v -0.2657284 -0.3598671 0.03263226
v -0.281701 -0.3030748 0.0326323
v -0.2639536 -0.2746787 0.0326323
v -0.2657283 -0.2729046 0.0326323
v -0.3420423 -0.3137234 0.03263229
v -0.4041586 -0.3385701 0.03263225
v -0.4023841 -0.317273 0.03263225
v -0.3509163 -0.2711304 0.0326323
v -0.3100975 -0.2356352 0.03263231
v -0.2586291 -0.1770687 0.03263232
v -0.212486 -0.1628706 0.03263232
v -0.1645675 -0.1717438 0.03263232
v -0.1184243 -0.1859419 0.03263232
v -0.07050581 -0.1877161 0.03263232
v -0.03678595 -0.1557716 0.03263232
v -0.003065532 -0.1539962 0.03263234
v 0.02355531 -0.1344745 0.03263234
v 0.01823101 -0.1664201 0.03263232
v 0.02710481 -0.20014 0.03263232
v 0.05692173 -0.2258184 0.03263233
v -0.2000627 -0.3332464 0.008182619
v -0.2302337 -0.3030749 0.008182615
v -0.2213598 -0.3350206 0.008182619
v -0.2586293 -0.3083997 0.008182614
v -0.2657284 -0.3598671 0.008182593
v -0.2586293 -0.3580931 0.008182586
v -0.281701 -0.3030749 0.00818263
v -0.2639536 -0.2746787 0.008182629
v -0.2018374 -0.2640301 0.008182638
v -0.2657283 -0.2729046 0.008182633
v -0.07760484 -0.3740652 0.008182614
v -0.1006767 -0.3563176 0.008182616
v -0.09535243 -0.3758394 0.008182613
v -0.0793796 -0.3261473 0.008182627
v -0.1042262 -0.3013007 0.00818263
v -0.06695687 -0.3048502 0.008182629
v 0.05431182 -0.2264686 0.008182654
v 0.02710481 -0.20014 0.008182653
v 0.02710481 -0.2374094 0.008182645
v -0.01016455 -0.2303103 0.008182647
v 0.01823102 -0.1664201 0.008182661
v 0.02355531 -0.1344745 0.008182672
v -0.00306553 -0.1539962 0.008182677
v -0.03678595 -0.1557716 0.008182662
v -0.07050581 -0.1877161 0.008182658
v -0.1379467 -0.2782282 0.008182636
v -0.1184243 -0.1859419 0.008182659
v -0.1645675 -0.1717438 0.00818266
v -0.212486 -0.1628706 0.008182662
v -0.2586291 -0.1770687 0.00818266
v -0.3100975 -0.2356352 0.008182645
v -0.3509163 -0.2711304 0.00818263
v -0.3420423 -0.3137234 0.008182628
v -0.4023841 -0.317273 0.008182591
v -0.4041586 -0.3385701 0.008182588

vt 0.3573816 0.324678
vt 0.394651 0.331777
vt 0.4514433 0.2572372
vt 0.463866 0.2359401
vt 0.4620913 0.1880222
vt 0.4798388 0.186248
vt 0.4851631 0.2057697
vt 0.4887126 0.2607867
vt 0.522433 0.2838591
vt 0.5863238 0.2980572
vt 0.6147201 0.2590125
vt 0.5845491 0.228841
vt 0.6058462 0.2270668
vt 0.6431157 0.2536877
vt 0.6431157 0.2039943
vt 0.6502147 0.2022202
vt 0.6661873 0.2590125
vt 0.6484399 0.2874086
vt 0.6502147 0.2891828
vt 0.7265286 0.2483639
vt 0.7886449 0.2235173
vt 0.7868704 0.2448144
vt 0.7354026 0.2909569
vt 0.6945838 0.3264522
vt 0.6431155 0.3850186
vt 0.5969723 0.3992167
vt 0.5490539 0.3903435
vt 0.5029107 0.3761454
vt 0.4549922 0.3743713
vt 0.4212724 0.4063157
vt 0.387552 0.4080911
vt 0.3609312 0.4276128
vt 0.3662554 0.3956672
vt 0.3573816 0.3619473
vt 0.3275647 0.3362689
vt 0.3301462 0.3356189
vt 0.5369993 0.3194037
vt 0.5175105 0.3133923
vt 0.5334252 0.3310939
vt 0.5139364 0.3250826
vt 0.5283862 0.3168193
vt 0.5248121 0.3285095
vt 0.5066863 0.3101593
vt 0.5031123 0.3218495
vt 0.5151578 0.3129558
vt 0.5177652 0.3137322
vt 0.5115837 0.3246461
vt 0.5141911 0.3254225
vt 0.4957399 0.3068385
vt 0.4921659 0.3185287
vt 0.4969163 0.3070567
vt 0.4933422 0.318747
vt 0.5208173 0.314201
vt 0.5172432 0.3258913
vt 0.492196 0.3183934
vt 0.584183 0.3337184
vt 0.5907874 0.3358
vt 0.5806088 0.3454086
vt 0.5872133 0.3474903
vt 0.597899 0.3379324
vt 0.5943249 0.3496227
vt 0.5864653 0.3342611
vt 0.5828912 0.3459514
vt 0.5704159 0.3293106
vt 0.5668417 0.3410009
vt 0.586972 0.3343117
vt 0.583398 0.346002
vt 0.6207938 0.3441185
vt 0.6034155 0.3387609
vt 0.6181787 0.3560944
vt 0.5998414 0.3504512
vt 0.6117244 0.3414406
vt 0.6081504 0.3531308
vt 0.5943769 0.3361842
vt 0.5908028 0.3478745
vt 0.5921443 0.3352064
vt 0.5885701 0.3468967
vt 0.5872743 0.3335875
vt 0.580366 0.3316012
vt 0.5837002 0.3452778
vt 0.5767919 0.3432915
vt 0.5664982 0.3274349
vt 0.562924 0.3391252
vt 0.5593565 0.3254378
vt 0.5557824 0.3371281
vt 0.5510083 0.3233577
vt 0.5474342 0.335048
vt 0.5386916 0.3192083
vt 0.5351175 0.3308986
vt 0.5160078 0.3123115
vt 0.5124336 0.3240018
vt 0.4937601 0.3055716
vt 0.490186 0.3172619
vt 0.477407 0.3007165
vt 0.4738329 0.3124068
vt 0.468693 0.2983735
vt 0.4651189 0.3100637
vt 0.4593402 0.2957277
vt 0.4557661 0.307418
vt 0.4725897 0.2999202
vt 0.4690157 0.3116105
vt 0.4478567 0.2924914
vt 0.4442826 0.3041817
vt 0.4518541 0.2937967
vt 0.44828 0.305487

vn -3.024387E-07 1.925339E-08 1
vn 1.899017E-08 -3.471605E-07 -1
vn 0.7071121 0.7071017 8.429308E-08
vn 0.08302046 -0.9965479 -1.187978E-07
vn -0.5812357 -0.8137354 -9.700481E-08
vn 0.2424398 -0.9701666 -1.156529E-07
vn 1 0 0
vn -0.9626521 -0.2707424 -3.227501E-08
vn -0.8480012 0.5299948 1.439333E-07
vn 0.8087349 -0.5881737 -7.011576E-08
vn -0.706983 -0.7072308 -1.920662E-07
vn -0.9647622 -0.2631246 -3.136689E-08
vn 0.09947231 -0.9950405 -1.186181E-07
vn 0.9993151 0.0370121 4.412185E-09
vn -0.9979255 -0.06438294 -7.675044E-09
vn 0.8637893 -0.5038535 -6.006401E-08
vn 0.6924012 0.7155023 -0.09293774
vn 0.6724822 0.7366185 -0.04646874
vn 0.6525632 0.7577347 2.554959E-07
vn 0.3730941 -0.9277937 -2.347572E-07
vn 0.3676913 -0.9298782 -0.006945131
vn 0.3622885 -0.9319627 -0.01389003
vn -0.187115 -0.9823381 -2.667785E-07
vn 0.9670737 0.2544973 1.096715E-07
vn -0.59136 0.8064079 7.360555E-08
vn 0.9863941 -0.1643995 1.797522E-08
vn -0.05257599 0.9986171 1.15039E-07
vn -0.6877375 0.7259597 8.654114E-08
vn 0.7954317 -0.6060436 -7.224602E-08
vn -0.5646933 -0.825301 -2.241311E-07
vn 0.03699894 0.9993154 2.713891E-07
vn 0.294089 0.9557782 2.595654E-07
vn -0.2169327 -0.9761867 -2.651079E-07
vn 0.1820781 0.9832842 1.172166E-07
vn -0.2940894 0.9557781 1.139376E-07
vn -0.7511599 0.6601206 1.792722E-07
vn -0.6561859 0.7545995 2.049304E-07
vn 0.4716501 -0.881786 -1.051171E-07
vn -0.667537 0.7445768 2.022085E-07
vn -0.996547 0.08303291 9.898294E-09
vn 0.3713926 -0.9284761 -1.10683E-07

usemtl foxy
f 20/20/1 22/22/1 21/21/1
f 20/20/1 23/23/1 22/22/1
f 23/23/1 20/20/1 19/19/1
f 23/23/1 19/19/1 24/24/1
f 25/25/1 24/24/1 19/19/1
f 25/25/1 19/19/1 10/10/1
f 10/10/1 26/26/1 25/25/1
f 27/27/1 26/26/1 10/10/1
f 9/9/1 27/27/1 10/10/1
f 28/28/1 27/27/1 9/9/1
f 28/28/1 9/9/1 29/29/1
f 29/29/1 9/9/1 8/8/1
f 29/29/1 8/8/1 3/3/1
f 29/29/1 3/3/1 2/2/1
f 2/2/1 30/30/1 29/29/1
f 31/31/1 30/30/1 2/2/1
f 33/33/1 31/31/1 2/2/1
f 32/32/1 31/31/1 33/33/1
f 34/34/1 33/33/1 2/2/1
f 34/34/1 2/2/1 1/1/1
f 35/35/1 34/34/1 1/1/1
f 3/3/1 8/8/1 4/4/1
f 4/4/1 8/8/1 7/7/1
f 5/5/1 4/4/1 7/7/1
f 5/5/1 7/7/1 6/6/1
f 10/10/1 19/19/1 18/18/1
f 10/10/1 18/18/1 11/11/1
f 18/18/1 14/14/1 11/11/1
f 18/18/1 17/17/1 14/14/1
f 14/14/1 17/17/1 16/16/1
f 14/14/1 16/16/1 15/15/1
f 13/13/1 11/11/1 14/14/1
f 12/12/1 11/11/1 13/13/1
f 38/13/2 37/11/2 36/12/2
f 39/14/2 37/11/2 38/13/2
f 41/15/2 40/16/2 39/14/2
f 40/16/2 42/17/2 39/14/2
f 39/14/2 42/17/2 43/18/2
f 37/11/2 39/14/2 43/18/2
f 37/11/2 43/18/2 44/10/2
f 43/18/2 45/19/2 44/10/2
f 48/6/2 47/7/2 46/5/2
f 47/7/2 49/4/2 46/5/2
f 47/7/2 50/8/2 49/4/2
f 49/4/2 50/8/2 51/3/2
f 54/1/2 53/34/2 52/36/2
f 54/1/2 55/2/2 53/34/2
f 55/2/2 56/33/2 53/34/2
f 56/33/2 58/31/2 57/32/2
f 55/2/2 58/31/2 56/33/2
f 55/2/2 59/30/2 58/31/2
f 60/29/2 59/30/2 55/2/2
f 55/2/2 51/3/2 60/29/2
f 51/3/2 50/8/2 60/29/2
f 50/8/2 61/9/2 60/29/2
f 60/29/2 61/9/2 62/28/2
f 61/9/2 63/27/2 62/28/2
f 44/10/2 63/27/2 61/9/2
f 44/10/2 64/26/2 63/27/2
f 65/25/2 64/26/2 44/10/2
f 44/10/2 45/19/2 65/25/2
f 45/19/2 66/24/2 65/25/2
f 66/24/2 45/19/2 67/23/2
f 45/19/2 68/20/2 67/23/2
f 69/22/2 67/23/2 68/20/2
f 70/21/2 69/22/2 68/20/2
f 37/38/3 11/40/3 12/39/3
f 12/39/3 36/37/3 37/38/3
f 36/37/4 12/39/4 13/42/4
f 13/42/4 38/41/4 36/37/4
f 38/41/5 13/42/5 14/44/5
f 14/44/5 39/43/5 38/41/5
f 41/46/6 15/48/6 16/47/6
f 16/47/6 40/45/6 41/46/6
f 39/43/7 14/44/7 15/48/7
f 15/48/7 41/46/7 39/43/7
f 40/45/8 16/47/8 17/50/8
f 17/50/8 42/49/8 40/45/8
f 42/49/9 17/50/9 18/52/9
f 18/52/9 43/51/9 42/49/9
f 44/53/10 10/54/10 11/40/10
f 11/40/10 37/38/10 44/53/10
f 43/51/11 18/52/11 19/55/11
f 19/55/11 45/49/11 43/51/11
f 48/57/12 6/59/12 7/58/12
f 7/58/12 47/56/12 48/57/12
f 46/60/13 5/61/13 6/59/13
f 6/59/13 48/57/13 46/60/13
f 49/62/14 4/63/14 5/61/14
f 5/61/14 46/60/14 49/62/14
f 47/56/15 7/58/15 8/65/15
f 8/65/15 50/64/15 47/56/15
f 51/66/16 3/67/16 4/63/16
f 4/63/16 49/62/16 51/66/16
f 53/69/18 34/71/19 35/70/18
f 35/70/18 52/68/17 53/69/18
f 52/68/21 35/70/22 1/73/21
f 1/73/21 54/72/20 52/68/21
f 54/72/23 1/73/23 2/75/23
f 2/75/23 55/74/23 54/72/23
f 56/76/24 33/77/24 34/71/24
f 34/71/24 53/69/24 56/76/24
f 58/79/25 31/81/25 32/80/25
f 32/80/25 57/78/25 58/79/25
f 57/78/26 32/80/26 33/77/26
f 33/77/26 56/76/26 57/78/26
f 59/82/27 30/83/27 31/81/27
f 31/81/27 58/79/27 59/82/27
f 60/84/28 29/85/28 30/83/28
f 30/83/28 59/82/28 60/84/28
f 55/74/29 2/75/29 3/67/29
f 3/67/29 51/66/29 55/74/29
f 50/64/30 8/65/30 9/87/30
f 9/87/30 61/86/30 50/64/30
f 62/88/31 28/89/31 29/85/31
f 29/85/31 60/84/31 62/88/31
f 63/90/32 27/91/32 28/89/32
f 28/89/32 62/88/32 63/90/32
f 61/86/33 9/87/33 10/54/33
f 10/54/33 44/53/33 61/86/33
f 64/92/34 26/93/34 27/91/34
f 27/91/34 63/90/34 64/92/34
f 65/94/35 25/95/35 26/93/35
f 26/93/35 64/92/35 65/94/35
f 66/96/36 24/97/36 25/95/36
f 25/95/36 65/94/36 66/96/36
f 67/98/37 23/99/37 24/97/37
f 24/97/37 66/96/37 67/98/37
f 45/49/38 19/55/38 20/101/38
f 20/101/38 68/100/38 45/49/38
f 69/102/39 22/103/39 23/99/39
f 23/99/39 67/98/39 69/102/39
f 70/104/40 21/105/40 22/103/40
f 22/103/40 69/102/40 70/104/40
f 68/100/41 20/101/41 21/105/41
f 21/105/41 70/104/41 68/100/41

