# ProBuilder 4.4.0
# https://unity3d.com/unity/features/worldbuilding/probuilder
# 11/12/2020 12:24:03

mtllib ./leg_heel_two.mtl
o leg heel two

g leg heel two
v 0.3264009 -0.3409103 -0.02555644
v 0.2633601 -0.3339058 -0.02555644
v 0.2581066 -0.3969461 -0.02555646
v 0.1793059 -0.3549193 -0.02555645
v 0.1705509 -0.304137 -0.02555643
v 0.1723014 -0.267363 -0.02555643
v 0.1267723 -0.2165806 -0.02555638
v 0.1075099 -0.2743676 -0.02555643
v 0.0882479 -0.3181455 -0.02555644
v -0.01681977 -0.3076393 -0.02555643
v -0.02382433 -0.2586074 -0.02555642
v -0.02907773 -0.2218341 -0.02555641
v 0.01294957 -0.1395312 -0.02555639
v 0.0584785 -0.05022364 -0.02555632
v 0.1092609 -0.01520091 -0.02555631
v 0.1635463 -0.03446349 -0.02555638
v 0.2038219 -0.1062596 -0.02555639
v 0.217831 -0.1535403 -0.02555639
v 0.2335913 -0.2323409 -0.02555639
v 0.2896271 -0.2761187 -0.02555643
v 0.3544187 -0.2848744 -0.02555643
v 0.3561697 -0.3146432 -0.02555644
v -0.02382433 -0.2586074 1.74706E-08
v -0.01681977 -0.3076393 7.900259E-09
v 0.0882479 -0.3181455 6.647821E-09
v 0.1075099 -0.2743676 1.559184E-08
v 0.2633601 -0.3339058 1.975082E-09
v 0.1793059 -0.3549193 -8.911837E-09
v 0.2581066 -0.3969461 -1.392181E-08
v 0.1705509 -0.304137 8.317767E-09
v 0.3544187 -0.2848745 1.433933E-08
v 0.2896271 -0.2761187 1.538309E-08
v 0.3561697 -0.3146432 7.065325E-09
v 0.3264009 -0.3409103 4.415846E-10
v 0.2335913 -0.2323409 5.785472E-08
v 0.1723014 -0.267363 1.642685E-08
v 0.1267723 -0.2165806 5.973349E-08
v 0.217831 -0.1535403 5.234732E-08
v 0.2038219 -0.1062596 5.798362E-08
v 0.1092609 -0.0152009 1.284433E-07
v 0.0584785 -0.05022364 1.242683E-07
v 0.1635463 -0.03446349 6.654238E-08
v 0.01294957 -0.1395312 5.401734E-08
v -0.02907773 -0.2218341 2.930491E-08

vt 0.1761744 0.1577911
vt 0.2392153 0.1647956
vt 0.2444687 0.1017553
vt 0.3232694 0.143782
vt 0.3320245 0.1945644
vt 0.3302739 0.2313383
vt 0.375803 0.2821207
vt 0.3950654 0.2243338
vt 0.4143274 0.1805559
vt 0.5193951 0.1910621
vt 0.5263996 0.240094
vt 0.531653 0.2768673
vt 0.4896257 0.3591702
vt 0.4440968 0.4484777
vt 0.3933144 0.4835005
vt 0.339029 0.4642379
vt 0.2987534 0.3924418
vt 0.2847443 0.3451611
vt 0.2689841 0.2663605
vt 0.2129482 0.2225826
vt 0.1481567 0.2138269
vt 0.1464057 0.1840582
vt 0.3008299 0.2269379
vt 0.2897353 0.2051636
vt 0.3122154 0.2211367
vt 0.3011208 0.1993624
vt 0.2878459 0.2014555
vt 0.2992314 0.1956543
vt 0.2978718 0.2211326
vt 0.3092573 0.2153314
vt 0.2799292 0.1859181
vt 0.2707625 0.1679277
vt 0.2913146 0.1801169
vt 0.282148 0.1621265
vt 0.2850941 0.1960549
vt 0.2964795 0.1902537
vt 0.2914128 0.208456
vt 0.3027982 0.2026548
vt 0.2966505 0.2187357
vt 0.2983323 0.2220365
vt 0.3080359 0.2129345
vt 0.3097178 0.2162353
vt 0.3012883 0.1996915
vt 0.2838014 0.1935179
vt 0.2951868 0.1877167
vt 0.3080035 0.2410174
vt 0.319389 0.2352162
vt 0.2997667 0.2248515
vt 0.3111522 0.2190503
vt 0.3110771 0.2470494
vt 0.3224626 0.2412482
vt 0.3258128 0.27597
vt 0.3371983 0.2701688
vt 0.336477 0.2968996
vt 0.3478625 0.2910984
vt 0.356697 0.3365835
vt 0.3485095 0.3205146
vt 0.3680825 0.3307823
vt 0.359895 0.3147134
vt 0.3525811 0.3285058
vt 0.3639666 0.3227046
vt 0.328027 0.2803154
vt 0.3394125 0.2745142
vt 0.3091507 0.2432685
vt 0.3205362 0.2374673

vn -1.061977E-09 -4.818901E-09 -1
vn -1.404801E-08 -2.140013E-09 1
vn -0.9899497 -0.1414215 -5.808799E-08
vn -0.09949858 -0.9950379 -2.636616E-07
vn 0.9153174 -0.4027339 -1.360677E-07
vn -0.4705856 -0.8823545 -2.981123E-07
vn 0.9965459 -0.08304665 -2.200541E-08
vn -0.9854622 -0.1698962 -4.501849E-08
vn 0.1339194 0.9909924 2.625897E-07
vn 0.9982748 0.0587188 1.983874E-08
vn 0.6616292 -0.7498314 -2.48351E-07
vn -0.1104314 -0.9938839 -3.357937E-07
vn 0.6156427 0.7880256 3.236765E-07
vn -0.9988692 0.04754946 1.953064E-08
vn -0.7445694 -0.6675453 -7.95776E-08
vn 0.9805806 0.1961175 8.0554E-08
vn 0.9587983 0.2840886 3.3866E-08
vn -0.5677376 0.8232098 9.813424E-08
vn 0.3344102 0.9424278 1.123461E-07
vn 0.8721445 0.4892487 5.832298E-08
vn -0.890908 0.4541843 5.414298E-08
vn -0.8906043 0.4547797 5.421396E-08
vn 0.9486829 -0.3162297 -1.298893E-07

usemtl squarelegs
f 9/9/1 10/10/1 11/11/1
f 8/8/1 9/9/1 11/11/1
f 3/3/1 4/4/1 2/2/1
f 4/4/1 5/5/1 2/2/1
f 22/22/1 20/20/1 21/21/1
f 22/22/1 1/1/1 20/20/1
f 2/2/1 20/20/1 1/1/1
f 2/2/1 19/19/1 20/20/1
f 2/2/1 5/5/1 19/19/1
f 5/5/1 6/6/1 19/19/1
f 6/6/1 7/7/1 19/19/1
f 7/7/1 18/18/1 19/19/1
f 7/7/1 17/17/1 18/18/1
f 16/16/1 14/14/1 15/15/1
f 14/14/1 16/16/1 17/17/1
f 7/7/1 14/14/1 17/17/1
f 13/13/1 14/14/1 7/7/1
f 12/12/1 13/13/1 7/7/1
f 7/7/1 8/8/1 12/12/1
f 8/8/1 11/11/1 12/12/1
f 44/12/2 23/11/2 26/8/2
f 44/12/2 26/8/2 37/7/2
f 37/7/2 43/13/2 44/12/2
f 37/7/2 41/14/2 43/13/2
f 39/17/2 41/14/2 37/7/2
f 39/17/2 42/16/2 41/14/2
f 40/15/2 41/14/2 42/16/2
f 38/18/2 39/17/2 37/7/2
f 35/19/2 38/18/2 37/7/2
f 35/19/2 37/7/2 36/6/2
f 35/19/2 36/6/2 30/5/2
f 35/19/2 30/5/2 27/2/2
f 32/20/2 35/19/2 27/2/2
f 34/1/2 32/20/2 27/2/2
f 32/20/2 34/1/2 33/22/2
f 31/21/2 32/20/2 33/22/2
f 27/2/2 30/5/2 28/4/2
f 27/2/2 28/4/2 29/3/2
f 23/11/2 25/9/2 26/8/2
f 23/11/2 24/10/2 25/9/2
f 10/26/3 24/24/3 23/23/3
f 23/23/3 11/25/3 10/26/3
f 9/28/4 25/27/4 24/24/4
f 24/24/4 10/26/4 9/28/4
f 8/30/5 26/29/5 25/27/5
f 25/27/5 9/28/5 8/30/5
f 3/34/6 29/32/6 28/31/6
f 28/31/6 4/33/6 3/34/6
f 2/36/7 27/35/7 29/32/7
f 29/32/7 3/34/7 2/36/7
f 4/33/8 28/31/8 30/37/8
f 30/37/8 5/38/8 4/33/8
f 20/42/9 32/40/9 31/39/9
f 31/39/9 21/41/9 20/42/9
f 21/41/10 31/39/10 33/24/10
f 33/24/10 22/43/10 21/41/10
f 22/43/11 33/24/11 34/44/11
f 34/44/11 1/45/11 22/43/11
f 1/45/12 34/44/12 27/35/12
f 27/35/12 2/36/12 1/45/12
f 19/47/13 35/46/13 32/40/13
f 32/40/13 20/42/13 19/47/13
f 5/38/14 30/37/14 36/48/14
f 36/48/14 6/49/14 5/38/14
f 6/49/15 36/48/15 37/50/15
f 37/50/15 7/51/15 6/49/15
f 18/53/16 38/52/16 35/46/16
f 35/46/16 19/47/16 18/53/16
f 17/55/17 39/54/17 38/52/17
f 38/52/17 18/53/17 17/55/17
f 14/59/18 41/57/18 40/56/18
f 40/56/18 15/58/18 14/59/18
f 15/58/19 40/56/19 42/60/19
f 42/60/19 16/61/19 15/58/19
f 16/61/20 42/60/20 39/54/20
f 39/54/20 17/55/20 16/61/20
f 13/63/21 43/62/21 41/57/21
f 41/57/21 14/59/21 13/63/21
f 12/65/22 44/64/22 43/62/22
f 43/62/22 13/63/22 12/65/22
f 7/51/23 37/50/23 26/29/23
f 26/29/23 8/30/23 7/51/23
f 11/25/3 23/23/3 44/64/3
f 44/64/3 12/65/3 11/25/3

