# ProBuilder 4.4.0
# https://unity3d.com/unity/features/worldbuilding/probuilder
# 03/12/2020 11:07:42

mtllib ./lgbtheart.mtl
o lgbtheart

g lgbtheart
v 9.864322E-10 0.1190443 0.03193782
v -0.03494884 0.1518089 0.03193783
v -0.0698976 0.1867576 0.03193783
v -0.1070307 0.2151536 0.03193785
v -0.1397953 0.2217064 0.03193785
v -0.1660069 0.2042321 0.03193784
v -0.2118772 0.1692833 0.03193783
v -0.2490102 0.1365187 0.03193782
v -0.2708533 0.11686 0.03193782
v -0.2533789 -0.009829383 0.03193779
v -0.1900342 -0.08627988 0.03193776
v -0.1048465 -0.1430717 0.03193776
v -0.002184271 -0.210785 0.03193775
v 0.08737202 -0.1518089 0.03193776
v 0.1856656 -0.08191127 0.03193777
v 0.246826 -0.01201367 0.03193779
v 0.2664847 0.11686 0.03193782
v 0.1878499 0.1933105 0.03193783
v 0.1332424 0.2173378 0.03193785
v 0.1004778 0.210785 0.03193784
v -0.1397953 0.2217064 2.713944E-08
v -0.1660069 0.2042321 1.760575E-08
v -0.1070307 0.2151536 2.635827E-08
v -0.0698976 0.1867576 1.552263E-08
v -0.2118772 0.1692833 1.343953E-08
v -0.03494884 0.1518089 7.631123E-09
v 0.08737202 -0.1518089 -6.209054E-08
v -0.1048465 -0.1430717 -6.104899E-08
v -0.002184271 -0.210785 -6.912104E-08
v 0.1332424 0.2173378 2.661866E-08
v 0.1004778 0.210785 1.838692E-08
v 0.1878499 0.1933105 1.63038E-08
v 9.864322E-10 0.1190443 0
v 0.2664847 0.11686 -4.932197E-10
v 0.246826 -0.01201367 -3.05245E-08
v 0.1856656 -0.08191127 -5.37581E-08
v -0.1900342 -0.08627988 -5.427888E-08
v -0.2533789 -0.009829387 -3.026411E-08
v -0.2490102 0.1365187 3.945756E-09
v -0.2708533 0.11686 -4.932215E-10

vt 0.4963961 0.6177648
vt 0.4614472 0.6505293
vt 0.4264985 0.685478
vt 0.3893654 0.713874
vt 0.3566008 0.7204269
vt 0.3303892 0.7029524
vt 0.284519 0.6680037
vt 0.2473859 0.6352392
vt 0.2255428 0.6155804
vt 0.2430172 0.4888911
vt 0.306362 0.4124406
vt 0.3915496 0.3556487
vt 0.4942118 0.2879355
vt 0.5837681 0.3469116
vt 0.6820617 0.4168092
vt 0.743222 0.4867068
vt 0.7628807 0.6155804
vt 0.6842459 0.692031
vt 0.6296384 0.7160583
vt 0.5968739 0.7095054
vt 0.3619727 0.7204268
vt 0.3357611 0.7029524
vt 0.3947372 0.7138739
vt 0.4318703 0.685478
vt 0.2898908 0.6680036
vt 0.4668191 0.6505292
vt 0.5891399 0.3469115
vt 0.3969215 0.3556487
vt 0.4995837 0.2879354
vt 0.6350102 0.7160582
vt 0.6022457 0.7095053
vt 0.6896178 0.6920309
vt 0.5017679 0.6177647
vt 0.7682526 0.6155804
vt 0.7485939 0.4867067
vt 0.6874335 0.4168091
vt 0.3117338 0.4124405
vt 0.2483891 0.488891
vt 0.2527577 0.6352391
vt 0.2309147 0.6155804
vt 0.56873 0.5861558
vt 0.5779127 0.5956648
vt 0.5572429 0.5972488
vt 0.5664256 0.6067578
vt 0.5573807 0.5744033
vt 0.5458936 0.5854962
vt 0.5446134 0.5611823
vt 0.5331263 0.5722753
vt 0.5940021 0.612326
vt 0.5825151 0.6234189
vt 0.5326344 0.5487778
vt 0.5211474 0.5598708
vt 0.5582496 0.5753031
vt 0.5229027 0.5387003
vt 0.5467625 0.586396
vt 0.5114156 0.5497932
vt 0.4915319 0.5062149
vt 0.4800448 0.5173078
vt 0.473924 0.4879814
vt 0.4853329 0.4997956
vt 0.462437 0.4990743
vt 0.4738458 0.5108886
vt 0.4550681 0.4684554
vt 0.443581 0.4795484
vt 0.5206456 0.536363
vt 0.5091586 0.547456
vt 0.4281055 0.4405349
vt 0.4166185 0.4516279
vt 0.4355185 0.4482113
vt 0.4240314 0.4593042
vt 0.457077 0.4705358
vt 0.44559 0.4816287
vt 0.5875772 0.6056727
vt 0.5760901 0.6167656
vt 0.6092294 0.6280943
vt 0.5977424 0.6391872
vt 0.6070473 0.6258346
vt 0.5955603 0.6369275
vt 0.6147227 0.6337827
vt 0.6032357 0.6448756

vn -9.059849E-09 8.108437E-09 1
vn 6.559536E-08 2.08769E-07 -1
vn -0.5546996 0.8320509 9.918818E-08
vn 0.1961153 0.980581 1.168943E-07
vn 0.6074506 0.7943577 9.46948E-08
vn -0.6060436 0.7954316 9.482282E-08
vn 0.7071071 0.7071067 1.66772E-07
vn -0.5505944 -0.8347731 -9.95127E-08
vn 0.549991 -0.8351709 -1.00185E-07
vn -0.1961152 0.980581 1.168944E-07
vn 0.4027384 0.9153153 1.091141E-07
vn -0.6742696 0.7384855 8.803433E-08
vn 0.6970785 0.7169951 1.691042E-07
vn 0.9885647 -0.1507983 -1.797656E-08
vn 0.7525771 -0.6585044 -7.849984E-08
vn 0.5795236 -0.8149557 -9.715028E-08
vn -0.5547007 -0.8320501 -9.918809E-08
vn 0.6839409 0.7295376 1.709502E-07
vn -0.7700215 -0.6380182 -7.605769E-08
vn -0.6616221 0.7498376 1.768502E-07
vn -0.6689637 0.7432953 1.753072E-07
vn -0.9906213 -0.1366377 -3.222618E-08

usemtl lgbtheart
f 8/8/1 9/9/1 10/10/1
f 7/7/1 8/8/1 10/10/1
f 10/10/1 2/2/1 7/7/1
f 10/10/1 11/11/1 2/2/1
f 2/2/1 11/11/1 1/1/1
f 11/11/1 12/12/1 1/1/1
f 1/1/1 12/12/1 14/14/1
f 1/1/1 14/14/1 15/15/1
f 16/16/1 1/1/1 15/15/1
f 16/16/1 18/18/1 1/1/1
f 17/17/1 18/18/1 16/16/1
f 20/20/1 1/1/1 18/18/1
f 19/19/1 20/20/1 18/18/1
f 14/14/1 12/12/1 13/13/1
f 3/3/1 7/7/1 2/2/1
f 6/6/1 7/7/1 3/3/1
f 6/6/1 3/3/1 4/4/1
f 5/5/1 6/6/1 4/4/1
f 23/23/2 22/22/2 21/21/2
f 23/23/2 24/24/2 22/22/2
f 24/24/2 25/25/2 22/22/2
f 26/26/2 25/25/2 24/24/2
f 29/29/2 28/28/2 27/27/2
f 32/32/2 31/31/2 30/30/2
f 32/32/2 33/33/2 31/31/2
f 35/35/2 32/32/2 34/34/2
f 33/33/2 32/32/2 35/35/2
f 36/36/2 33/33/2 35/35/2
f 36/36/2 27/27/2 33/33/2
f 27/27/2 28/28/2 33/33/2
f 33/33/2 28/28/2 37/37/2
f 33/33/2 37/37/2 26/26/2
f 26/26/2 37/37/2 38/38/2
f 25/25/2 26/26/2 38/38/2
f 38/38/2 39/39/2 25/25/2
f 38/38/2 40/40/2 39/39/2
f 22/42/3 6/44/3 5/43/3
f 5/43/3 21/41/3 22/42/3
f 21/41/4 5/43/4 4/46/4
f 4/46/4 23/45/4 21/41/4
f 23/45/5 4/46/5 3/48/5
f 3/48/5 24/47/5 23/45/5
f 25/49/6 7/50/6 6/44/6
f 6/44/6 22/42/6 25/49/6
f 24/47/7 3/48/7 2/52/7
f 2/52/7 26/51/7 24/47/7
f 29/54/8 13/56/8 12/55/8
f 12/55/8 28/53/8 29/54/8
f 27/57/9 14/58/9 13/56/9
f 13/56/9 29/54/9 27/57/9
f 31/60/10 20/62/10 19/61/10
f 19/61/10 30/59/10 31/60/10
f 30/59/11 19/61/11 18/64/11
f 18/64/11 32/63/11 30/59/11
f 33/65/12 1/66/12 20/62/12
f 20/62/12 31/60/12 33/65/12
f 32/63/13 18/64/13 17/68/13
f 17/68/13 34/67/13 32/63/13
f 34/67/14 17/68/14 16/70/14
f 16/70/14 35/69/14 34/67/14
f 35/69/15 16/70/15 15/72/15
f 15/72/15 36/71/15 35/69/15
f 36/71/16 15/72/16 14/58/16
f 14/58/16 27/57/16 36/71/16
f 28/53/17 12/55/17 11/74/17
f 11/74/17 37/73/17 28/53/17
f 26/51/18 2/52/18 1/66/18
f 1/66/18 33/65/18 26/51/18
f 37/73/19 11/74/19 10/76/19
f 10/76/19 38/75/19 37/73/19
f 39/77/20 8/78/20 7/50/20
f 7/50/20 25/49/20 39/77/20
f 40/79/21 9/80/21 8/78/21
f 8/78/21 39/77/21 40/79/21
f 38/75/22 10/76/22 9/80/22
f 9/80/22 40/79/22 38/75/22

