# ProBuilder 5.0.0
# https://unity3d.com/unity/features/worldbuilding/probuilder
# 03/12/2020 15:54:11

mtllib ./record.mtl
o record

g record
v 0.4666477 8.483097E-11 -0.01038535
v 0.4606362 0.05861281 -0.01038534
v 0.4516188 0.1127169 -0.01038533
v 0.435087 0.1608094 -0.01038532
v 0.4125436 0.2164164 -0.0103853
v 0.3779771 0.2690176 -0.01038529
v 0.3358962 0.3216188 -0.01038529
v 0.2878036 0.3636997 -0.01038528
v 0.2291908 0.402775 -0.01038525
v 0.170578 0.4343357 -0.01038524
v 0.09843922 0.4553762 -0.01038524
v 0.03381483 0.4643936 -0.01038524
v -0.05034709 0.4658965 -0.01038524
v -0.1360119 0.4463589 -0.01038524
v -0.2066479 0.4193068 -0.01038525
v -0.2697693 0.3802316 -0.01038525
v -0.3313879 0.332139 -0.01038529
v -0.3764747 0.278035 -0.01038529
v -0.4185557 0.2164164 -0.0103853
v -0.4531231 0.139769 -0.01038526
v -0.4636423 0.08566482 -0.01038534
v -0.4711569 0.02855496 -0.01038535
v -0.4711569 -0.02855493 -0.01038536
v -0.4651453 -0.08716771 -0.01038537
v -0.4486135 -0.1472834 -0.01038539
v -0.4275731 -0.2058962 -0.01038541
v -0.3915036 -0.2645089 -0.01038542
v -0.3539313 -0.3141043 -0.01038542
v -0.3043359 -0.3652027 -0.01038543
v -0.2562433 -0.3967634 -0.01038546
v -0.2066479 -0.4238155 -0.01038547
v -0.1525437 -0.4478617 -0.01038547
v -0.0924281 -0.4643935 -0.01038547
v -0.03682107 -0.471908 -0.01038547
v 0.01878591 -0.4749138 -0.01038547
v 0.06988423 -0.4658965 -0.01038547
v 0.1315029 -0.4523704 -0.01038547
v 0.1946243 -0.429827 -0.01038547
v 0.2502313 -0.3982663 -0.01038546
v 0.2998267 -0.3591911 -0.01038543
v 0.3464164 -0.318613 -0.01038542
v 0.3839887 -0.2690176 -0.01038542
v 0.4155494 -0.2179193 -0.01038541
v 0.4335841 -0.1728325 -0.01038539
v 0.4531217 -0.1157227 -0.01038538
v 0.4651448 -0.06011566 -0.01038537
v -0.4486135 -0.1472834 -3.245871E-08
v -0.4275731 -0.2058962 -5.434706E-08
v -0.3915036 -0.2645089 -6.133425E-08
v -0.4531231 0.139769 9.116757E-08
v -0.4636423 0.08566482 1.766262E-08
v -0.4185557 0.2164164 5.560117E-08
v -0.3764747 0.278035 6.294667E-08
v -0.2697693 0.3802316 1.049318E-07
v -0.3313879 0.332139 6.939638E-08
v 0.4125436 0.2164164 5.560117E-08
v 0.3779771 0.2690176 6.187172E-08
v 0.435087 0.1608094 3.407114E-08
v 0.4666477 0 0
v 0.4531217 -0.1157227 -2.869638E-08
v 0.4651448 -0.06011566 -1.461693E-08
v 0.4606362 0.05861281 1.443777E-08
v 0.4335841 -0.1728325 -3.55044E-08
v 0.4516188 0.1127169 2.833806E-08
v 0.3839887 -0.2690176 -6.187172E-08
v 0.4155494 -0.2179193 -5.578033E-08
v 0.2998267 -0.3591911 -7.262123E-08
v 0.3464164 -0.318613 -6.778396E-08
v 0.2878036 0.3636997 7.315871E-08
v 0.3358962 0.3216188 6.814227E-08
v 0.2291908 0.402775 1.076192E-07
v -0.1525437 -0.4478617 -1.129939E-07
v -0.0924281 -0.4643935 -1.149647E-07
v -0.2066479 -0.4238155 -1.101274E-07
v 0.06988423 -0.4658965 -1.151438E-07
v -0.03682107 -0.471908 -1.158605E-07
v 0.01878591 -0.4749138 -1.162188E-07
v 0.1315029 -0.4523704 -1.135314E-07
v 0.1946243 -0.429827 -1.10844E-07
v 0.2502313 -0.3982663 -1.070817E-07
v -0.2562433 -0.3967634 -1.069025E-07
v -0.3043359 -0.3652026 -7.333787E-08
v -0.3539313 -0.3141043 -6.724648E-08
v 0.170578 0.4343357 1.113815E-07
v 0.09843922 0.4553762 1.138897E-07
v 0.03381483 0.4643936 1.149647E-07
v -0.05034709 0.4658965 1.151438E-07
v -0.1360119 0.4463589 1.128148E-07
v -0.2066479 0.4193068 1.095899E-07
v -0.4711569 0.02855496 7.129307E-09
v -0.4711569 -0.02855493 -7.129303E-09
v -0.4651453 -0.0871677 -1.784178E-08

vt 0.9696787 0.494617
vt 0.9636671 0.4360042
vt 0.9546497 0.3819001
vt 0.9381179 0.3338076
vt 0.9155746 0.2782006
vt 0.8810081 0.2255994
vt 0.8389271 0.1729982
vt 0.7908347 0.1309173
vt 0.7322218 0.09184203
vt 0.673609 0.06028128
vt 0.6014702 0.03924081
vt 0.5368459 0.03022346
vt 0.452684 0.02872056
vt 0.3670192 0.04825816
vt 0.2963833 0.07531023
vt 0.2332619 0.1143854
vt 0.1716432 0.162478
vt 0.1265565 0.216582
vt 0.08447546 0.2782006
vt 0.04990804 0.354848
vt 0.03938884 0.4089521
vt 0.0318743 0.466062
vt 0.0318743 0.5231719
vt 0.03788584 0.5817847
vt 0.05441767 0.6419003
vt 0.07545811 0.7005131
vt 0.1115276 0.7591258
vt 0.1490998 0.8087213
vt 0.1986952 0.8598195
vt 0.2467878 0.8913803
vt 0.2963833 0.9184324
vt 0.3504874 0.9424787
vt 0.410603 0.9590104
vt 0.46621 0.9665249
vt 0.521817 0.9695307
vt 0.5729153 0.9605134
vt 0.6345339 0.9469873
vt 0.6976553 0.924444
vt 0.7532623 0.8928832
vt 0.8028578 0.853808
vt 0.8494474 0.8132299
vt 0.8870197 0.7636346
vt 0.9185804 0.7125362
vt 0.9366151 0.6674495
vt 0.9561527 0.6103396
vt 0.9681758 0.5547326
vt 0.5710961 0.3106808
vt 0.5720493 0.3106808
vt 0.5710961 0.3119789
vt 0.5720493 0.3119789
vt 0.5554322 0.3106808
vt 0.5596533 0.3106808
vt 0.5554322 0.3119789
vt 0.5596533 0.3119789
vt 0.5472578 0.3106808
vt 0.5472578 0.3119789
vt 0.5390915 0.3106808
vt 0.5390915 0.3119789
vt 0.521428 0.3106808
vt 0.5310129 0.3106808
vt 0.521428 0.3119789
vt 0.5310129 0.3119789
vt 0.4545134 0.3106808
vt 0.4554082 0.3106808
vt 0.4545134 0.3119789
vt 0.4554082 0.3119789
vt 0.4686917 0.3106808
vt 0.4642181 0.3106808
vt 0.4686917 0.3119789
vt 0.4642181 0.3119789
vt 0.4606646 0.3106808
vt 0.4606646 0.3119789
vt 0.4580343 0.3106808
vt 0.4580343 0.3119789
vt 0.4740885 0.3106808
vt 0.4740885 0.3119789
vt 0.4559934 0.3106808
vt 0.4559934 0.3119789
vt 0.4850402 0.3106808
vt 0.4786403 0.3106808
vt 0.4850402 0.3119789
vt 0.4786403 0.3119789
vt 0.4995108 0.3106808
vt 0.4920263 0.3106808
vt 0.4995108 0.3119789
vt 0.4920263 0.3119789
vt 0.4571415 0.3106808
vt 0.4571415 0.3119789
vt 0.4601382 0.3106808
vt 0.4601382 0.3119789
vt 0.554986 0.3106808
vt 0.5492086 0.3106808
vt 0.554986 0.311979
vt 0.5492086 0.311979
vt 0.5434265 0.3106808
vt 0.5373905 0.3106808
vt 0.5434265 0.311979
vt 0.5373905 0.311979
vt 0.5235425 0.3106808
vt 0.5235425 0.311979
vt 0.5152289 0.3106808
vt 0.507246 0.3106808
vt 0.5152289 0.311979
vt 0.507246 0.311979
vt 0.5636802 0.3106808
vt 0.5636802 0.311979
vt 0.5672694 0.3106808
vt 0.5672694 0.3119789
vt 0.5699259 0.3106808
vt 0.5699259 0.3119789
vt 0.4692414 0.3106808
vt 0.4761065 0.3106808
vt 0.4692414 0.3119789
vt 0.4761065 0.3119789
vt 0.4828102 0.3106808
vt 0.4828102 0.3119789
vt 0.5027773 0.3106808
vt 0.5027773 0.3119789
vt 0.5121834 0.3106808
vt 0.5121834 0.3119789
vt 0.5669249 0.3106808
vt 0.5669249 0.3119789

vn 3.00379E-08 6.045952E-09 -1
vn -1.455343E-07 -8.726027E-08 1
vn -0.9411951 -0.3378641 -4.027654E-08
vn -0.851658 -0.5240982 -6.247737E-08
vn -0.9816192 0.1908514 2.275126E-08
vn -0.9115828 0.4111171 4.900897E-08
vn -0.825801 0.563962 6.72295E-08
vn -0.6152707 0.7883161 9.397458E-08
vn -0.7682213 0.6401846 7.631595E-08
vn 0.8357057 0.5491779 6.54671E-08
vn 0.9267396 0.3757049 4.478751E-08
vn 0.9774144 -0.2113326 -2.519281E-08
vn 0.9996879 -0.02499237 -1.418539E-08
vn 0.9947817 0.102029 1.906571E-08
vn 0.9461643 -0.3236876 -3.858657E-08
vn 0.9863942 0.164399 1.959789E-08
vn 0.9456866 0.3250804 3.87526E-08
vn 0.8507984 -0.5254926 -6.264359E-08
vn 0.9284767 -0.3713911 -4.427327E-08
vn 0.6567811 -0.7540816 -8.989352E-08
vn 0.797092 -0.6038583 -7.198551E-08
vn 0.7808692 0.6246949 7.446943E-08
vn 0.6585047 0.7525769 8.971414E-08
vn 0.5547005 0.8320503 9.918811E-08
vn -0.2651567 -0.9642054 -1.149422E-07
vn -0.4061379 -0.913812 -1.089349E-07
vn -0.05397511 -0.9985424 -1.190355E-07
vn 0.1737848 -0.9847838 -1.173954E-07
vn -0.1339182 -0.9909925 -1.181355E-07
vn 0.2144076 -0.9767444 -1.16437E-07
vn 0.4936056 -0.8696861 -1.036746E-07
vn 0.3363366 -0.941742 -1.122644E-07
vn 0.6188723 -0.7854918 -9.363791E-08
vn -0.4788527 -0.8778955 -1.046533E-07
vn -0.5486563 -0.8360482 -9.96647E-08
vn -0.7175807 -0.6964756 -8.302635E-08
vn 0.2799999 0.9600002 1.144409E-07
vn 0.4741002 0.8804711 1.049603E-07
vn 0.138196 0.9904051 1.180655E-07
vn 0.01785442 0.9998407 1.191903E-07
vn -0.2223605 0.9749646 1.162248E-07
vn -0.3576477 0.9338568 1.113244E-07
vn -0.5263547 0.8502653 1.013595E-07
vn -0.7970925 -0.6038576 -7.198543E-08
vn -0.9914544 0.130456 1.555156E-08
vn -1 0 0
vn -0.9947817 -0.1020285 -3.046188E-08
vn -0.9642056 -0.2651567 -3.160914E-08

usemtl record
f 27/27/1 26/26/1 25/25/1
f 19/19/1 21/21/1 20/20/1
f 18/18/1 21/21/1 19/19/1
f 17/17/1 16/16/1 18/18/1
f 4/4/1 6/6/1 5/5/1
f 46/46/1 45/45/1 1/1/1
f 1/1/1 45/45/1 2/2/1
f 45/45/1 44/44/1 2/2/1
f 3/3/1 2/2/1 4/4/1
f 2/2/1 44/44/1 4/4/1
f 6/6/1 4/4/1 44/44/1
f 43/43/1 42/42/1 44/44/1
f 42/42/1 41/41/1 40/40/1
f 44/44/1 42/42/1 40/40/1
f 6/6/1 44/44/1 40/40/1
f 7/7/1 6/6/1 8/8/1
f 8/8/1 6/6/1 9/9/1
f 6/6/1 40/40/1 9/9/1
f 31/31/1 33/33/1 32/32/1
f 35/35/1 34/34/1 36/36/1
f 34/34/1 33/33/1 36/36/1
f 31/31/1 36/36/1 33/33/1
f 37/37/1 36/36/1 31/31/1
f 37/37/1 39/39/1 38/38/1
f 40/40/1 39/39/1 37/37/1
f 31/31/1 40/40/1 37/37/1
f 9/9/1 40/40/1 31/31/1
f 9/9/1 31/31/1 30/30/1
f 29/29/1 9/9/1 30/30/1
f 9/9/1 29/29/1 28/28/1
f 9/9/1 11/11/1 10/10/1
f 9/9/1 12/12/1 11/11/1
f 14/14/1 13/13/1 12/12/1
f 12/12/1 15/15/1 14/14/1
f 15/15/1 12/12/1 16/16/1
f 9/9/1 16/16/1 12/12/1
f 9/9/1 28/28/1 16/16/1
f 28/28/1 27/27/1 16/16/1
f 18/18/1 16/16/1 27/27/1
f 21/21/1 18/18/1 27/27/1
f 27/27/1 25/25/1 21/21/1
f 23/23/1 22/22/1 21/21/1
f 25/25/1 23/23/1 21/21/1
f 25/25/1 24/24/1 23/23/1
f 91/23/2 92/24/2 47/25/2
f 51/21/2 91/23/2 47/25/2
f 51/21/2 90/22/2 91/23/2
f 51/21/2 47/25/2 49/27/2
f 49/27/2 53/18/2 51/21/2
f 49/27/2 54/16/2 53/18/2
f 54/16/2 49/27/2 83/28/2
f 54/16/2 83/28/2 71/9/2
f 86/12/2 54/16/2 71/9/2
f 54/16/2 86/12/2 89/15/2
f 88/14/2 89/15/2 86/12/2
f 86/12/2 87/13/2 88/14/2
f 85/11/2 86/12/2 71/9/2
f 84/10/2 85/11/2 71/9/2
f 83/28/2 82/29/2 71/9/2
f 81/30/2 71/9/2 82/29/2
f 81/30/2 74/31/2 71/9/2
f 74/31/2 67/40/2 71/9/2
f 78/37/2 67/40/2 74/31/2
f 78/37/2 80/39/2 67/40/2
f 79/38/2 80/39/2 78/37/2
f 74/31/2 75/36/2 78/37/2
f 73/33/2 75/36/2 74/31/2
f 75/36/2 73/33/2 76/34/2
f 75/36/2 76/34/2 77/35/2
f 72/32/2 73/33/2 74/31/2
f 71/9/2 67/40/2 57/6/2
f 71/9/2 57/6/2 69/8/2
f 69/8/2 57/6/2 70/7/2
f 67/40/2 63/44/2 57/6/2
f 67/40/2 65/42/2 63/44/2
f 67/40/2 68/41/2 65/42/2
f 63/44/2 65/42/2 66/43/2
f 63/44/2 58/4/2 57/6/2
f 58/4/2 63/44/2 62/2/2
f 58/4/2 62/2/2 64/3/2
f 62/2/2 63/44/2 60/45/2
f 62/2/2 60/45/2 59/1/2
f 59/1/2 60/45/2 61/46/2
f 56/5/2 57/6/2 58/4/2
f 53/18/2 54/16/2 55/17/2
f 52/19/2 51/21/2 53/18/2
f 50/20/2 51/21/2 52/19/2
f 47/25/2 48/26/2 49/27/2
f 26/50/3 48/48/3 47/47/3
f 47/47/3 25/49/3 26/50/3
f 27/49/4 49/47/4 48/48/4
f 48/48/4 26/50/4 27/49/4
f 21/54/5 51/52/5 50/51/5
f 50/51/5 20/53/5 21/54/5
f 20/53/6 50/51/6 52/55/6
f 52/55/6 19/56/6 20/53/6
f 19/56/7 52/55/7 53/57/7
f 53/57/7 18/58/7 19/56/7
f 17/62/8 55/60/8 54/59/8
f 54/59/8 16/61/8 17/62/8
f 18/58/9 53/57/9 55/60/9
f 55/60/9 17/62/9 18/58/9
f 6/66/10 57/64/10 56/63/10
f 56/63/10 5/65/10 6/66/10
f 5/65/11 56/63/11 58/64/11
f 58/64/11 4/66/11 5/65/11
f 46/70/12 61/68/12 60/67/12
f 60/67/12 45/69/12 46/70/12
f 1/72/13 59/71/13 61/68/13
f 61/68/13 46/70/13 1/72/13
f 2/74/14 62/73/14 59/71/14
f 59/71/14 1/72/14 2/74/14
f 45/69/15 60/67/15 63/75/15
f 63/75/15 44/76/15 45/69/15
f 3/78/16 64/77/16 62/73/16
f 62/73/16 2/74/16 3/78/16
f 4/66/17 58/64/17 64/77/17
f 64/77/17 3/78/17 4/66/17
f 43/82/18 66/80/18 65/79/18
f 65/79/18 42/81/18 43/82/18
f 44/76/19 63/75/19 66/80/19
f 66/80/19 43/82/19 44/76/19
f 41/86/20 68/84/20 67/83/20
f 67/83/20 40/85/20 41/86/20
f 42/81/21 65/79/21 68/84/21
f 68/84/21 41/86/21 42/81/21
f 7/88/22 70/87/22 57/64/22
f 57/64/22 6/66/22 7/88/22
f 8/90/23 69/89/23 70/87/23
f 70/87/23 7/88/23 8/90/23
f 9/70/24 71/68/24 69/89/24
f 69/89/24 8/90/24 9/70/24
f 33/94/25 73/92/25 72/91/25
f 72/91/25 32/93/25 33/94/25
f 32/93/26 72/91/26 74/52/26
f 74/52/26 31/54/26 32/93/26
f 35/98/27 77/96/27 76/95/27
f 76/95/27 34/97/27 35/98/27
f 36/62/28 75/60/28 77/96/28
f 77/96/28 35/98/28 36/62/28
f 34/97/29 76/95/29 73/92/29
f 73/92/29 33/94/29 34/97/29
f 37/100/30 78/99/30 75/60/30
f 75/60/30 36/62/30 37/100/30
f 39/104/31 80/102/31 79/101/31
f 79/101/31 38/103/31 39/104/31
f 38/103/32 79/101/32 78/99/32
f 78/99/32 37/100/32 38/103/32
f 40/85/33 67/83/33 80/102/33
f 80/102/33 39/104/33 40/85/33
f 31/54/34 74/52/34 81/105/34
f 81/105/34 30/106/34 31/54/34
f 30/106/35 81/105/35 82/107/35
f 82/107/35 29/108/35 30/106/35
f 29/108/36 82/107/36 83/109/36
f 83/109/36 28/110/36 29/108/36
f 11/114/37 85/112/37 84/111/37
f 84/111/37 10/113/37 11/114/37
f 10/113/38 84/111/38 71/68/38
f 71/68/38 9/70/38 10/113/38
f 12/116/39 86/115/39 85/112/39
f 85/112/39 11/114/39 12/116/39
f 13/86/40 87/84/40 86/115/40
f 86/115/40 12/116/40 13/86/40
f 14/118/41 88/117/41 87/84/41
f 87/84/41 13/86/41 14/118/41
f 15/120/42 89/119/42 88/117/42
f 88/117/42 14/118/42 15/120/42
f 16/61/43 54/59/43 89/119/43
f 89/119/43 15/120/43 16/61/43
f 28/110/44 83/109/44 49/47/44
f 49/47/44 27/49/44 28/110/44
f 22/106/45 90/105/45 51/52/45
f 51/52/45 21/54/45 22/106/45
f 23/122/46 91/121/46 90/105/46
f 90/105/46 22/106/46 23/122/46
f 24/110/47 92/109/47 91/121/47
f 91/121/47 23/122/47 24/110/47
f 25/49/48 47/47/48 92/109/48
f 92/109/48 24/110/48 25/49/48

