# ProBuilder 5.0.0
# https://unity3d.com/unity/features/worldbuilding/probuilder
# 03/12/2020 16:31:09

mtllib ./camera.mtl
o camera

g camera
v 0.2542784 0.383684 -0.1548579
v 0.3099284 0.3348206 -0.154858
v 0.372365 0.2859572 -0.154858
v 0.3940821 0.2669547 -0.154858
v 0.4035833 0.242523 -0.154858
v 0.4035833 0.2153767 -0.154858
v 0.3981541 0.1800864 -0.154858
v 0.3981541 0.1339376 -0.154858
v 0.4035833 0.08100224 -0.154858
v 0.4130845 0.03213885 -0.154858
v 0.4293723 0.01585102 -0.154858
v 0.4443029 -0.01129535 -0.154858
v 0.4443029 -0.04930023 -0.1548581
v 0.432087 -0.09001978 -0.1548581
v 0.4090126 -0.1443125 -0.1548581
v 0.3913675 -0.1904613 -0.1548581
v 0.368293 -0.2352528 -0.1548581
v 0.3479333 -0.2664711 -0.1548581
v 0.338432 -0.3085479 -0.1548581
v 0.3275735 -0.3506247 -0.1548581
v 0.3099284 -0.3886297 -0.1548581
v 0.2814247 -0.4130614 -0.1548582
v 0.2407052 -0.441565 -0.1548582
v 0.1986284 -0.4592102 -0.1548582
v 0.1606235 -0.4632821 -0.1548582
v 0.1226185 -0.4551382 -0.1548582
v 0.08868559 -0.4374931 -0.1548582
v 0.06153923 -0.4171333 -0.1548582
v 0.04525141 -0.3927016 -0.1548581
v 0.0371075 -0.3574113 -0.1548581
v 0.0208197 -0.3207637 -0.1548581
v 0.005889208 -0.2800442 -0.1548581
v 0.004531905 -0.2528979 -0.1548581
v -0.004969361 -0.2420394 -0.1548581
v -0.02940113 -0.2366102 -0.1548582
v -0.04704617 -0.2135357 -0.1548581
v -0.04433156 -0.1918186 -0.1548581
v -0.03211571 -0.1578857 -0.1548581
v -0.02125717 -0.1280247 -0.1548581
v -0.01718516 -0.1076649 -0.1548581
v -0.02668644 -0.09680636 -0.1548581
v -0.1026962 -0.08187588 -0.1548581
v -0.1800634 -0.06015877 -0.1548581
v -0.2777902 -0.0384417 -0.1548581
v -0.3619439 -0.01672462 -0.154858
v -0.4230231 -0.004508769 -0.154858
v -0.4420257 0.009064432 -0.154858
v -0.4474549 0.02670955 -0.154858
v -0.4420257 0.04978397 -0.154858
v -0.4298098 0.06335711 -0.154858
v -0.3619439 0.2954584 -0.154858
v -0.3633012 0.3185328 -0.154858
v -0.3415842 0.4162597 -0.1548579
v -0.3252963 0.4325475 -0.1548579
v -0.3117232 0.4366194 -0.1548579
v -0.2954354 0.4542646 -0.1548579
v -0.2710036 0.4610511 -0.1548579
v -0.2289268 0.4529073 -0.1548579
v -0.1814207 0.4420487 -0.1548579
v -0.1474877 0.4298328 -0.1548579
v -0.1393438 0.4149024 -0.1548579
v -0.1420584 0.3999718 -0.1548579
v 0.02353433 0.357895 -0.1548579
v 0.03982214 0.3687535 -0.1548579
v 0.0601819 0.3701109 -0.1548579
v 0.08325633 0.3633243 -0.1548579
v 0.1144746 0.3809694 -0.1548579
v 0.1470503 0.3768975 -0.1548579
v 0.1891271 0.387756 -0.1548579
v 0.2217027 0.3945426 -0.1548579
v 0.4443029 -0.04930025 -1.112204E-07
v 0.4443029 -0.01129537 -1.066899E-07
v 0.4293723 0.01585101 -7.365144E-08
v 0.4130845 0.03213884 -7.170978E-08
v 0.432087 -0.09001979 -1.160745E-07
v 0.4090126 -0.1443125 -1.225467E-07
v -0.02940113 -0.2366102 -2.527588E-07
v -0.04433156 -0.1918186 -1.282099E-07
v -0.04704617 -0.2135357 -1.307988E-07
v -0.004969361 -0.2420393 -1.341967E-07
v -0.03211571 -0.1578857 -1.241648E-07
v -0.02125717 -0.1280246 -1.206051E-07
v 0.004531905 -0.2528979 -1.354911E-07
v -0.01718516 -0.1076649 -1.18178E-07
v 0.005889208 -0.2800442 -1.387272E-07
v 0.0208197 -0.3207637 -1.435814E-07
v 0.2814247 -0.4130614 -2.141887E-07
v 0.3099284 -0.3886296 -2.112763E-07
v 0.3275735 -0.3506247 -1.471411E-07
v 0.04525141 -0.3927016 -2.117617E-07
v 0.06153923 -0.4171333 -2.146742E-07
v 0.0371075 -0.3574113 -1.479501E-07
v 0.08868559 -0.4374931 -2.171012E-07
v 0.1226185 -0.4551382 -2.192047E-07
v 0.1986284 -0.4592101 -2.196901E-07
v 0.1606235 -0.4632821 -2.201755E-07
v 0.2407052 -0.441565 -2.175866E-07
v 0.338432 -0.3085479 -1.421251E-07
v 0.3479333 -0.2664711 -1.371092E-07
v 0.368293 -0.2352528 -1.333877E-07
v 0.3913675 -0.1904613 -1.280481E-07
v 0.4035833 0.08100223 -6.588481E-08
v 0.3981541 0.1339376 -5.957442E-08
v -0.02668644 -0.09680638 -1.168836E-07
v 0.4035833 0.242523 -3.172887E-08
v 0.3940821 0.2669547 -2.881638E-08
v 0.372365 0.2859572 -2.655111E-08
v 0.4035833 0.2153767 -3.496496E-08
v 0.3981541 0.1800864 -5.407305E-08
v 0.3099284 0.3348206 -1.327555E-08
v 0.2542784 0.383684 0
v 0.2217027 0.3945426 2.225765E-09
v 0.1891271 0.387756 9.510758E-10
v 0.1470503 0.3768975 -1.740343E-09
v 0.1144746 0.3809694 -5.564367E-10
v 0.08325633 0.3633243 -4.289714E-09
v -0.1026962 -0.08187588 -1.151037E-07
v 0.0601819 0.3701109 -3.480694E-09
v 0.03982214 0.3687535 -3.642502E-09
v 0.02353433 0.357895 -6.799582E-09
v -0.1800634 -0.06015878 -1.125148E-07
v -0.1420584 0.3999718 3.804303E-09
v -0.2777902 -0.03844171 -1.09926E-07
v -0.3117232 0.4366194 1.376097E-08
v -0.3252963 0.4325475 1.327556E-08
v -0.3415842 0.4162597 7.60861E-09
v -0.2710036 0.4610511 1.667346E-08
v -0.2954354 0.4542646 1.586444E-08
v -0.2289268 0.4529073 1.570263E-08
v -0.1814207 0.4420487 1.440819E-08
v -0.3633012 0.3185328 -1.521721E-08
v -0.1393438 0.4149024 7.446805E-09
v -0.1474877 0.4298328 9.226654E-09
v -0.3619439 0.2954584 -1.79679E-08
v -0.4298098 0.06335711 -6.798827E-08
v -0.3619439 -0.01672463 -1.073371E-07
v -0.4230231 -0.00450878 -1.058808E-07
v -0.4420257 0.04978396 -6.960632E-08
v -0.4474549 0.02670954 -7.2357E-08
v -0.4420257 0.009064421 -7.446046E-08

vt 0.246402 0.88919
vt 0.190752 0.8403265
vt 0.1283154 0.7914631
vt 0.1065983 0.7724607
vt 0.09709707 0.7480289
vt 0.09709707 0.7208827
vt 0.1025263 0.6855924
vt 0.1025263 0.6394436
vt 0.09709707 0.5865082
vt 0.08759588 0.5376448
vt 0.07130805 0.5213569
vt 0.05637756 0.4942106
vt 0.05637756 0.4562057
vt 0.06859341 0.4154862
vt 0.0916678 0.3611935
vt 0.1093129 0.3150447
vt 0.1323873 0.2702532
vt 0.1527471 0.239035
vt 0.1622483 0.1969581
vt 0.1731069 0.1548813
vt 0.190752 0.1168764
vt 0.2192557 0.09244466
vt 0.2599752 0.063941
vt 0.302052 0.04629588
vt 0.3400569 0.04222393
vt 0.3780618 0.05036783
vt 0.4119947 0.06801295
vt 0.4391411 0.08837271
vt 0.4554289 0.1128044
vt 0.4635728 0.1480947
vt 0.4798606 0.1847423
vt 0.4947911 0.2254618
vt 0.4961484 0.2526081
vt 0.5056497 0.2634667
vt 0.5300814 0.2688958
vt 0.5477265 0.2919703
vt 0.5450119 0.3136874
vt 0.532796 0.3476203
vt 0.5219375 0.3774813
vt 0.5178654 0.3978411
vt 0.5273668 0.4086996
vt 0.6033764 0.4236301
vt 0.6807436 0.4453472
vt 0.7784705 0.4670643
vt 0.8626242 0.4887813
vt 0.9237033 0.5009972
vt 0.9427059 0.5145704
vt 0.9481351 0.5322155
vt 0.9427059 0.5552899
vt 0.93049 0.568863
vt 0.8626242 0.8009643
vt 0.8639815 0.8240387
vt 0.8422644 0.9217656
vt 0.8259765 0.9380534
vt 0.8124034 0.9421254
vt 0.7961156 0.9597705
vt 0.7716838 0.966557
vt 0.729607 0.9584132
vt 0.6821009 0.9475546
vt 0.648168 0.9353387
vt 0.6400241 0.9204083
vt 0.6427387 0.9054778
vt 0.477146 0.8634009
vt 0.4608582 0.8742594
vt 0.4404984 0.8756168
vt 0.417424 0.8688302
vt 0.3862057 0.8864753
vt 0.3536301 0.8824034
vt 0.3115532 0.8932619
vt 0.2789776 0.9000485
vt 0.3750695 0.1553404
vt 0.3750695 0.1359832
vt 0.3735353 0.1553404
vt 0.3735353 0.1359832
vt 0.3715837 0.1553404
vt 0.3715837 0.1359832
vt 0.3733371 0.1553404
vt 0.3733371 0.1359832
vt 0.3701797 0.1553404
vt 0.3701797 0.1359832
vt 0.3133173 0.1553404
vt 0.3128681 0.1553404
vt 0.3133173 0.1359832
vt 0.3128681 0.1359832
vt 0.3149548 0.1553404
vt 0.3149548 0.1359832
vt 0.3179787 0.1553404
vt 0.3179787 0.1359832
vt 0.3150153 0.1553404
vt 0.3150153 0.1359832
vt 0.316523 0.1553404
vt 0.316523 0.1359832
vt 0.3191103 0.1553404
vt 0.3191103 0.1359832
vt 0.3171349 0.1553404
vt 0.3171349 0.1359832
vt 0.3208002 0.1553404
vt 0.3208002 0.1359832
vt 0.3528806 0.1553404
vt 0.3565646 0.1553404
vt 0.3528806 0.1359832
vt 0.3565646 0.1359832
vt 0.3589613 0.1553404
vt 0.3589613 0.1359832
vt 0.3234866 0.1553404
vt 0.3253969 0.1553404
vt 0.3234866 0.1359832
vt 0.3253969 0.1359832
vt 0.3226485 0.1553404
vt 0.3226485 0.1359832
vt 0.3286841 0.1553404
vt 0.3286841 0.1359832
vt 0.3328326 0.1553404
vt 0.3328326 0.1359832
vt 0.337538 0.1553404
vt 0.337538 0.1359832
vt 0.3423054 0.1553404
vt 0.3423054 0.1359832
vt 0.3476502 0.1553404
vt 0.3476502 0.1359832
vt 0.360531 0.1553404
vt 0.360531 0.1359832
vt 0.3619312 0.1553404
vt 0.3619312 0.1359832
vt 0.3646325 0.1553404
vt 0.3646325 0.1359832
vt 0.3677417 0.1553404
vt 0.3677417 0.1359832
vt 0.370645 0.1553404
vt 0.370645 0.1359832
vt 0.3160033 0.1553404
vt 0.3160033 0.1359832
vt 0.3714646 0.1553404
vt 0.3714646 0.1359831
vt 0.3602358 0.1553404
vt 0.3602358 0.1359831
vt 0.3535333 0.1553404
vt 0.3495198 0.1553404
vt 0.3535333 0.1359831
vt 0.3495198 0.1359831
vt 0.3454168 0.1553404
vt 0.3454168 0.1359831
vt 0.3401064 0.1553404
vt 0.3401064 0.1359831
vt 0.3360584 0.1553404
vt 0.3360584 0.1359831
vt 0.3320698 0.1553404
vt 0.3320698 0.1359831
vt 0.3065857 0.1553404
vt 0.3065857 0.1359832
vt 0.3292224 0.1553404
vt 0.3266726 0.1553404
vt 0.3292224 0.1359831
vt 0.3266726 0.1359831
vt 0.3245832 0.1553404
vt 0.3245832 0.1359831
vt 0.297033 0.1553404
vt 0.297033 0.1359832
vt 0.3041147 0.1553404
vt 0.3041147 0.1359831
vt 0.2849374 0.1553404
vt 0.2849374 0.1359832
vt 0.28311 0.1553404
vt 0.2813941 0.1553404
vt 0.28311 0.1359831
vt 0.2813941 0.1359831
vt 0.2792772 0.1553404
vt 0.2792772 0.1359831
vt 0.2883198 0.1553404
vt 0.2852339 0.1553404
vt 0.2883198 0.1359831
vt 0.2852339 0.1359831
vt 0.2935337 0.1553404
vt 0.2935337 0.1359831
vt 0.299412 0.1553404
vt 0.299412 0.1359831
vt 0.2760689 0.1553404
vt 0.2760689 0.1359831
vt 0.3045295 0.1553404
vt 0.3035881 0.1553404
vt 0.3045295 0.1359831
vt 0.3035881 0.1359831
vt 0.2664672 0.1553404
vt 0.2664672 0.1359832
vt 0.2745371 0.1553404
vt 0.2745371 0.1359832
vt 0.2669705 0.1553404
vt 0.2669705 0.1359832
vt 0.2648726 0.1553404
vt 0.2648726 0.1359832
vt 0.2640774 0.1553404
vt 0.2640774 0.1359832

vn 1.026018E-08 4.495362E-08 -1
vn 6.46059E-07 -1.321526E-07 1
vn 1 0 0
vn 0.8762164 0.4819184 1.501941E-07
vn 0.7071069 0.7071068 2.20376E-07
vn 0.9578266 -0.2873477 -8.955443E-08
vn 0.9203312 -0.3911405 -4.662758E-08
vn -0.9922783 0.1240334 1.478593E-08
vn -0.7943611 -0.6074463 -7.241323E-08
vn -0.2169255 -0.9761883 -1.163707E-07
vn -0.9408877 0.3387195 4.037851E-08
vn -0.9397939 0.3417425 4.073888E-08
vn -0.7525753 -0.6585064 -7.850007E-08
vn -0.9805803 0.1961192 6.112226E-08
vn -0.9388766 -0.3442547 -4.103835E-08
vn -0.9987527 -0.04993708 -5.952963E-09
vn 0.6507915 -0.7592568 -9.051045E-08
vn 0.9070094 -0.4211108 -5.020032E-08
vn -0.8320502 -0.5547006 -6.612546E-08
vn -0.9743915 -0.2248592 -2.68053E-08
vn -0.5999999 -0.8000003 -9.536745E-08
vn -0.4613529 -0.8872169 -1.057645E-07
vn -0.2095289 -0.9778026 -1.165631E-07
vn 0.1065331 -0.9943093 -1.185309E-07
vn 0.3867268 -0.9221945 -1.099341E-07
vn 0.5734624 -0.8192321 -9.766006E-08
vn 0.9682776 -0.249878 -2.978778E-08
vn -0.9138118 -0.4061385 -4.841548E-08
vn 0.9754412 -0.2202609 -2.625714E-08
vn 0.8376106 -0.5462681 -6.512023E-08
vn 0.8889745 -0.4579571 -5.459274E-08
vn 0.9340521 -0.3571375 -4.25741E-08
vn 0.9816157 0.1908692 5.948606E-08
vn 0.9947817 0.1020289 3.179818E-08
vn 0.9320051 0.3624459 7.808318E-08
vn 0.6585042 0.7525773 1.98339E-07
vn 0.988372 -0.1520571 -3.275827E-08
vn 0.6163085 0.7875051 2.075441E-07
vn 0.3162284 0.9486832 2.353535E-07
vn -0.2039552 0.9789804 2.403438E-07
vn 0.6598014 0.7514404 1.799626E-07
vn -0.2498774 0.9682776 2.406279E-07
vn 0.1240347 0.992278 2.465923E-07
vn -0.4920572 0.870563 2.150358E-07
vn -0.1927454 -0.981249 -3.058148E-07
vn -0.06652048 0.9977852 2.449605E-07
vn -0.5546994 0.832051 2.042721E-07
vn 0.2821649 0.9593661 2.412981E-07
vn -0.2702565 -0.9627885 -3.000615E-07
vn 0.2462724 0.9692008 2.437717E-07
vn -0.2873491 0.9578261 2.2939E-07
vn -0.7071058 0.7071081 1.693455E-07
vn -0.2676422 0.9635186 2.539318E-07
vn -0.7348036 0.6782802 1.787583E-07
vn 0.1900213 0.9817801 2.587446E-07
vn 0.2228249 0.9748586 2.334691E-07
vn -0.9761873 0.2169304 5.19527E-08
vn 0.8778954 0.4788529 1.204403E-07
vn 0.9838709 -0.1788813 -4.499191E-08
vn 0.3387204 0.9408873 2.253333E-07
vn -0.9982746 -0.05872195 -1.547596E-08
vn -0.9598114 0.2806465 7.396336E-08
vn -0.2498781 -0.9682775 -3.017721E-07
vn -0.1961163 -0.9805807 -3.056066E-07
vn -0.7432936 0.6689656 2.08489E-07
vn -0.9734175 0.2290391 7.138203E-08
vn -0.9557793 -0.2940859 -9.165444E-08
vn -0.581238 -0.8137338 -2.536073E-07

usemtl camera
f 11/11/1 12/12/1 13/13/1
f 13/13/1 10/10/1 11/11/1
f 13/13/1 14/14/1 10/10/1
f 14/14/1 15/15/1 10/10/1
f 36/36/1 37/37/1 35/35/1
f 35/35/1 37/37/1 34/34/1
f 38/38/1 34/34/1 37/37/1
f 39/39/1 34/34/1 38/38/1
f 39/39/1 33/33/1 34/34/1
f 33/33/1 39/39/1 40/40/1
f 33/33/1 31/31/1 32/32/1
f 20/20/1 21/21/1 22/22/1
f 30/30/1 28/28/1 29/29/1
f 30/30/1 27/27/1 28/28/1
f 27/27/1 30/30/1 26/26/1
f 25/25/1 26/26/1 24/24/1
f 30/30/1 24/24/1 26/26/1
f 23/23/1 24/24/1 30/30/1
f 22/22/1 23/23/1 30/30/1
f 20/20/1 22/22/1 30/30/1
f 20/20/1 30/30/1 19/19/1
f 19/19/1 30/30/1 31/31/1
f 18/18/1 19/19/1 31/31/1
f 33/33/1 18/18/1 31/31/1
f 40/40/1 18/18/1 33/33/1
f 17/17/1 18/18/1 40/40/1
f 16/16/1 17/17/1 40/40/1
f 16/16/1 40/40/1 15/15/1
f 10/10/1 15/15/1 40/40/1
f 9/9/1 10/10/1 40/40/1
f 9/9/1 40/40/1 8/8/1
f 41/41/1 8/8/1 40/40/1
f 3/3/1 4/4/1 5/5/1
f 5/5/1 6/6/1 3/3/1
f 7/7/1 3/3/1 6/6/1
f 7/7/1 8/8/1 3/3/1
f 8/8/1 2/2/1 3/3/1
f 69/69/1 70/70/1 1/1/1
f 2/2/1 69/69/1 1/1/1
f 2/2/1 68/68/1 69/69/1
f 8/8/1 68/68/1 2/2/1
f 66/66/1 67/67/1 68/68/1
f 68/68/1 8/8/1 66/66/1
f 41/41/1 66/66/1 8/8/1
f 66/66/1 41/41/1 42/42/1
f 63/63/1 64/64/1 65/65/1
f 66/66/1 63/63/1 65/65/1
f 66/66/1 42/42/1 63/63/1
f 63/63/1 42/42/1 43/43/1
f 63/63/1 43/43/1 62/62/1
f 62/62/1 43/43/1 44/44/1
f 53/53/1 54/54/1 55/55/1
f 55/55/1 56/56/1 57/57/1
f 58/58/1 55/55/1 57/57/1
f 53/53/1 55/55/1 58/58/1
f 59/59/1 53/53/1 58/58/1
f 52/52/1 53/53/1 59/59/1
f 62/62/1 60/60/1 61/61/1
f 62/62/1 59/59/1 60/60/1
f 52/52/1 59/59/1 62/62/1
f 62/62/1 51/51/1 52/52/1
f 62/62/1 44/44/1 51/51/1
f 50/50/1 51/51/1 44/44/1
f 44/44/1 45/45/1 50/50/1
f 45/45/1 46/46/1 50/50/1
f 46/46/1 49/49/1 50/50/1
f 49/49/1 46/46/1 48/48/1
f 47/47/1 48/48/1 46/46/1
f 137/46/2 139/48/2 140/47/2
f 139/48/2 137/46/2 138/49/2
f 135/50/2 138/49/2 137/46/2
f 135/50/2 137/46/2 136/45/2
f 135/50/2 136/45/2 123/44/2
f 123/44/2 134/51/2 135/50/2
f 134/51/2 123/44/2 122/62/2
f 131/52/2 134/51/2 122/62/2
f 122/62/2 130/59/2 131/52/2
f 133/60/2 130/59/2 122/62/2
f 132/61/2 133/60/2 122/62/2
f 130/59/2 126/53/2 131/52/2
f 129/58/2 126/53/2 130/59/2
f 129/58/2 124/55/2 126/53/2
f 127/57/2 124/55/2 129/58/2
f 127/57/2 128/56/2 124/55/2
f 124/55/2 125/54/2 126/53/2
f 123/44/2 121/43/2 122/62/2
f 122/62/2 121/43/2 120/63/2
f 121/43/2 117/42/2 120/63/2
f 120/63/2 117/42/2 116/66/2
f 118/65/2 120/63/2 116/66/2
f 118/65/2 119/64/2 120/63/2
f 117/42/2 104/41/2 116/66/2
f 103/8/2 116/66/2 104/41/2
f 116/66/2 103/8/2 114/68/2
f 114/68/2 115/67/2 116/66/2
f 110/2/2 114/68/2 103/8/2
f 113/69/2 114/68/2 110/2/2
f 111/1/2 113/69/2 110/2/2
f 111/1/2 112/70/2 113/69/2
f 107/3/2 110/2/2 103/8/2
f 107/3/2 103/8/2 109/7/2
f 108/6/2 107/3/2 109/7/2
f 107/3/2 108/6/2 105/5/2
f 105/5/2 106/4/2 107/3/2
f 84/40/2 103/8/2 104/41/2
f 103/8/2 84/40/2 102/9/2
f 84/40/2 74/10/2 102/9/2
f 84/40/2 76/15/2 74/10/2
f 76/15/2 84/40/2 101/16/2
f 84/40/2 100/17/2 101/16/2
f 84/40/2 99/18/2 100/17/2
f 83/33/2 99/18/2 84/40/2
f 86/31/2 99/18/2 83/33/2
f 86/31/2 98/19/2 99/18/2
f 86/31/2 92/30/2 98/19/2
f 98/19/2 92/30/2 89/20/2
f 92/30/2 87/22/2 89/20/2
f 92/30/2 97/23/2 87/22/2
f 92/30/2 95/24/2 97/23/2
f 94/26/2 95/24/2 92/30/2
f 95/24/2 94/26/2 96/25/2
f 94/26/2 92/30/2 93/27/2
f 91/28/2 93/27/2 92/30/2
f 90/29/2 91/28/2 92/30/2
f 87/22/2 88/21/2 89/20/2
f 85/32/2 86/31/2 83/33/2
f 84/40/2 82/39/2 83/33/2
f 80/34/2 83/33/2 82/39/2
f 81/38/2 80/34/2 82/39/2
f 78/37/2 80/34/2 81/38/2
f 80/34/2 78/37/2 77/35/2
f 77/35/2 78/37/2 79/36/2
f 74/10/2 76/15/2 75/14/2
f 74/10/2 75/14/2 71/13/2
f 73/11/2 74/10/2 71/13/2
f 71/13/2 72/12/2 73/11/2
f 12/72/3 72/71/3 71/71/3
f 71/71/3 13/72/3 12/72/3
f 11/74/4 73/73/4 72/71/4
f 72/71/4 12/72/4 11/74/4
f 10/76/5 74/75/5 73/73/5
f 73/73/5 11/74/5 10/76/5
f 13/72/6 71/71/6 75/77/6
f 75/77/6 14/78/6 13/72/6
f 14/78/7 75/77/7 76/79/7
f 76/79/7 15/80/7 14/78/7
f 36/84/8 79/82/8 78/81/8
f 78/81/8 37/83/8 36/84/8
f 35/86/9 77/85/9 79/82/9
f 79/82/9 36/84/9 35/86/9
f 34/88/10 80/87/10 77/85/10
f 77/85/10 35/86/10 34/88/10
f 37/83/11 78/81/11 81/89/11
f 81/89/11 38/90/11 37/83/11
f 38/90/12 81/89/12 82/91/12
f 82/91/12 39/92/12 38/90/12
f 33/94/13 83/93/13 80/87/13
f 80/87/13 34/88/13 33/94/13
f 39/92/14 82/91/14 84/95/14
f 84/95/14 40/96/14 39/92/14
f 31/98/15 86/97/15 85/93/15
f 85/93/15 32/94/15 31/98/15
f 32/94/16 85/93/16 83/93/16
f 83/93/16 33/94/16 32/94/16
f 21/102/17 88/100/17 87/99/17
f 87/99/17 22/101/17 21/102/17
f 20/104/18 89/103/18 88/100/18
f 88/100/18 21/102/18 20/104/18
f 28/108/19 91/106/19 90/105/19
f 90/105/19 29/107/19 28/108/19
f 29/107/20 90/105/20 92/109/20
f 92/109/20 30/110/20 29/107/20
f 27/112/21 93/111/21 91/106/21
f 91/106/21 28/108/21 27/112/21
f 26/114/22 94/113/22 93/111/22
f 93/111/22 27/112/22 26/114/22
f 25/116/23 96/115/23 94/113/23
f 94/113/23 26/114/23 25/116/23
f 24/118/24 95/117/24 96/115/24
f 96/115/24 25/116/24 24/118/24
f 23/120/25 97/119/25 95/117/25
f 95/117/25 24/118/25 23/120/25
f 22/101/26 87/99/26 97/119/26
f 97/119/26 23/120/26 22/101/26
f 19/122/27 98/121/27 89/103/27
f 89/103/27 20/104/27 19/122/27
f 30/110/28 92/109/28 86/97/28
f 86/97/28 31/98/28 30/110/28
f 18/124/29 99/123/29 98/121/29
f 98/121/29 19/122/29 18/124/29
f 17/126/30 100/125/30 99/123/30
f 99/123/30 18/124/30 17/126/30
f 16/128/31 101/127/31 100/125/31
f 100/125/31 17/126/31 16/128/31
f 15/80/32 76/79/32 101/127/32
f 101/127/32 16/128/32 15/80/32
f 9/130/33 102/129/33 74/75/33
f 74/75/33 10/76/33 9/130/33
f 8/80/34 103/79/34 102/129/34
f 102/129/34 9/130/34 8/80/34
f 40/96/13 84/95/13 104/131/13
f 104/131/13 41/132/13 40/96/13
f 4/80/35 106/79/35 105/133/35
f 105/133/35 5/134/35 4/80/35
f 3/128/36 107/127/36 106/79/36
f 106/79/36 4/80/36 3/128/36
f 5/134/3 105/133/3 108/133/3
f 108/133/3 6/134/3 5/134/3
f 6/134/37 108/133/37 109/79/37
f 109/79/37 7/80/37 6/134/37
f 7/80/3 109/79/3 103/79/3
f 103/79/3 8/80/3 7/80/3
f 2/136/38 110/135/38 107/127/38
f 107/127/38 3/128/38 2/136/38
f 70/140/39 112/138/39 111/137/39
f 111/137/39 1/139/39 70/140/39
f 69/142/40 113/141/40 112/138/40
f 112/138/40 70/140/40 69/142/40
f 1/139/41 111/137/41 110/135/41
f 110/135/41 2/136/41 1/139/41
f 68/144/42 114/143/42 113/141/42
f 113/141/42 69/142/42 68/144/42
f 67/146/43 115/145/43 114/143/43
f 114/143/43 68/144/43 67/146/43
f 66/148/44 116/147/44 115/145/44
f 115/145/44 67/146/44 66/148/44
f 41/132/45 104/131/45 117/149/45
f 117/149/45 42/150/45 41/132/45
f 64/154/46 119/152/46 118/151/46
f 118/151/46 65/153/46 64/154/46
f 63/156/47 120/155/47 119/152/47
f 119/152/47 64/154/47 63/156/47
f 65/153/48 118/151/48 116/147/48
f 116/147/48 66/148/48 65/153/48
f 42/150/49 117/149/49 121/157/49
f 121/157/49 43/158/49 42/150/49
f 62/160/50 122/159/50 120/155/50
f 120/155/50 63/156/50 62/160/50
f 43/158/10 121/157/10 123/161/10
f 123/161/10 44/162/10 43/158/10
f 54/166/51 125/164/51 124/163/51
f 124/163/51 55/165/51 54/166/51
f 53/168/52 126/167/52 125/164/52
f 125/164/52 54/166/52 53/168/52
f 56/172/53 128/170/53 127/169/53
f 127/169/53 57/171/53 56/172/53
f 55/165/54 124/163/54 128/170/54
f 128/170/54 56/172/54 55/165/54
f 57/171/55 127/169/55 129/173/55
f 129/173/55 58/174/55 57/171/55
f 58/174/56 129/173/56 130/175/56
f 130/175/56 59/176/56 58/174/56
f 52/178/57 131/177/57 126/167/57
f 126/167/57 53/168/57 52/178/57
f 60/182/58 133/180/58 132/179/58
f 132/179/58 61/181/58 60/182/58
f 61/181/59 132/179/59 122/159/59
f 122/159/59 62/160/59 61/181/59
f 59/176/60 130/175/60 133/180/60
f 133/180/60 60/182/60 59/176/60
f 51/178/61 134/177/61 131/177/61
f 131/177/61 52/178/61 51/178/61
f 50/184/62 135/183/62 134/177/62
f 134/177/62 51/178/62 50/184/62
f 44/162/63 123/161/63 136/185/63
f 136/185/63 45/186/63 44/162/63
f 45/186/64 136/185/64 137/187/64
f 137/187/64 46/188/64 45/186/64
f 49/190/65 138/189/65 135/183/65
f 135/183/65 50/184/65 49/190/65
f 48/192/66 139/191/66 138/189/66
f 138/189/66 49/190/66 48/192/66
f 47/190/67 140/189/67 139/191/67
f 139/191/67 48/192/67 47/190/67
f 46/188/68 137/187/68 140/189/68
f 140/189/68 47/190/68 46/188/68

