# ProBuilder 5.0.0
# https://unity3d.com/unity/features/worldbuilding/probuilder
# 03/12/2020 16:47:57

mtllib ./gameboy.mtl
o gameboy

g gameboy
v 0.3521554 0.3615243 -0.09388018
v 0.01870216 0.3492217 -0.09388019
v -0.2680828 0.3441302 -0.0938802
v -0.254452 0.173691 -0.09388029
v -0.2357833 -0.08427609 -0.09388041
v -0.2239036 -0.4271011 -0.09388086
v 0.312397 -0.3880664 -0.09388062
v 0.3412485 0.0005814761 -0.0938804
v 0.312397 -0.3880664 -4.494139E-07
v -0.2357833 -0.08427613 -2.343853E-07
v -0.2239036 -0.4271011 -6.924858E-07
v 0.3412485 0.0005814277 -2.242695E-07
v 0.3521554 0.3615243 -6.153095E-09
v 0.01870216 0.3492216 -2.252084E-08
v -0.254452 0.1736909 -1.142263E-07
v -0.2680828 0.3441302 -2.685309E-08

vt 0.4073837 0.3808992
vt 0.4490654 0.3793614
vt 0.4849135 0.378725
vt 0.4832097 0.3574201
vt 0.4808761 0.3251742
vt 0.4793911 0.2823211
vt 0.4123535 0.2872004
vt 0.4087471 0.3357814
vt 0.1865983 0.1129326
vt 0.7347785 0.4167229
vt 0.7228988 0.0738979
vt 0.1577468 0.5015804
vt 0.1468399 0.8625232
vt 0.4802931 0.8502206
vt 0.7534472 0.6746899
vt 0.767078 0.8451291
vt 0.3906741 0.1830113
vt 0.3568757 0.1830113
vt 0.3906741 0.1947463
vt 0.3568757 0.1947463
vt 0.4002223 0.1830113
vt 0.4002223 0.1947463
vt 0.4416472 0.1830112
vt 0.4416472 0.1947463
vt 0.4789519 0.1830112
vt 0.4532109 0.1830112
vt 0.4789519 0.1947463
vt 0.4532109 0.1947463
vt 0.4153918 0.1830113
vt 0.4153918 0.1947463
vt 0.4316275 0.1830113
vt 0.4316275 0.1947463

vn 2.643904E-08 3.753998E-07 -1
vn -1.43338E-07 -7.280497E-07 1
vn -0.9994004 -0.03463172 -2.611615E-08
vn 0.07259317 -0.9973618 -7.521211E-07
vn 0.9972561 -0.07403202 2.331658E-08
vn -0.03686948 0.9993201 7.110175E-07
vn 0.999544 -0.03020397 5.654934E-08
vn -0.9973918 -0.07217982 -5.443157E-08
vn -0.01775089 0.9998426 7.143169E-07
vn -0.9968175 -0.07971974 -5.695412E-08

usemtl gamboy
f 6/6/1 5/5/1 7/7/1
f 7/7/1 5/5/1 8/8/1
f 8/8/1 2/2/1 1/1/1
f 5/5/1 2/2/1 8/8/1
f 5/5/1 4/4/1 2/2/1
f 4/4/1 3/3/1 2/2/1
f 14/14/2 16/16/2 15/15/2
f 14/14/2 15/15/2 10/10/2
f 12/12/2 14/14/2 10/10/2
f 13/13/2 14/14/2 12/12/2
f 12/12/2 10/10/2 9/9/2
f 9/9/2 10/10/2 11/11/2
f 6/20/3 11/18/3 10/17/3
f 10/17/3 5/19/3 6/20/3
f 7/22/4 9/21/4 11/18/4
f 11/18/4 6/20/4 7/22/4
f 8/24/5 12/23/5 9/21/5
f 9/21/5 7/22/5 8/24/5
f 2/28/6 14/26/6 13/25/6
f 13/25/6 1/27/6 2/28/6
f 1/27/7 13/25/7 12/23/7
f 12/23/7 8/24/7 1/27/7
f 5/19/8 10/17/8 15/29/8
f 15/29/8 4/30/8 5/19/8
f 3/32/9 16/31/9 14/26/9
f 14/26/9 2/28/9 3/32/9
f 4/30/10 15/29/10 16/31/10
f 16/31/10 3/32/10 4/30/10

