# ProBuilder 5.0.0
# https://unity3d.com/unity/features/worldbuilding/probuilder
# 03/12/2020 17:20:52

mtllib ./hamster.mtl
o hamster

g hamster
v 0.3305921 -0.3109366 -1.45538E-07
v 0.2774929 -0.3833446 -2.137743E-07
v 0.3161105 -0.3511633 -2.09938E-07
v 0.2437026 -0.3962171 -2.153088E-07
v 0.1922124 -0.4026533 -2.160761E-07
v 0.1294589 -0.4058715 -2.164597E-07
v 0.06670535 -0.4251803 -2.187615E-07
v 0.1053229 -0.4155259 -2.176106E-07
v -0.06362889 -0.4364437 -2.201042E-07
v 0.01038807 -0.4380528 -2.20296E-07
v -0.163391 -0.4074806 -2.166516E-07
v -0.1231644 -0.4267893 -2.189533E-07
v -0.2052266 -0.3897809 -2.145416E-07
v -0.2438442 -0.3720812 -2.124316E-07
v 0.3482918 -0.2594466 -1.393999E-07
v 0.3563371 -0.1966931 -1.319191E-07
v 0.3547281 -0.1226761 -1.230956E-07
v 0.3418555 -0.04383191 -1.136966E-07
v 0.3080651 0.06880262 -7.04672E-08
v 0.156813 0.4581963 1.320504E-08
v 0.1342861 0.4694597 1.454775E-08
v 0.1053229 0.4598053 1.339686E-08
v 0.1712946 0.4244059 3.58898E-09
v 0.07475069 0.426015 3.780795E-09
v 0.1841671 0.376134 -7.753415E-09
v 0.0602691 0.4099244 0
v 0.1825582 0.2988988 -5.793876E-08
v 0.01521528 0.4163606 1.698585E-09
v -0.2470623 0.3149895 -2.621827E-08
v -0.263153 0.2924626 -2.890369E-08
v -0.2792436 0.2409725 -3.504179E-08
v -0.2663711 0.45176 8.712491E-09
v -0.2695892 0.4276241 3.972616E-09
v -0.2486714 0.4565872 9.287938E-09
v -0.2148811 0.4453238 7.945229E-09
v -0.263153 0.3648706 -9.09612E-09
v -0.165 0.4099244 0
v -0.2551077 0.3310802 -1.684954E-08
v -0.1312096 0.4147515 1.041102E-09
v -0.05397448 0.4211878 2.274032E-09
v -0.2888981 0.1830462 -5.684831E-08
v 0.2227847 0.2329272 -3.600086E-08
v 0.2694476 0.154083 -6.030098E-08
v -0.338779 -0.1516393 -1.265482E-07
v -0.3468244 -0.1918658 -1.313436E-07
v -0.3436063 -0.2353106 -1.365226E-07
v -0.3355609 -0.2739282 -1.411262E-07
v -0.3130341 -0.3141548 -1.459216E-07
v -0.2824618 -0.3463361 -2.093626E-07
v -0.3307337 -0.1275033 -1.23671E-07
v -0.3291247 -0.09371296 -1.196429E-07
v -0.3065978 0.1412105 -6.183551E-08
v -0.3291247 -0.05509537 -1.150393E-07
v -0.3275156 0.09454762 -6.739816E-08
v -0.3452153 0.05593013 -7.200173E-08
v -0.3419971 -0.02935033 -1.119703E-07
v -0.3516515 0.01248534 -1.069831E-07
v 0.2774929 -0.3833446 -0.1587578
v 0.3161105 -0.3511634 -0.1587578
v 0.3305921 -0.3109367 -0.1587577
v 0.2437026 -0.3962171 -0.1587578
v 0.1922124 -0.4026534 -0.1587578
v 0.1294589 -0.4058715 -0.1587578
v 0.06670535 -0.4251803 -0.1587578
v 0.1053229 -0.4155259 -0.1587578
v -0.06362889 -0.4364438 -0.1587578
v 0.01038807 -0.4380528 -0.1587578
v -0.163391 -0.4074806 -0.1587578
v -0.1231644 -0.4267893 -0.1587578
v -0.2052266 -0.3897809 -0.1587578
v -0.2438442 -0.3720812 -0.1587578
v 0.3482918 -0.2594466 -0.1587577
v 0.3563371 -0.1966931 -0.1587577
v 0.3547281 -0.1226761 -0.1587577
v 0.3418555 -0.0438319 -0.1587577
v 0.3080651 0.06880262 -0.1587577
v 0.156813 0.4581963 -0.1587576
v 0.1342861 0.4694597 -0.1587576
v 0.1053229 0.4598053 -0.1587576
v 0.1712946 0.4244059 -0.1587576
v 0.07475069 0.426015 -0.1587576
v 0.1841671 0.376134 -0.1587576
v 0.0602691 0.4099244 -0.1587576
v 0.1825582 0.2988988 -0.1587577
v 0.01521528 0.4163606 -0.1587576
v -0.2470623 0.3149895 -0.1587576
v -0.263153 0.2924626 -0.1587576
v -0.2792436 0.2409725 -0.1587576
v -0.2663711 0.45176 -0.1587576
v -0.2695892 0.4276241 -0.1587576
v -0.2486714 0.4565872 -0.1587576
v -0.2148811 0.4453238 -0.1587576
v -0.263153 0.3648706 -0.1587576
v -0.165 0.4099244 -0.1587576
v -0.2551077 0.3310802 -0.1587576
v -0.1312096 0.4147515 -0.1587576
v -0.05397448 0.4211878 -0.1587576
v -0.2888981 0.1830462 -0.1587577
v 0.2227847 0.2329272 -0.1587576
v 0.2694476 0.1540831 -0.1587577
v -0.338779 -0.1516393 -0.1587577
v -0.3468244 -0.1918659 -0.1587577
v -0.3436063 -0.2353106 -0.1587577
v -0.3355609 -0.2739282 -0.1587577
v -0.3130341 -0.3141548 -0.1587577
v -0.2824618 -0.3463362 -0.1587578
v -0.3307337 -0.1275033 -0.1587577
v -0.3291247 -0.09371298 -0.1587577
v -0.3065978 0.1412105 -0.1587577
v -0.3291247 -0.05509536 -0.1587577
v -0.3275156 0.09454763 -0.1587577
v -0.3452153 0.05593014 -0.1587577
v -0.3419971 -0.02935032 -0.1587577
v -0.3516515 0.01248535 -0.1587577

vt 0.5292525 0.1270683
vt 0.5358899 0.1180173
vt 0.5310627 0.12204
vt 0.5401137 0.1164082
vt 0.54655 0.1156037
vt 0.5543942 0.1152014
vt 0.5622384 0.1127878
vt 0.5574112 0.1139946
vt 0.5785301 0.1113799
vt 0.5692781 0.1111788
vt 0.5910004 0.1150003
vt 0.5859721 0.1125867
vt 0.5962299 0.1172128
vt 0.6010571 0.1194252
vt 0.5270401 0.1335045
vt 0.5260344 0.1413487
vt 0.5262356 0.1506009
vt 0.5278446 0.1604564
vt 0.5320684 0.1745357
vt 0.5509749 0.2232099
vt 0.5537908 0.2246178
vt 0.5574112 0.223411
vt 0.5491647 0.2189861
vt 0.5612327 0.2191872
vt 0.5475557 0.2129521
vt 0.5630429 0.2171759
vt 0.5477568 0.2032977
vt 0.5686746 0.2179804
vt 0.6014593 0.205309
vt 0.6034707 0.2024932
vt 0.605482 0.1960569
vt 0.603873 0.2224054
vt 0.6042752 0.2193884
vt 0.6016605 0.2230088
vt 0.5974367 0.2216008
vt 0.6034707 0.2115442
vt 0.5912015 0.2171759
vt 0.602465 0.2073204
vt 0.5869777 0.2177793
vt 0.5773234 0.2185838
vt 0.6066888 0.1888161
vt 0.5427285 0.1950513
vt 0.5368956 0.1851957
vt 0.6129239 0.1469805
vt 0.6139296 0.1419521
vt 0.6135273 0.1365215
vt 0.6125216 0.1316943
vt 0.6097058 0.126666
vt 0.6058843 0.1226434
vt 0.6119183 0.1499974
vt 0.6117171 0.1542212
vt 0.6089013 0.1835867
vt 0.6117171 0.1590484
vt 0.611516 0.1777538
vt 0.6137285 0.1729266
vt 0.6133262 0.1622666
vt 0.614533 0.167496
vt 0.4563083 0.7601153
vt 0.4582417 0.7601153
vt 0.4563083 0.7700377
vt 0.4582417 0.7700377
vt 0.4607258 0.7601153
vt 0.4607258 0.7700377
vt 0.4555715 0.7601153
vt 0.4555715 0.7700377
vt 0.455272 0.7601153
vt 0.455272 0.7700377
vt 0.4541147 0.7601153
vt 0.4546409 0.7601153
vt 0.4541147 0.7700377
vt 0.4546409 0.7700377
vt 0.4536707 0.7601153
vt 0.4534227 0.7601153
vt 0.4536707 0.7700377
vt 0.4534227 0.7700377
vt 0.4568676 0.7601153
vt 0.4568676 0.7700377
vt 0.463907 0.7601153
vt 0.463907 0.7700377
vt 0.4678111 0.7601153
vt 0.4678111 0.7700377
vt 0.472438 0.7601153
vt 0.472438 0.7700377
vt 0.4773889 0.7601153
vt 0.4773889 0.7700377
vt 0.4844923 0.7601153
vt 0.4844923 0.7700377
vt 0.5091183 0.7601153
vt 0.5098667 0.7601153
vt 0.5091183 0.7700377
vt 0.5098667 0.7700377
vt 0.5069786 0.7601153
vt 0.5069786 0.7700377
vt 0.5072713 0.7601153
vt 0.5072713 0.7700377
vt 0.5039375 0.7601153
vt 0.5039375 0.7700377
vt 0.506295 0.7601153
vt 0.5062951 0.7700377
vt 0.4991159 0.7601153
vt 0.4991159 0.7700377
vt 0.5009767 0.7601153
vt 0.4996015 0.7601153
vt 0.5009767 0.7700377
vt 0.4996015 0.7700377
vt 0.496417 0.7601153
vt 0.496417 0.7700377
vt 0.5080577 0.7601153
vt 0.5080577 0.7700377
vt 0.5041247 0.7601153
vt 0.5041247 0.7700377
vt 0.5019979 0.7601153
vt 0.5019979 0.7700377
vt 0.4928177 0.7601153
vt 0.4928177 0.7700377
vt 0.4949147 0.7601153
vt 0.4949147 0.7700377
vt 0.4898965 0.7601153
vt 0.4898965 0.7700377
vt 0.469513 0.7601153
vt 0.469513 0.7700377
vt 0.4667926 0.7601153
vt 0.4667926 0.7700377
vt 0.4643643 0.7601153
vt 0.4643643 0.7700377
vt 0.4618065 0.7601153
vt 0.4618065 0.7700377
vt 0.4597353 0.7601153
vt 0.4597353 0.7700377
vt 0.4735016 0.7601153
vt 0.4735016 0.7700377
vt 0.4756092 0.7601153
vt 0.4756092 0.7700377
vt 0.4902396 0.7601153
vt 0.4902396 0.7700377
vt 0.4780216 0.7601153
vt 0.4780216 0.7700377
vt 0.4873663 0.7601153
vt 0.4873663 0.7700377
vt 0.4849892 0.7601153
vt 0.4849892 0.7700377
vt 0.4796554 0.7601153
vt 0.4796554 0.7700377
vt 0.4822881 0.7601153
vt 0.4822881 0.7700377
vt 0.2331654 0.1116304
vt 0.1945478 0.1438116
vt 0.1800662 0.1840383
vt 0.1623665 0.2355284
vt 0.1543212 0.2982818
vt 0.1559302 0.3722989
vt 0.1688028 0.451143
vt 0.2025931 0.5637776
vt 0.2412107 0.649058
vt 0.2878736 0.7279021
vt 0.8526553 0.4656246
vt 0.8397828 0.4398796
vt 0.8397828 0.401262
vt 0.8413919 0.3674716
vt 0.8494371 0.3433357
vt 0.8574826 0.3031091
vt 0.8542644 0.2596644
vt 0.846219 0.2210468
vt 0.8236922 0.1808202
vt 0.7931199 0.1486388
vt 0.7545023 0.1228938
vt 0.7158848 0.1051941
vt 0.6740491 0.08749437
vt 0.6338225 0.06818569
vt 0.5742871 0.05853122
vt 0.5002701 0.0569222
vt 0.4439529 0.06979465
vt 0.4053353 0.07944906
vt 0.3811994 0.08910346
vt 0.3184458 0.09232163
vt 0.2669557 0.09875786
vt 0.3281001 0.7938737
vt 0.3264912 0.8711089
vt 0.3393636 0.9193808
vt 0.3538452 0.9531711
vt 0.3763722 0.9644346
vt 0.4053353 0.9547802
vt 0.4359075 0.9209899
vt 0.4503891 0.9048992
vt 0.4954429 0.9113355
vt 0.5646327 0.9161627
vt 0.6418678 0.9097264
vt 0.6756582 0.9048992
vt 0.7255392 0.9402987
vt 0.7593296 0.9515621
vt 0.7770293 0.9467349
vt 0.7802474 0.922599
vt 0.7738111 0.8598455
vt 0.7657658 0.8260551
vt 0.7577205 0.8099644
vt 0.7738111 0.7874375
vt 0.7899018 0.7359474
vt 0.7995562 0.6780211
vt 0.8172559 0.6361854
vt 0.8381737 0.5895225
vt 0.8558734 0.550905
vt 0.8623097 0.5074602

vn 2.728079E-07 -5.405E-07 1
vn 0.6401842 -0.7682217 -9.157915E-08
vn 0.9408877 -0.3387194 -4.037849E-08
vn 0.3559957 -0.9344878 -1.113996E-07
vn 0.124034 -0.9922781 -1.182888E-07
vn 0.05121547 -0.9986877 -1.190528E-07
vn 0.2425361 -0.9701425 -1.1565E-07
vn 0.3713916 -0.9284765 -1.10683E-07
vn -0.02173351 -0.9997639 -1.191811E-07
vn 0.2228239 -0.9748589 -1.162122E-07
vn -0.4327295 -0.9015239 -1.049315E-07
vn -0.1600723 -0.9871054 -1.176721E-07
vn -0.3896404 -0.9209672 -1.097878E-07
vn -0.4166552 -0.9090648 -1.08369E-07
vn 0.945687 -0.3250794 -3.875249E-08
vn 0.9918819 -0.1271644 -1.515918E-08
vn 0.999764 0.02173347 2.590832E-09
vn 0.986933 0.1611327 1.920851E-08
vn 0.9578265 0.2873479 8.819612E-08
vn 0.4472137 0.8944273 2.325519E-07
vn -0.3162284 0.9486832 2.466585E-07
vn 0.919145 0.3939199 1.001087E-07
vn -0.741536 0.6709133 1.744381E-07
vn 0.9662354 0.2576618 6.69923E-08
vn -0.7432933 0.6689659 1.66083E-07
vn 0.9997833 -0.02082678 -5.414982E-09
vn 0.1414214 0.9899496 2.492441E-07
vn -0.8137333 0.5812387 1.511226E-07
vn -0.9544802 0.2982751 7.755181E-08
vn -0.9912282 0.1321633 3.436257E-08
vn -0.2631176 0.9647639 2.508395E-07
vn 0.3162282 0.9486833 2.466585E-07
vn -0.9947817 -0.1020289 -2.533054E-08
vn 0.5787467 0.8155076 2.019891E-07
vn -0.9728066 -0.23162 -6.022141E-08
vn -0.8944265 -0.4472155 -1.162764E-07
vn -0.1414199 0.9899498 2.486768E-07
vn -0.08304623 0.9965458 2.532568E-07
vn 0.06959842 0.9975752 2.505923E-07
vn -0.9863942 0.1643993 3.502862E-08
vn 0.8537969 0.5206067 1.109259E-07
vn 0.8605767 0.5093212 1.563267E-07
vn 0.9109545 0.4125074 1.266115E-07
vn -0.9805806 0.1961176 2.337903E-08
vn -0.997268 -0.07387201 -8.80623E-09
vn -0.9789804 -0.2039556 -2.431339E-08
vn -0.872507 -0.488602 -5.824589E-08
vn -0.7249998 -0.6887493 -8.21053E-08
vn -0.9486839 0.3162268 3.769716E-08
vn -0.9988685 0.04756407 5.670078E-09
vn -0.5546997 -0.8320508 -9.918817E-08
vn -0.9209676 0.3896398 8.302069E-08
vn -1 0 0
vn -0.9125097 0.4090557 1.255521E-07
vn -0.909065 0.4166549 1.278845E-07
vn -0.9892038 0.1465486 4.498036E-08
vn -0.9743913 -0.2248599 -6.901659E-08
vn -1.099555E-06 1.510309E-06 -1

usemtl hamster
f 56/56/1 55/55/1 57/57/1
f 55/55/1 56/56/1 53/53/1
f 55/55/1 53/53/1 54/54/1
f 53/53/1 52/52/1 54/54/1
f 53/53/1 51/51/1 52/52/1
f 41/41/1 52/52/1 51/51/1
f 51/51/1 14/14/1 41/41/1
f 49/49/1 14/14/1 51/51/1
f 50/50/1 49/49/1 51/51/1
f 50/50/1 44/44/1 49/49/1
f 49/49/1 44/44/1 46/46/1
f 48/48/1 49/49/1 46/46/1
f 46/46/1 47/47/1 48/48/1
f 44/44/1 45/45/1 46/46/1
f 41/41/1 14/14/1 19/19/1
f 43/43/1 41/41/1 19/19/1
f 41/41/1 43/43/1 42/42/1
f 41/41/1 42/42/1 27/27/1
f 41/41/1 27/27/1 28/28/1
f 41/41/1 28/28/1 31/31/1
f 28/28/1 29/29/1 31/31/1
f 40/40/1 29/29/1 28/28/1
f 40/40/1 39/39/1 29/29/1
f 39/39/1 37/37/1 29/29/1
f 37/37/1 38/38/1 29/29/1
f 37/37/1 36/36/1 38/38/1
f 37/37/1 35/35/1 36/36/1
f 35/35/1 33/33/1 36/36/1
f 35/35/1 34/34/1 33/33/1
f 32/32/1 33/33/1 34/34/1
f 29/29/1 30/30/1 31/31/1
f 26/26/1 28/28/1 27/27/1
f 25/25/1 26/26/1 27/27/1
f 24/24/1 26/26/1 25/25/1
f 24/24/1 25/25/1 23/23/1
f 22/22/1 24/24/1 23/23/1
f 20/20/1 22/22/1 23/23/1
f 20/20/1 21/21/1 22/22/1
f 14/14/1 18/18/1 19/19/1
f 14/14/1 17/17/1 18/18/1
f 1/1/1 17/17/1 14/14/1
f 17/17/1 1/1/1 16/16/1
f 1/1/1 15/15/1 16/16/1
f 14/14/1 6/6/1 1/1/1
f 14/14/1 13/13/1 6/6/1
f 6/6/1 13/13/1 11/11/1
f 11/11/1 7/7/1 6/6/1
f 11/11/1 9/9/1 7/7/1
f 11/11/1 12/12/1 9/9/1
f 7/7/1 9/9/1 10/10/1
f 6/6/1 7/7/1 8/8/1
f 1/1/1 6/6/1 5/5/1
f 1/1/1 5/5/1 4/4/1
f 1/1/1 4/4/1 2/2/1
f 1/1/1 2/2/1 3/3/1
f 73/150/58 72/149/58 60/148/58
f 73/150/58 60/148/58 74/151/58
f 59/147/58 58/146/58 60/148/58
f 58/146/58 61/176/58 60/148/58
f 61/176/58 62/175/58 60/148/58
f 62/175/58 63/174/58 60/148/58
f 65/173/58 64/172/58 63/174/58
f 67/171/58 66/170/58 64/172/58
f 66/170/58 69/169/58 68/168/58
f 64/172/58 66/170/58 68/168/58
f 63/174/58 64/172/58 68/168/58
f 68/168/58 70/167/58 63/174/58
f 70/167/58 71/166/58 63/174/58
f 60/148/58 63/174/58 71/166/58
f 74/151/58 60/148/58 71/166/58
f 74/151/58 71/166/58 106/165/58
f 106/165/58 75/152/58 74/151/58
f 105/164/58 75/152/58 106/165/58
f 110/157/58 113/156/58 99/155/58
f 99/155/58 100/154/58 110/157/58
f 100/154/58 108/158/58 110/157/58
f 76/153/58 108/158/58 100/154/58
f 76/153/58 75/152/58 108/158/58
f 75/152/58 107/159/58 108/158/58
f 105/164/58 107/159/58 75/152/58
f 107/159/58 105/164/58 101/160/58
f 105/164/58 104/163/58 103/162/58
f 101/160/58 105/164/58 103/162/58
f 103/162/58 102/161/58 101/160/58
f 78/181/58 77/180/58 79/182/58
f 79/182/58 77/180/58 81/183/58
f 80/179/58 81/183/58 77/180/58
f 80/179/58 82/178/58 81/183/58
f 82/178/58 83/184/58 81/183/58
f 84/177/58 83/184/58 82/178/58
f 85/185/58 83/184/58 84/177/58
f 86/195/58 88/197/58 87/196/58
f 91/190/58 90/192/58 89/191/58
f 90/192/58 91/190/58 92/189/58
f 93/193/58 90/192/58 92/189/58
f 93/193/58 92/189/58 94/188/58
f 95/194/58 93/193/58 94/188/58
f 86/195/58 95/194/58 94/188/58
f 86/195/58 94/188/58 96/187/58
f 86/195/58 96/187/58 97/186/58
f 85/185/58 86/195/58 97/186/58
f 88/197/58 86/195/58 85/185/58
f 88/197/58 85/185/58 98/198/58
f 85/185/58 84/177/58 98/198/58
f 98/198/58 84/177/58 109/199/58
f 99/155/58 113/156/58 84/177/58
f 109/199/58 84/177/58 113/156/58
f 113/156/58 111/200/58 109/199/58
f 113/156/58 112/201/58 111/200/58
f 114/202/58 112/201/58 113/156/58
f 59/61/2 3/59/2 2/58/2
f 2/58/2 58/60/2 59/61/2
f 60/63/3 1/62/3 3/59/3
f 3/59/3 59/61/3 60/63/3
f 58/60/4 2/58/4 4/64/4
f 4/64/4 61/65/4 58/60/4
f 61/65/5 4/64/5 5/66/5
f 5/66/5 62/67/5 61/65/5
f 62/67/6 5/66/6 6/66/6
f 6/66/6 63/67/6 62/67/6
f 65/71/7 8/69/7 7/68/7
f 7/68/7 64/70/7 65/71/7
f 63/67/8 6/66/8 8/69/8
f 8/69/8 65/71/8 63/67/8
f 67/75/9 10/73/9 9/72/9
f 9/72/9 66/74/9 67/75/9
f 64/70/10 7/68/10 10/73/10
f 10/73/10 67/75/10 64/70/10
f 69/70/11 12/68/11 11/64/11
f 11/64/11 68/65/11 69/70/11
f 66/74/12 9/72/12 12/68/12
f 12/68/12 69/70/12 66/74/12
f 68/65/13 11/64/13 13/76/13
f 13/76/13 70/77/13 68/65/13
f 70/77/14 13/76/14 14/59/14
f 14/59/14 71/61/14 70/77/14
f 72/79/15 15/78/15 1/62/15
f 1/62/15 60/63/15 72/79/15
f 73/81/16 16/80/16 15/78/16
f 15/78/16 72/79/16 73/81/16
f 74/83/17 17/82/17 16/80/17
f 16/80/17 73/81/17 74/83/17
f 75/85/18 18/84/18 17/82/18
f 17/82/18 74/83/18 75/85/18
f 76/87/19 19/86/19 18/84/19
f 18/84/19 75/85/19 76/87/19
f 78/91/20 21/89/20 20/88/20
f 20/88/20 77/90/20 78/91/20
f 79/90/21 22/88/21 21/89/21
f 21/89/21 78/91/21 79/90/21
f 77/90/22 20/88/22 23/92/22
f 23/92/22 80/93/22 77/90/22
f 81/95/23 24/94/23 22/88/23
f 22/88/23 79/90/23 81/95/23
f 80/93/24 23/92/24 25/96/24
f 25/96/24 82/97/24 80/93/24
f 83/99/25 26/98/25 24/94/25
f 24/94/25 81/95/25 83/99/25
f 82/97/26 25/96/26 27/100/26
f 27/100/26 84/101/26 82/97/26
f 85/93/27 28/92/27 26/98/27
f 26/98/27 83/99/27 85/93/27
f 87/105/28 30/103/28 29/102/28
f 29/102/28 86/104/28 87/105/28
f 88/107/29 31/106/29 30/103/29
f 30/103/29 87/105/29 88/107/29
f 90/109/30 33/108/30 32/89/30
f 32/89/30 89/91/30 90/109/30
f 89/91/31 32/89/31 34/89/31
f 34/89/31 91/91/31 89/91/31
f 91/91/32 34/89/32 35/88/32
f 35/88/32 92/90/32 91/91/32
f 93/111/33 36/110/33 33/108/33
f 33/108/33 90/109/33 93/111/33
f 92/90/34 35/88/34 37/92/34
f 37/92/34 94/93/34 92/90/34
f 95/113/35 38/112/35 36/110/35
f 36/110/35 93/111/35 95/113/35
f 86/104/36 29/102/36 38/112/36
f 38/112/36 95/113/36 86/104/36
f 94/93/37 37/92/37 39/92/37
f 39/92/37 96/93/37 94/93/37
f 96/93/38 39/92/38 40/94/38
f 40/94/38 97/95/38 96/93/38
f 97/95/39 40/94/39 28/92/39
f 28/92/39 85/93/39 97/95/39
f 98/115/40 41/114/40 31/106/40
f 31/106/40 88/107/40 98/115/40
f 84/101/41 27/100/41 42/116/41
f 42/116/41 99/117/41 84/101/41
f 99/117/42 42/116/42 43/118/42
f 43/118/42 100/119/42 99/117/42
f 100/119/43 43/118/43 19/86/43
f 19/86/43 76/87/43 100/119/43
f 102/121/44 45/120/44 44/82/44
f 44/82/44 101/83/44 102/121/44
f 103/123/45 46/122/45 45/120/45
f 45/120/45 102/121/45 103/123/45
f 104/125/46 47/124/46 46/122/46
f 46/122/46 103/123/46 104/125/46
f 105/127/47 48/126/47 47/124/47
f 47/124/47 104/125/47 105/127/47
f 106/129/48 49/128/48 48/126/48
f 48/126/48 105/127/48 106/129/48
f 101/83/49 44/82/49 50/130/49
f 50/130/49 107/131/49 101/83/49
f 107/131/50 50/130/50 51/132/50
f 51/132/50 108/133/50 107/131/50
f 71/61/51 14/59/51 49/128/51
f 49/128/51 106/129/51 71/61/51
f 109/135/52 52/134/52 41/114/52
f 41/114/52 98/115/52 109/135/52
f 108/133/53 51/132/53 53/136/53
f 53/136/53 110/137/53 108/133/53
f 111/139/54 54/138/54 52/134/54
f 52/134/54 109/135/54 111/139/54
f 112/141/55 55/140/55 54/138/55
f 54/138/55 111/139/55 112/141/55
f 110/137/36 53/136/36 56/142/36
f 56/142/36 113/143/36 110/137/36
f 114/145/56 57/144/56 55/140/56
f 55/140/56 112/141/56 114/145/56
f 113/143/57 56/142/57 57/144/57
f 57/144/57 114/145/57 113/143/57

