# ProBuilder 5.0.0
# https://unity3d.com/unity/features/worldbuilding/probuilder
# 03/12/2020 18:11:10

mtllib ./icecream.mtl
o icecream

g icecream
v -0.1952177 0.001209633 -0.1047077
v -0.003964377 -0.4680841 -0.1047079
v 0.1760388 0.01406703 -0.1047078
v 0.2017535 0.004423962 -0.1047078
v 0.225861 -0.0003975023 -0.1047078
v 0.235504 0.01888849 -0.1047078
v 0.2290754 0.03978173 -0.1047078
v 0.2097913 0.05581564 -0.1047078
v 0.2306883 0.08173978 -0.1047078
v 0.246754 0.1301368 -0.1047077
v 0.2451493 0.1678943 -0.1047077
v 0.2371162 0.2092386 -0.1047077
v 0.2162276 0.2408455 -0.1047076
v 0.1744179 0.2754698 -0.1047076
v 0.1310359 0.2933219 -0.1047076
v 0.1294594 0.3483505 -0.1047076
v 0.1102327 0.3958324 -0.1047075
v 0.07570549 0.4304799 -0.1047077
v 0.04241209 0.4526978 -0.1047077
v -0.006656406 0.4587691 -0.1047077
v -0.05221488 0.455495 -0.1047077
v -0.09602267 0.4302369 -0.1047077
v -0.129315 0.3901911 -0.1047077
v -0.1485926 0.3500624 -0.1047077
v -0.1503468 0.3078848 -0.1047077
v -0.1468383 0.2840334 -0.1047077
v -0.1941533 0.2642859 -0.1047077
v -0.2256953 0.2334257 -0.1047077
v -0.2484729 0.1878316 -0.1047077
v -0.2554829 0.136506 -0.1047077
v -0.2467223 0.08878735 -0.1047077
v -0.2151794 0.04633077 -0.1047077
v -0.2327041 0.04465231 -0.1047077
v -0.2502286 0.03382592 -0.1047078
v -0.2502232 0.004455359 -0.1047077
v -0.2292018 -0.008547843 -0.1047077
v 0.1760388 0.01406702 -4.436313E-08
v -0.1952177 0.00120963 -3.099469E-08
v -0.003964377 -0.468084 -1.91247E-07
v -0.2327041 0.04465229 -1.836534E-08
v -0.2502286 0.03382591 -8.671118E-08
v -0.2502232 0.004455357 -3.060777E-08
v -0.2292018 -0.008547845 -3.215787E-08
v -0.2151794 0.04633076 -1.816525E-08
v 0.235504 0.01888848 -4.378837E-08
v 0.2017535 0.00442396 -4.551267E-08
v 0.225861 -0.0003975048 -4.608744E-08
v 0.2290754 0.03978172 -4.12977E-08
v 0.2097913 0.05581563 -3.938631E-08
v 0.2306883 0.08173977 -6.609824E-08
v 0.246754 0.1301368 -1.702236E-08
v 0.2451493 0.1678943 1.867799E-08
v 0.2371162 0.2092386 5.340895E-08
v 0.2162276 0.2408455 1.018803E-07
v 0.1744179 0.2754698 9.110664E-08
v 0.1310359 0.2933219 1.230371E-07
v 0.07570549 0.4304798 6.488179E-08
v 0.1294594 0.3483505 1.593993E-07
v 0.1102327 0.3958324 1.799608E-07
v 0.04241209 0.4526977 6.753037E-08
v -0.006656406 0.4587691 6.825414E-08
v -0.05221488 0.455495 6.786383E-08
v -0.09602267 0.4302369 6.485283E-08
v -0.129315 0.390191 6.007899E-08
v -0.1485926 0.3500624 5.529529E-08
v -0.1503468 0.3078848 3.536616E-08
v -0.1468383 0.2840334 3.252286E-08
v -0.1941533 0.2642859 3.016876E-08
v -0.2256953 0.2334257 2.648995E-08
v -0.2484729 0.1878316 1.360412E-08
v -0.2554829 0.136506 6.416202E-11
v -0.2467223 0.08878733 -1.310403E-08

vt 0.6943787 0.497149
vt 0.5031255 0.0278554
vt 0.3231224 0.5100064
vt 0.2974077 0.5003633
vt 0.2733001 0.4955419
vt 0.2636571 0.5148278
vt 0.2700858 0.5357211
vt 0.2893698 0.551755
vt 0.2684729 0.5776792
vt 0.2524072 0.6260762
vt 0.2540119 0.6638336
vt 0.2620449 0.705178
vt 0.2829336 0.7367848
vt 0.3247432 0.7714091
vt 0.3681252 0.7892613
vt 0.3697017 0.8442899
vt 0.3889284 0.8917717
vt 0.4234557 0.9264191
vt 0.456749 0.9486371
vt 0.5058175 0.9547085
vt 0.551376 0.9514344
vt 0.5951837 0.9261762
vt 0.628476 0.8861304
vt 0.6477537 0.8460017
vt 0.6495079 0.8038241
vt 0.6459993 0.7799728
vt 0.6933144 0.7602252
vt 0.7248564 0.7293651
vt 0.7476339 0.683771
vt 0.754644 0.6324454
vt 0.7458833 0.5847267
vt 0.7143404 0.5422701
vt 0.7318652 0.5405917
vt 0.7493896 0.5297653
vt 0.7493843 0.5003948
vt 0.7283628 0.4873915
vt 0.5304227 0.8393489
vt 0.542244 0.8393489
vt 0.5304227 0.8458931
vt 0.542244 0.8458931
vt 0.5536296 0.8393489
vt 0.5536296 0.8458931
vt 0.528092 0.8393489
vt 0.5269938 0.8393489
vt 0.528092 0.8458931
vt 0.5269938 0.8458931
vt 0.5291878 0.8393489
vt 0.5291878 0.8458931
vt 0.5552341 0.8393489
vt 0.5567394 0.8393489
vt 0.5552341 0.8458931
vt 0.5567394 0.8458931
vt 0.5573475 0.8393489
vt 0.5573475 0.8458931
vt 0.5557508 0.8393489
vt 0.5557508 0.8458931
vt 0.5580819 0.8393489
vt 0.5580819 0.8458931
vt 0.5579922 0.8393489
vt 0.5579922 0.8458931
vt 0.5562052 0.8393489
vt 0.5562052 0.8458931
vt 0.5508955 0.8393489
vt 0.5508955 0.8458931
vt 0.5496241 0.8393489
vt 0.5496241 0.8458931
vt 0.5474759 0.8393489
vt 0.5474759 0.8458931
vt 0.5454014 0.8393489
vt 0.5454014 0.8458931
vt 0.539488 0.8393489
vt 0.539488 0.8458931
vt 0.536743 0.8393489
vt 0.536743 0.8458931
vt 0.534651 0.8393489
vt 0.534651 0.8458931
vt 0.5334349 0.8393489
vt 0.5334349 0.8458931
vt 0.5335259 0.8393489
vt 0.5335259 0.8458931
vt 0.5305632 0.8393489
vt 0.5305632 0.8458931
vt 0.5285832 0.8393489
vt 0.5285832 0.8458931
vt 0.5271468 0.8393489
vt 0.5271468 0.8458931

vn -4.479985E-08 4.569082E-08 -1
vn 5.529895E-08 -1.117505E-07 1
vn -0.9260516 -0.3773978 -9.869754E-08
vn 0.9368417 -0.3497542 -4.169395E-08
vn -0.5255789 0.8507451 2.830236E-07
vn -1 -0.0001806168 -6.00871E-11
vn -0.5260593 -0.8504481 -2.224103E-07
vn -0.09534083 0.9954448 3.311619E-07
vn 0.2759693 -0.9611666 -2.513655E-07
vn -0.1961146 -0.9805812 -2.634202E-07
vn 0.8944269 -0.4472147 -7.717876E-08
vn 0.9557796 0.2940847 1.377649E-07
vn 0.6393338 0.7689296 2.813948E-07
vn -0.3511245 -0.9363289 -3.239876E-07
vn 0.7785541 -0.6275778 -1.810815E-07
vn 0.949075 -0.3150509 -6.68233E-08
vn 0.9990984 0.04246164 5.818074E-08
vn 0.834268 0.5513595 2.186716E-07
vn 0.981643 0.1907291 1.071073E-07
vn 0.6378213 0.7701847 2.789153E-07
vn 0.3805491 0.9247609 2.553838E-07
vn 0.9268935 0.375325 1.641095E-07
vn 0.7083349 0.7058767 2.850565E-07
vn 0.1227966 0.992432 4.007771E-07
vn 0.555086 0.8317932 3.359057E-07
vn -0.07168132 0.9974277 4.027945E-07
vn -0.4994912 0.8663192 3.498485E-07
vn -0.7689692 0.6392862 2.58165E-07
vn 0.9995901 0.02863669 7.861592E-08
vn -0.9991365 0.04155398 1.086725E-08
vn -0.9013839 0.4330213 1.748684E-07
vn -0.9893536 -0.1455331 -3.806001E-08
vn -0.3851634 0.9228485 2.413445E-07
vn -0.6993396 0.7147899 1.869328E-07
vn -0.89458 0.4469083 1.486762E-07
vn -0.9908017 0.1353237 4.501911E-08
vn -0.9835622 -0.1805713 -5.88674E-08
vn -0.8027097 -0.5963702 -1.983988E-07

usemtl icecream
f 2/2/1 1/1/1 3/3/1
f 35/35/1 34/34/1 33/33/1
f 35/35/1 33/33/1 36/36/1
f 36/36/1 33/33/1 32/32/1
f 36/36/1 32/32/1 1/1/1
f 3/3/1 1/1/1 32/32/1
f 5/5/1 4/4/1 6/6/1
f 6/6/1 4/4/1 7/7/1
f 7/7/1 4/4/1 8/8/1
f 4/4/1 3/3/1 8/8/1
f 10/10/1 9/9/1 8/8/1
f 10/10/1 8/8/1 11/11/1
f 11/11/1 13/13/1 12/12/1
f 14/14/1 13/13/1 11/11/1
f 11/11/1 8/8/1 14/14/1
f 8/8/1 15/15/1 14/14/1
f 8/8/1 3/3/1 15/15/1
f 17/17/1 16/16/1 18/18/1
f 18/18/1 20/20/1 19/19/1
f 22/22/1 21/21/1 20/20/1
f 22/22/1 20/20/1 23/23/1
f 18/18/1 23/23/1 20/20/1
f 18/18/1 16/16/1 23/23/1
f 15/15/1 23/23/1 16/16/1
f 23/23/1 25/25/1 24/24/1
f 26/26/1 25/25/1 23/23/1
f 23/23/1 15/15/1 26/26/1
f 15/15/1 3/3/1 26/26/1
f 32/32/1 26/26/1 3/3/1
f 28/28/1 27/27/1 26/26/1
f 28/28/1 26/26/1 29/29/1
f 32/32/1 29/29/1 26/26/1
f 29/29/1 32/32/1 30/30/1
f 32/32/1 31/31/1 30/30/1
f 71/30/2 72/31/2 44/32/2
f 71/30/2 44/32/2 70/29/2
f 67/26/2 70/29/2 44/32/2
f 70/29/2 67/26/2 69/28/2
f 67/26/2 68/27/2 69/28/2
f 37/3/2 67/26/2 44/32/2
f 67/26/2 37/3/2 56/15/2
f 67/26/2 56/15/2 64/23/2
f 64/23/2 66/25/2 67/26/2
f 65/24/2 66/25/2 64/23/2
f 58/16/2 64/23/2 56/15/2
f 64/23/2 58/16/2 57/18/2
f 61/20/2 64/23/2 57/18/2
f 64/23/2 61/20/2 63/22/2
f 61/20/2 62/21/2 63/22/2
f 60/19/2 61/20/2 57/18/2
f 57/18/2 58/16/2 59/17/2
f 56/15/2 37/3/2 49/8/2
f 55/14/2 56/15/2 49/8/2
f 55/14/2 49/8/2 52/11/2
f 52/11/2 54/13/2 55/14/2
f 53/12/2 54/13/2 52/11/2
f 52/11/2 49/8/2 51/10/2
f 49/8/2 50/9/2 51/10/2
f 49/8/2 37/3/2 46/4/2
f 49/8/2 46/4/2 48/7/2
f 48/7/2 46/4/2 45/6/2
f 45/6/2 46/4/2 47/5/2
f 44/32/2 38/1/2 37/3/2
f 38/1/2 44/32/2 43/36/2
f 44/32/2 40/33/2 43/36/2
f 43/36/2 40/33/2 42/35/2
f 40/33/2 41/34/2 42/35/2
f 37/3/2 38/1/2 39/2/2
f 2/40/3 39/38/3 38/37/3
f 38/37/3 1/39/3 2/40/3
f 3/42/4 37/41/4 39/38/4
f 39/38/4 2/40/4 3/42/4
f 34/46/5 41/44/5 40/43/5
f 40/43/5 33/45/5 34/46/5
f 35/46/6 42/44/6 41/44/6
f 41/44/6 34/46/6 35/46/6
f 36/45/7 43/43/7 42/44/7
f 42/44/7 35/46/7 36/45/7
f 33/45/8 40/43/8 44/47/8
f 44/47/8 32/48/8 33/45/8
f 1/39/9 38/37/9 43/43/9
f 43/43/9 36/45/9 1/39/9
f 5/52/10 47/50/10 46/49/10
f 46/49/10 4/51/10 5/52/10
f 6/54/11 45/53/11 47/50/11
f 47/50/11 5/52/11 6/54/11
f 7/52/12 48/50/12 45/53/12
f 45/53/12 6/54/12 7/52/12
f 8/56/13 49/55/13 48/50/13
f 48/50/13 7/52/13 8/56/13
f 4/51/14 46/49/14 37/41/14
f 37/41/14 3/42/14 4/51/14
f 9/54/15 50/53/15 49/55/15
f 49/55/15 8/56/15 9/54/15
f 10/58/16 51/57/16 50/53/16
f 50/53/16 9/54/16 10/58/16
f 11/60/17 52/59/17 51/57/17
f 51/57/17 10/58/17 11/60/17
f 13/62/18 54/61/18 53/59/18
f 53/59/18 12/60/18 13/62/18
f 12/60/19 53/59/19 52/59/19
f 52/59/19 11/60/19 12/60/19
f 14/42/20 55/41/20 54/61/20
f 54/61/20 13/62/20 14/42/20
f 15/64/21 56/63/21 55/41/21
f 55/41/21 14/42/21 15/64/21
f 17/66/22 59/65/22 58/63/22
f 58/63/22 16/64/22 17/66/22
f 18/68/23 57/67/23 59/65/23
f 59/65/23 17/66/23 18/68/23
f 20/40/24 61/38/24 60/69/24
f 60/69/24 19/70/24 20/40/24
f 19/70/25 60/69/25 57/67/25
f 57/67/25 18/68/25 19/70/25
f 21/72/26 62/71/26 61/38/26
f 61/38/26 20/40/26 21/72/26
f 22/74/27 63/73/27 62/71/27
f 62/71/27 21/72/27 22/74/27
f 23/76/28 64/75/28 63/73/28
f 63/73/28 22/74/28 23/76/28
f 16/64/29 58/63/29 56/63/29
f 56/63/29 15/64/29 16/64/29
f 25/78/30 66/77/30 65/77/30
f 65/77/30 24/78/30 25/78/30
f 24/78/31 65/77/31 64/75/31
f 64/75/31 23/76/31 24/78/31
f 26/80/32 67/79/32 66/77/32
f 66/77/32 25/78/32 26/80/32
f 27/82/33 68/81/33 67/79/33
f 67/79/33 26/80/33 27/82/33
f 28/84/34 69/83/34 68/81/34
f 68/81/34 27/82/34 28/84/34
f 29/86/35 70/85/35 69/83/35
f 69/83/35 28/84/35 29/86/35
f 30/46/36 71/44/36 70/85/36
f 70/85/36 29/86/36 30/46/36
f 31/86/37 72/85/37 71/44/37
f 71/44/37 30/46/37 31/86/37
f 32/48/38 44/47/38 72/85/38
f 72/85/38 31/86/38 32/48/38

