# ProBuilder 5.0.0
# https://unity3d.com/unity/features/worldbuilding/probuilder
# 03/12/2020 18:03:51

mtllib ./laptop.mtl
o laptop

g laptop
v 0.09492394 0.231198 -0.1469347
v 0.1292407 0.1158293 -0.1469347
v 0.1506893 0.02752607 -0.1469347
v 0.1664257 -0.04226052 -0.1469347
v 0.1735702 -0.05793109 -0.1469347
v 0.438107 -0.1991857 -0.1469348
v 0.4309623 -0.2233836 -0.1469348
v 0.4066483 -0.2475624 -0.1469348
v 0.3065549 -0.2858953 -0.1469348
v 0.1864371 -0.3099656 -0.1469348
v 0.0463121 -0.3354395 -0.1469348
v -0.05378695 -0.352414 -0.1469348
v -0.1953589 -0.2597054 -0.1469348
v -0.2940212 -0.1755884 -0.1469348
v -0.3397726 -0.1228553 -0.1469348
v -0.3411969 -0.08583461 -0.1469347
v -0.3855302 0.09504446 -0.1469347
v -0.4169858 0.2545493 -0.1469347
v -0.4155647 0.273059 -0.1469347
v -0.2382502 0.2771333 -0.1469347
v -0.06807645 0.2612789 -0.1469347
v -0.3411969 -0.08583463 -6.759555E-08
v -0.3397726 -0.1228553 -1.316134E-07
v -0.2940212 -0.1755884 -1.080974E-07
v 0.438107 -0.1991857 -1.109104E-07
v 0.4066483 -0.2475624 -1.166773E-07
v 0.4309623 -0.2233836 -1.13795E-07
v 0.3065549 -0.2858953 -1.21247E-07
v 0.1735702 -0.0579311 -6.426919E-08
v 0.1864371 -0.3099656 -1.241164E-07
v 0.0463121 -0.3354395 -1.271531E-07
v 0.1664257 -0.04226053 -6.240111E-08
v -0.1953589 -0.2597054 -1.181249E-07
v -0.05378695 -0.352414 -1.291766E-07
v 0.1506893 0.02752607 -5.408191E-08
v 0.09492394 0.231198 0
v -0.06807645 0.2612789 7.311219E-09
v 0.1292407 0.1158293 -2.865418E-08
v -0.3855302 0.09504446 -3.113193E-08
v -0.2382502 0.2771333 9.201213E-09
v -0.4155647 0.273059 8.715511E-09
v -0.4169858 0.2545493 4.646342E-09

vt 0.6472372 0.6666291
vt 0.638658 0.6377869
vt 0.6332959 0.6157111
vt 0.6293618 0.5982645
vt 0.6275757 0.5943468
vt 0.5614415 0.5590332
vt 0.5632277 0.5529837
vt 0.5693061 0.546939
vt 0.5943295 0.5373558
vt 0.624359 0.5313382
vt 0.6593902 0.5249697
vt 0.684415 0.5207261
vt 0.7198079 0.5439032
vt 0.7444735 0.5649325
vt 0.7559114 0.5781158
vt 0.7562674 0.5873709
vt 0.7673507 0.6325907
vt 0.7752147 0.6724669
vt 0.7748594 0.6770943
vt 0.7305307 0.6781129
vt 0.6879873 0.6741493
vt 0.8390158 0.4108425
vt 0.8375916 0.3738219
vt 0.7918402 0.3210887
vt 0.05971211 0.2974915
vt 0.09117079 0.2491148
vt 0.06685686 0.2732936
vt 0.1912642 0.2107819
vt 0.3242489 0.4387461
vt 0.311382 0.1867116
vt 0.4515069 0.1612377
vt 0.3313934 0.4544166
vt 0.6931779 0.2369718
vt 0.5516059 0.1442632
vt 0.3471298 0.5242032
vt 0.4028951 0.7278751
vt 0.5658954 0.7579561
vt 0.3685784 0.6125064
vt 0.8833492 0.5917216
vt 0.7360691 0.7738105
vt 0.9133837 0.7697361
vt 0.9148047 0.7512265
vt 0.532121 0.2129772
vt 0.5330412 0.2129772
vt 0.532121 0.2037938
vt 0.5330412 0.2037938
vt 0.531888 0.2129772
vt 0.531888 0.2037938
vt 0.4943468 0.2129772
vt 0.4923231 0.2129772
vt 0.4943468 0.2037938
vt 0.4923231 0.2037938
vt 0.4912665 0.2129772
vt 0.4912665 0.2037938
vt 0.5010235 0.2129772
vt 0.5010235 0.2037938
vt 0.5023571 0.2129772
vt 0.5023571 0.2037938
vt 0.5084432 0.2129772
vt 0.5084432 0.2037938
vt 0.5170285 0.2129772
vt 0.5170285 0.2037938
vt 0.5286012 0.2129772
vt 0.5231283 0.2129772
vt 0.5286012 0.2037938
vt 0.5231283 0.2037938
vt 0.4989756 0.2129772
vt 0.5073485 0.2129772
vt 0.4989756 0.2037938
vt 0.5073485 0.2037938
vt 0.5001595 0.2129772
vt 0.5001595 0.2037938
vt 0.5297312 0.2129772
vt 0.5297312 0.2037938
vt 0.5165102 0.2129772
vt 0.5165102 0.2037938
vt 0.5266129 0.2129772
vt 0.5271932 0.2129772
vt 0.5266129 0.2037938
vt 0.5271932 0.2037938

vn 2.522054E-08 1.745383E-08 -1
vn -8.192758E-07 -5.589486E-07 1
vn -0.999261 -0.03844419 -1.238042E-08
vn -0.7553393 -0.6553342 -2.110414E-07
vn 0.7051339 -0.7090744 -2.283477E-07
vn 0.9590679 -0.283177 -9.119328E-08
vn 0.3576411 -0.9338593 -1.113247E-07
vn 0.4710253 0.88212 2.840746E-07
vn 0.1964828 -0.9805074 -1.168856E-07
vn 0.1788625 -0.9838741 -1.172869E-07
vn 0.909895 0.4148393 1.335933E-07
vn -0.5478384 -0.8365843 -2.694105E-07
vn 0.1671903 -0.9859248 -1.175314E-07
vn 0.9755068 0.2199705 7.08385E-08
vn -0.6487852 -0.7609719 -2.450606E-07
vn 0.1814809 0.9833946 2.391229E-07
vn 0.9584959 0.2851071 6.290113E-08
vn 0.971745 0.2360341 5.20745E-08
vn -0.9712524 -0.238053 -5.251991E-08
vn 0.0927644 0.9956883 2.449156E-07
vn -0.9970662 0.07654734 1.882882E-08
vn -0.02297212 0.9997362 2.459113E-07
vn -0.9811042 -0.1934813 -4.759178E-08

usemtl laptop
f 14/14/1 15/15/1 16/16/1
f 7/7/1 8/8/1 6/6/1
f 8/8/1 9/9/1 6/6/1
f 5/5/1 6/6/1 9/9/1
f 10/10/1 5/5/1 9/9/1
f 11/11/1 5/5/1 10/10/1
f 11/11/1 4/4/1 5/5/1
f 12/12/1 13/13/1 11/11/1
f 4/4/1 11/11/1 13/13/1
f 4/4/1 13/13/1 3/3/1
f 3/3/1 13/13/1 14/14/1
f 2/2/1 21/21/1 1/1/1
f 3/3/1 21/21/1 2/2/1
f 3/3/1 14/14/1 21/21/1
f 16/16/1 21/21/1 14/14/1
f 21/21/1 16/16/1 17/17/1
f 17/17/1 20/20/1 21/21/1
f 20/20/1 18/18/1 19/19/1
f 17/17/1 18/18/1 20/20/1
f 40/40/2 42/42/2 39/39/2
f 41/41/2 42/42/2 40/40/2
f 37/37/2 40/40/2 39/39/2
f 39/39/2 22/22/2 37/37/2
f 24/24/2 37/37/2 22/22/2
f 37/37/2 24/24/2 35/35/2
f 38/38/2 37/37/2 35/35/2
f 36/36/2 37/37/2 38/38/2
f 24/24/2 33/33/2 35/35/2
f 35/35/2 33/33/2 32/32/2
f 33/33/2 31/31/2 32/32/2
f 31/31/2 33/33/2 34/34/2
f 29/29/2 32/32/2 31/31/2
f 30/30/2 29/29/2 31/31/2
f 28/28/2 29/29/2 30/30/2
f 28/28/2 25/25/2 29/29/2
f 25/25/2 28/28/2 26/26/2
f 25/25/2 26/26/2 27/27/2
f 22/22/2 23/23/2 24/24/2
f 15/46/3 23/44/3 22/43/3
f 22/43/3 16/45/3 15/46/3
f 14/48/4 24/47/4 23/44/4
f 23/44/4 15/46/4 14/48/4
f 7/52/5 27/50/5 26/49/5
f 26/49/5 8/51/5 7/52/5
f 6/54/6 25/53/6 27/50/6
f 27/50/6 7/52/6 6/54/6
f 8/51/7 26/49/7 28/55/7
f 28/55/7 9/56/7 8/51/7
f 5/58/8 29/57/8 25/53/8
f 25/53/8 6/54/8 5/58/8
f 9/56/9 28/55/9 30/59/9
f 30/59/9 10/60/9 9/56/9
f 10/60/10 30/59/10 31/61/10
f 31/61/10 11/62/10 10/60/10
f 4/58/11 32/57/11 29/57/11
f 29/57/11 5/58/11 4/58/11
f 12/66/12 34/64/12 33/63/12
f 33/63/12 13/65/12 12/66/12
f 11/62/13 31/61/13 34/64/13
f 34/64/13 12/66/13 11/62/13
f 3/56/14 35/55/14 32/57/14
f 32/57/14 4/58/14 3/56/14
f 13/65/15 33/63/15 24/47/15
f 24/47/15 14/48/15 13/65/15
f 21/70/16 37/68/16 36/67/16
f 36/67/16 1/69/16 21/70/16
f 1/69/17 36/67/17 38/71/17
f 38/71/17 2/72/17 1/69/17
f 2/72/18 38/71/18 35/55/18
f 35/55/18 3/56/18 2/72/18
f 16/45/19 22/43/19 39/73/19
f 39/73/19 17/74/19 16/45/19
f 20/76/20 40/75/20 37/68/20
f 37/68/20 21/70/20 20/76/20
f 18/80/21 42/78/21 41/77/21
f 41/77/21 19/79/21 18/80/21
f 19/79/22 41/77/22 40/75/22
f 40/75/22 20/76/22 19/79/22
f 17/74/23 39/73/23 42/78/23
f 42/78/23 18/80/23 17/74/23

