# ProBuilder 4.4.0
# https://unity3d.com/unity/features/worldbuilding/probuilder
# 11/12/2020 12:14:55

mtllib ./leg_heel.mtl
o leg heel

g leg heel
v -0.1959854 -0.2830255 -0.02797986
v -0.1921844 -0.1892416 -0.02797984
v -0.1749076 -0.08742838 -0.02797981
v -0.1576092 -0.01125816 -0.02797974
v -0.1585674 0.07609031 -0.02797979
v -0.1430909 0.1549777 -0.02797975
v -0.139387 0.2154072 -0.02797974
v -0.126779 0.2680286 -0.02797974
v -0.1066513 0.3014131 -0.02797973
v -0.09106851 0.337523 -0.02797973
v -0.1020689 0.3864143 -0.02797972
v -0.08765462 0.397819 -0.02797972
v -0.01795775 0.3416697 -0.02797961
v -0.03292093 0.2853081 -0.02797973
v 0.03681032 0.3141311 -0.02797961
v 0.03423948 0.2996726 -0.02797973
v 0.003070149 0.2517783 -0.02797962
v -0.00941591 0.216702 -0.02797962
v -0.06345768 0.184453 -0.02797963
v -0.03722117 0.05214904 -0.02797979
v -0.05349893 -0.03843698 -0.0279798
v -0.04701624 -0.1455459 -0.02797983
v -0.02860737 -0.2354461 -0.02797985
v -0.01985592 -0.3098999 -0.02797987
v 0.0368103 0.3141311 2.500006E-07
v -0.03292095 0.2853081 1.273553E-07
v 0.03423947 0.2996726 1.290677E-07
v 0.003070134 0.2517783 2.425675E-07
v -0.009415925 0.216702 2.383861E-07
v -0.0634577 0.184453 2.345417E-07
v -0.08765463 0.397819 1.407676E-07
v -0.1020689 0.3864143 1.394081E-07
v -0.09106851 0.337523 1.335798E-07
v -0.01795776 0.3416697 2.532834E-07
v -0.1066513 0.3014131 1.292752E-07
v -0.1267791 0.2680286 1.252954E-07
v -0.139387 0.2154072 1.190224E-07
v -0.1430909 0.1549777 1.118187E-07
v -0.03722119 0.05214904 6.975824E-08
v -0.1585674 0.07609032 7.261226E-08
v -0.1576092 -0.01125815 1.218042E-07
v -0.05349895 -0.03843698 5.895954E-08
v -0.1749076 -0.08742838 5.311932E-08
v -0.04701626 -0.1455459 3.129001E-08
v -0.1921844 -0.1892416 2.608106E-08
v -0.02860739 -0.2354461 1.312248E-08
v -0.1959854 -0.2830255 0
v -0.01985593 -0.3098999 -1.065426E-08

vt 0.6953125 0.2187499
vt 0.6915115 0.3125337
vt 0.6742347 0.414347
vt 0.6569363 0.4905172
vt 0.6578945 0.5778657
vt 0.642418 0.6567531
vt 0.6387141 0.7171825
vt 0.6261061 0.769804
vt 0.6059784 0.8031884
vt 0.5903956 0.8392984
vt 0.601396 0.8881897
vt 0.5869818 0.8995943
vt 0.5172849 0.8434451
vt 0.5322481 0.7870834
vt 0.4625168 0.8159065
vt 0.4650877 0.801448
vt 0.496257 0.7535536
vt 0.508743 0.7184773
vt 0.5627848 0.6862284
vt 0.5365483 0.5539244
vt 0.552826 0.4633384
vt 0.5463434 0.3562295
vt 0.5279346 0.2663293
vt 0.519183 0.1918755
vt 0.6263125 0.3418962
vt 0.623135 0.3782154
vt 0.6402491 0.3431155
vt 0.6370717 0.3794347
vt 0.6258411 0.347284
vt 0.6397778 0.3485034
vt 0.623495 0.3741004
vt 0.6374316 0.3753197
vt 0.6221349 0.3896455
vt 0.6360716 0.3908648
vt 0.6194103 0.4207885
vt 0.6333469 0.4220078
vt 0.6242144 0.3658791
vt 0.6234136 0.3750329
vt 0.638151 0.3670984
vt 0.6373502 0.3762522
vt 0.6225017 0.385455
vt 0.6364384 0.3866743
vt 0.6251436 0.3552561
vt 0.6390803 0.3564754
vt 0.6210071 0.4025385
vt 0.6349437 0.4037579
vt 0.6333637 0.4218171
vt 0.6175989 0.4414941
vt 0.6315355 0.4427134
vt 0.6158726 0.4612252
vt 0.6298093 0.4624445
vt 0.6168205 0.4503897
vt 0.6307572 0.451609
vt 0.6132504 0.4911961
vt 0.6271871 0.4924154
vt 0.6109738 0.5172176
vt 0.6249105 0.5184368
vt 0.6138612 0.4842136
vt 0.627798 0.4854329
vt 0.6083604 0.5470884
vt 0.6222971 0.5483078
vt 0.6112534 0.5140204
vt 0.6251901 0.5152397
vt 0.6050696 0.5847014
vt 0.6190064 0.5859207
vt 0.6095138 0.5339043
vt 0.6234505 0.5351236
vt 0.602458 0.6145522
vt 0.6163947 0.6157715
vt 0.607848 0.5529429
vt 0.6217847 0.5541622

vn -6.319369E-09 5.961427E-08 -1
vn 1.833179E-06 -8.451687E-06 1
vn -0.3819978 0.9241634 -9.327073E-08
vn 0.9845576 -0.1750625 5.034742E-07
vn 0.8381399 -0.5454558 3.813426E-07
vn 0.9420922 -0.3353548 4.617501E-07
vn 0.5124364 -0.8587254 1.705389E-07
vn -0.6204811 0.7842216 -7.173751E-08
vn -0.9756109 -0.2195086 -2.859567E-07
vn 0.6273606 0.7787291 4.269435E-07
vn 0.9665189 -0.2565965 4.841477E-07
vn -0.9181564 0.3962185 -1.972572E-07
vn -0.8563922 0.5163263 -1.664924E-07
vn -0.9724765 0.2330018 -2.311786E-07
vn -0.9981271 0.06117825 -2.58492E-07
vn 0.9808994 0.194517 5.455832E-07
vn -0.9812943 0.1925147 -2.383532E-07
vn -0.9999401 -0.01096873 -2.675753E-07
vn 0.9842361 -0.1768613 5.030885E-07
vn -0.9751692 0.2214622 -2.332713E-07
vn 0.9981737 0.06041376 5.387966E-07
vn -0.9859064 0.1672996 -2.425871E-07
vn 0.979672 0.2006073 5.723648E-07
vn -0.9991799 0.04049634 -2.587688E-07
vn 0.9931629 0.1167385 5.583854E-07
vn -0.1508375 -0.9885587 -2.971092E-07

usemtl squarelegs
f 16/16/1 14/14/1 15/15/1
f 17/17/1 14/14/1 16/16/1
f 18/18/1 14/14/1 17/17/1
f 19/19/1 14/14/1 18/18/1
f 10/10/1 11/11/1 12/12/1
f 10/10/1 12/12/1 13/13/1
f 14/14/1 10/10/1 13/13/1
f 9/9/1 10/10/1 14/14/1
f 14/14/1 8/8/1 9/9/1
f 19/19/1 8/8/1 14/14/1
f 7/7/1 8/8/1 19/19/1
f 6/6/1 7/7/1 19/19/1
f 6/6/1 19/19/1 20/20/1
f 5/5/1 6/6/1 20/20/1
f 4/4/1 5/5/1 20/20/1
f 21/21/1 4/4/1 20/20/1
f 3/3/1 4/4/1 21/21/1
f 3/3/1 21/21/1 22/22/1
f 2/2/1 3/3/1 22/22/1
f 2/2/1 22/22/1 23/23/1
f 1/1/1 2/2/1 23/23/1
f 1/1/1 23/23/1 24/24/1
f 48/24/2 46/23/2 47/1/2
f 46/23/2 45/2/2 47/1/2
f 46/23/2 44/22/2 45/2/2
f 44/22/2 43/3/2 45/2/2
f 44/22/2 42/21/2 43/3/2
f 42/21/2 41/4/2 43/3/2
f 39/20/2 41/4/2 42/21/2
f 39/20/2 40/5/2 41/4/2
f 39/20/2 38/6/2 40/5/2
f 39/20/2 30/19/2 38/6/2
f 30/19/2 37/7/2 38/6/2
f 30/19/2 36/8/2 37/7/2
f 26/14/2 36/8/2 30/19/2
f 35/9/2 36/8/2 26/14/2
f 26/14/2 33/10/2 35/9/2
f 34/13/2 33/10/2 26/14/2
f 34/13/2 31/12/2 33/10/2
f 31/12/2 32/11/2 33/10/2
f 29/18/2 26/14/2 30/19/2
f 28/17/2 26/14/2 29/18/2
f 27/16/2 26/14/2 28/17/2
f 25/15/2 26/14/2 27/16/2
f 14/28/3 26/26/3 25/25/3
f 25/25/3 15/27/3 14/28/3
f 15/27/4 25/25/4 27/29/4
f 27/29/4 16/30/4 15/27/4
f 16/30/5 27/29/5 28/31/5
f 28/31/5 17/32/5 16/30/5
f 17/32/6 28/31/6 29/33/6
f 29/33/6 18/34/6 17/32/6
f 18/34/7 29/33/7 30/35/7
f 30/35/7 19/36/7 18/34/7
f 11/40/8 32/38/8 31/37/8
f 31/37/8 12/39/8 11/40/8
f 10/42/9 33/41/9 32/38/9
f 32/38/9 11/40/9 10/42/9
f 12/39/10 31/37/10 34/43/10
f 34/43/10 13/44/10 12/39/10
f 13/44/11 34/43/11 26/26/11
f 26/26/11 14/28/11 13/44/11
f 9/46/12 35/45/12 33/41/12
f 33/41/12 10/42/12 9/46/12
f 8/47/13 36/35/13 35/45/13
f 35/45/13 9/46/13 8/47/13
f 7/49/14 37/48/14 36/35/14
f 36/35/14 8/47/14 7/49/14
f 6/51/15 38/50/15 37/48/15
f 37/48/15 7/49/15 6/51/15
f 19/36/16 30/35/16 39/52/16
f 39/52/16 20/53/16 19/36/16
f 5/55/17 40/54/17 38/50/17
f 38/50/17 6/51/17 5/55/17
f 4/57/18 41/56/18 40/54/18
f 40/54/18 5/55/18 4/57/18
f 20/53/19 39/52/19 42/58/19
f 42/58/19 21/59/19 20/53/19
f 3/61/20 43/60/20 41/56/20
f 41/56/20 4/57/20 3/61/20
f 21/59/21 42/58/21 44/62/21
f 44/62/21 22/63/21 21/59/21
f 2/65/22 45/64/22 43/60/22
f 43/60/22 3/61/22 2/65/22
f 22/63/23 44/62/23 46/66/23
f 46/66/23 23/67/23 22/63/23
f 1/69/24 47/68/24 45/64/24
f 45/64/24 2/65/24 1/69/24
f 23/67/25 46/66/25 48/70/25
f 48/70/25 24/71/25 23/67/25
f 24/71/26 48/70/26 47/68/26
f 47/68/26 1/69/26 24/71/26

