# ProBuilder 5.0.0
# https://unity3d.com/unity/features/worldbuilding/probuilder
# 03/12/2020 13:59:28

mtllib ./pinkdonut.mtl
o pinkdonut

g pinkdonut
v -0.8436384 1.327115 -0.6111823
v -0.9980584 1.264087 -0.6111823
v -1.073693 1.166392 -0.6111823
v -1.120964 1.065547 -0.6111823
v -1.105207 0.8796125 -0.6111824
v -1.026421 0.7441012 -0.6111824
v -0.928727 0.6653154 -0.6111825
v -0.7270355 0.6590125 -0.6111826
v -0.6387955 0.6810725 -0.6111825
v -0.5284957 0.7567068 -0.6111824
v -0.4906784 0.8134324 -0.6111825
v -0.4560127 0.8922182 -0.6111824
v -0.4434069 0.9804582 -0.6111824
v -0.4560125 1.087607 -0.6111824
v -0.4969813 1.169544 -0.6111823
v -0.5600099 1.229421 -0.6111823
v -0.635644 1.282995 -0.6111823
v -0.6986727 1.311358 -0.6111823
v -0.8436384 1.327115 -0.5071852
v -0.9980584 1.264087 -0.5071852
v -1.073693 1.166392 -0.5071853
v -0.6986727 1.311358 -0.5071852
v -0.635644 1.282995 -0.5071852
v -0.4906784 0.8134324 -0.5071855
v -0.6387955 0.6810726 -0.5071853
v -0.5284957 0.7567068 -0.5071853
v -0.7270355 0.6590126 -0.5071855
v -0.4969813 1.169544 -0.5071853
v -0.5600099 1.229421 -0.5071852
v -0.4560125 1.087607 -0.5071853
v -0.4434069 0.9804582 -0.5071853
v -0.4560127 0.8922182 -0.5071853
v -1.026421 0.7441012 -0.5071853
v -0.928727 0.6653155 -0.5071853
v -1.105207 0.8796125 -0.5071853
v -1.120964 1.065547 -0.5071853

vt 0.5562803 0.8475019
vt 0.7107003 0.7844734
vt 0.7863344 0.6867792
vt 0.8336059 0.5859334
vt 0.8178488 0.3999993
vt 0.739063 0.264488
vt 0.6413688 0.1857023
vt 0.4396774 0.1793994
vt 0.3514374 0.2014594
vt 0.2411376 0.2770936
vt 0.2033204 0.3338192
vt 0.1686547 0.412605
vt 0.1560489 0.500845
vt 0.1686544 0.6079934
vt 0.2096233 0.6899305
vt 0.2726519 0.7498077
vt 0.348286 0.803382
vt 0.4113146 0.8317447
vt 0.5489889 0.8436421
vt 0.703409 0.7806135
vt 0.7790431 0.6829194
vt 0.4040233 0.8278849
vt 0.3409947 0.7995222
vt 0.196029 0.3299594
vt 0.3441461 0.1975996
vt 0.2338463 0.2732338
vt 0.4323861 0.1755396
vt 0.202332 0.6860707
vt 0.2653605 0.7459478
vt 0.1613631 0.6041336
vt 0.1487576 0.4969852
vt 0.1613634 0.4087452
vt 0.7317717 0.2606282
vt 0.6340775 0.1818425
vt 0.8105575 0.3961395
vt 0.8263146 0.5820737
vt 0.1697264 0.5172892
vt 0.1697264 0.5160252
vt 0.1762262 0.5172892
vt 0.1762262 0.5160252
vt 0.1697264 0.5113765
vt 0.1762262 0.5113765
vt 0.1697264 0.5139575
vt 0.1762262 0.5139575
vt 0.1697264 0.4749662
vt 0.1697264 0.4777151
vt 0.1762262 0.4749662
vt 0.1762262 0.4777151
vt 0.1697264 0.4805145
vt 0.1762262 0.4805145
vt 0.1697264 0.4750855
vt 0.1762262 0.4750855
vt 0.1697264 0.5020924
vt 0.1697264 0.5067386
vt 0.1762262 0.5020924
vt 0.1762262 0.5067386
vt 0.1697264 0.4964784
vt 0.1762262 0.4964784
vt 0.1697264 0.48981
vt 0.1762262 0.48981
vt 0.1697264 0.484696
vt 0.1762262 0.484696
vt 0.1697264 0.4851348
vt 0.1697264 0.4787789
vt 0.1762262 0.4851348
vt 0.1762262 0.4787789
vt 0.1697264 0.4946007
vt 0.1762262 0.4946007
vt 0.1697264 0.5060718
vt 0.1762262 0.5060718

vn 1.687533E-08 -5.06507E-08 -1
vn -1.131586E-08 4.269303E-08 1
vn -0.3778972 0.9258477 2.771388E-07
vn -0.790724 0.612173 1.606916E-07
vn 0.1080597 0.9941446 2.787624E-07
vn 0.410363 0.9119224 2.393739E-07
vn 0.5655289 -0.8247287 -9.831531E-08
vn 0.8320489 -0.5547026 -6.612569E-08
vn 0.2425362 -0.9701425 -1.330258E-07
vn 0.6887499 0.7249993 1.903078E-07
vn 0.894426 0.4472164 1.173915E-07
vn 0.993151 0.1168399 4.741108E-08
vn 0.9899496 -0.1414222 -5.738603E-08
vn 0.9153156 -0.402738 -4.801011E-08
vn 0.5780187 0.8160238 2.142011E-07
vn -0.6277528 -0.7784131 -9.279405E-08
vn -0.03123523 -0.9995122 -1.169134E-07
vn -0.864507 -0.5026212 -2.039527E-07
vn -0.9054589 0.4244344 1.114114E-07
vn -0.9964286 -0.08444283 -3.426506E-08

usemtl donutbton
f 3/3/1 2/2/1 1/1/1
f 18/18/1 3/3/1 1/1/1
f 18/18/1 17/17/1 3/3/1
f 10/10/1 9/9/1 11/11/1
f 8/8/1 11/11/1 9/9/1
f 14/14/1 16/16/1 15/15/1
f 13/13/1 16/16/1 14/14/1
f 13/13/1 12/12/1 16/16/1
f 16/16/1 12/12/1 11/11/1
f 8/8/1 16/16/1 11/11/1
f 17/17/1 16/16/1 8/8/1
f 8/8/1 7/7/1 6/6/1
f 17/17/1 8/8/1 6/6/1
f 6/6/1 5/5/1 17/17/1
f 3/3/1 17/17/1 5/5/1
f 5/5/1 4/4/1 3/3/1
f 21/21/2 36/36/2 35/35/2
f 35/35/2 23/23/2 21/21/2
f 23/23/2 35/35/2 33/33/2
f 33/33/2 27/27/2 23/23/2
f 33/33/2 34/34/2 27/27/2
f 27/27/2 29/29/2 23/23/2
f 24/24/2 29/29/2 27/27/2
f 24/24/2 32/32/2 29/29/2
f 29/29/2 32/32/2 31/31/2
f 30/30/2 29/29/2 31/31/2
f 28/28/2 29/29/2 30/30/2
f 25/25/2 24/24/2 27/27/2
f 24/24/2 25/25/2 26/26/2
f 21/21/2 23/23/2 22/22/2
f 19/19/2 21/21/2 22/22/2
f 19/19/2 20/20/2 21/21/2
f 2/40/3 20/38/3 19/37/3
f 19/37/3 1/39/3 2/40/3
f 3/42/4 21/41/4 20/38/4
f 20/38/4 2/40/4 3/42/4
f 1/39/5 19/37/5 22/43/5
f 22/43/5 18/44/5 1/39/5
f 18/44/6 22/43/6 23/41/6
f 23/41/6 17/42/6 18/44/6
f 10/48/7 26/46/7 25/45/7
f 25/45/7 9/47/7 10/48/7
f 11/50/8 24/49/8 26/46/8
f 26/46/8 10/48/8 11/50/8
f 9/47/9 25/45/9 27/51/9
f 27/51/9 8/52/9 9/47/9
f 16/56/10 29/54/10 28/53/10
f 28/53/10 15/55/10 16/56/10
f 15/55/11 28/53/11 30/57/11
f 30/57/11 14/58/11 15/55/11
f 14/58/12 30/57/12 31/59/12
f 31/59/12 13/60/12 14/58/12
f 13/60/13 31/59/13 32/61/13
f 32/61/13 12/62/13 13/60/13
f 12/62/14 32/61/14 24/49/14
f 24/49/14 11/50/14 12/62/14
f 17/42/15 23/41/15 29/54/15
f 29/54/15 16/56/15 17/42/15
f 7/66/16 34/64/16 33/63/16
f 33/63/16 6/65/16 7/66/16
f 8/52/17 27/51/17 34/64/17
f 34/64/17 7/66/17 8/52/17
f 6/65/18 33/63/18 35/67/18
f 35/67/18 5/68/18 6/65/18
f 4/70/19 36/69/19 21/41/19
f 21/41/19 3/42/19 4/70/19
f 5/68/20 35/67/20 36/69/20
f 36/69/20 4/70/20 5/68/20

