# ProBuilder 4.4.0
# https://unity3d.com/unity/features/worldbuilding/probuilder
# 11/12/2020 12:34:49

mtllib ./stripyhut.mtl
o stripyhut

g stripyhut
v 0.3127988 0.07308133 -0.01430914
v 0.3110241 -0.1895813 -0.0143092
v 0.3092492 -0.4309468 -0.01430938
v 0.1459726 -0.429172 -0.01430926
v 0.04836142 -0.4327215 -0.01430926
v -0.09184346 -0.4398206 -0.01430926
v -0.2249494 -0.4433702 -0.01430938
v -0.2728679 -0.3990016 -0.01430935
v -0.2799668 -0.1611851 -0.0143092
v -0.2835163 0.07663087 -0.01430914
v -0.2657687 0.09970213 -0.01430914
v -0.2870658 0.115675 -0.01430913
v -0.100719 0.2115124 -0.01430908
v 0.05723363 0.2416831 -0.01430908
v 0.3287702 0.09615395 -0.01430913
v -0.2657687 0.09970213 0.008182651
v -0.2835163 0.07663087 0.008182646
v -0.2799668 -0.1611851 0.008182587
v 0.3287702 0.09615395 0.008182657
v 0.05723363 0.2416831 0.00818271
v 0.3127988 0.07308133 0.008182645
v 0.3110241 -0.1895813 0.008182583
v -0.100719 0.2115124 0.008182706
v 0.1459726 -0.429172 0.008182526
v 0.3092492 -0.4309468 0.008182405
v -0.09184346 -0.4398206 0.008182524
v -0.2728679 -0.3990016 0.00818244
v -0.2249494 -0.4433702 0.008182405
v 0.04836142 -0.4327215 0.008182525
v -0.2870658 0.115675 0.008182653

vt 0.07550293 0.6845621
vt 0.07727766 0.4218996
vt 0.07905251 0.1805341
vt 0.2423291 0.1823089
vt 0.3399402 0.1787594
vt 0.4801451 0.1716603
vt 0.613251 0.1681107
vt 0.6611695 0.2124792
vt 0.6682684 0.4502957
vt 0.6718178 0.6881117
vt 0.6540703 0.711183
vt 0.6753674 0.7271558
vt 0.4890206 0.8229932
vt 0.331068 0.8531638
vt 0.05953151 0.7076347
vt 0.08325778 0.2288039
vt 0.08325779 0.2256992
vt 0.09450367 0.2288039
vt 0.09450369 0.2256992
vt 0.08325781 0.2780308
vt 0.0945037 0.2780308
vt 0.08325779 0.4984228
vt 0.08325776 0.3445871
vt 0.09450367 0.4984228
vt 0.09450366 0.3445871
vt 0.08325779 0.4961216
vt 0.09450369 0.4961216
vt 0.08325781 0.5513453
vt 0.09450372 0.5513453
vt 0.08325776 0.2795933
vt 0.09450366 0.2795933
vt 0.08325784 0.5278108
vt 0.0832579 0.6020263
vt 0.09450373 0.5278108
vt 0.09450379 0.6020263
vt 0.08325788 0.3319676
vt 0.0832579 0.3631011
vt 0.09450378 0.3319676
vt 0.09450379 0.3631011
vt 0.08325784 0.4225371
vt 0.09450373 0.4225371
vt 0.08325784 0.4844263
vt 0.09450373 0.4844263
vt 0.08325778 0.2157659
vt 0.09450367 0.2157659

vn -1.844694E-08 1.179716E-07 -1
vn -1.052353E-07 -2.108364E-08 1
vn -0.7926166 0.6097206 2.241654E-07
vn -0.9998889 -0.01492356 -5.177716E-09
vn 0.4723807 0.8813948 3.240472E-07
vn 0.8222245 -0.5691636 -1.825174E-07
vn 0.9999774 -0.006756533 1.98977E-08
vn -0.1876191 0.982242 1.170924E-07
vn -0.01086955 -0.9999411 -1.192022E-07
vn 0.9999732 -0.007353164 1.982649E-08
vn -0.6794043 -0.7337644 -8.747152E-08
vn 0.02665783 -0.9996448 -1.191669E-07
vn -0.9995551 -0.02983685 -3.556829E-09
vn 0.05056895 -0.9987207 -1.190568E-07
vn 0.03633982 -0.9993396 -1.191306E-07
vn -0.4573553 0.8892843 1.060109E-07
vn -0.5999996 -0.8000005 -2.278707E-07

usemtl beach_hut_stripy
f 9/9/1 10/10/1 11/11/1
f 1/1/1 14/14/1 15/15/1
f 2/2/1 14/14/1 1/1/1
f 13/13/1 14/14/1 2/2/1
f 3/3/1 4/4/1 2/2/1
f 7/7/1 8/8/1 6/6/1
f 8/8/1 9/9/1 6/6/1
f 5/5/1 6/6/1 9/9/1
f 4/4/1 5/5/1 9/9/1
f 2/2/1 4/4/1 9/9/1
f 13/13/1 2/2/1 9/9/1
f 9/9/1 11/11/1 13/13/1
f 11/11/1 12/12/1 13/13/1
f 23/13/2 30/12/2 16/11/2
f 23/13/2 16/11/2 18/9/2
f 18/9/2 22/2/2 23/13/2
f 18/9/2 24/4/2 22/2/2
f 18/9/2 29/5/2 24/4/2
f 18/9/2 26/6/2 29/5/2
f 26/6/2 18/9/2 27/8/2
f 26/6/2 27/8/2 28/7/2
f 22/2/2 24/4/2 25/3/2
f 22/2/2 20/14/2 23/13/2
f 21/1/2 20/14/2 22/2/2
f 19/15/2 20/14/2 21/1/2
f 16/11/2 17/10/2 18/9/2
f 10/19/3 17/17/3 16/16/3
f 16/16/3 11/18/3 10/19/3
f 9/21/4 18/20/4 17/17/4
f 17/17/4 10/19/4 9/21/4
f 14/25/5 20/23/5 19/22/5
f 19/22/5 15/24/5 14/25/5
f 15/24/6 19/22/6 21/26/6
f 21/26/6 1/27/6 15/24/6
f 1/27/7 21/26/7 22/28/7
f 22/28/7 2/29/7 1/27/7
f 13/31/8 23/30/8 20/23/8
f 20/23/8 14/25/8 13/31/8
f 3/35/9 25/33/9 24/32/9
f 24/32/9 4/34/9 3/35/9
f 2/29/10 22/28/10 25/33/10
f 25/33/10 3/35/10 2/29/10
f 7/39/11 28/37/11 27/36/11
f 27/36/11 8/38/11 7/39/11
f 6/41/12 26/40/12 28/37/12
f 28/37/12 7/39/12 6/41/12
f 8/38/13 27/36/13 18/20/13
f 18/20/13 9/21/13 8/38/13
f 5/43/14 29/42/14 26/40/14
f 26/40/14 6/41/14 5/43/14
f 4/34/15 24/32/15 29/42/15
f 29/42/15 5/43/15 4/34/15
f 12/45/16 30/44/16 23/30/16
f 23/30/16 13/31/16 12/45/16
f 11/18/17 16/16/17 30/44/17
f 30/44/17 12/45/17 11/18/17

